<svg id="Layer_1" data-name="Layer 1" xmlns="http://www.w3.org/2000/svg" viewBox="0 0 112.03 112.03"><defs><style>.cls-1{fill:none;stroke-width:3px;}.cls-1,.cls-3{stroke:#265f79;stroke-miterlimit:10;}.cls-2,.cls-3{fill:#265f79;}.cls-3{stroke-width:1.52px;}</style></defs><title>icon</title><circle class="cls-1" cx="56.01" cy="56.01" r="54.51"/><path class="cls-2" d="M69.24,85.61c-1.18,2.87-2.15,5.47-3.33,8A24.88,24.88,0,0,1,63.52,97a22.3,22.3,0,0,1-2-3.82C60,88.17,58.6,83.06,57.14,78a18.52,18.52,0,0,0-1-2.17c-.53,1.36-.85,2.09-1.1,2.84-1.65,5-3.25,10.07-5,15.07a8.18,8.18,0,0,1-1.56,2,9.45,9.45,0,0,1-2-1.94c-1.42-2.57-2.66-5.24-4.14-8.2-2.67,1.73-5,3.33-7.5,4.8a9.44,9.44,0,0,1-2.51.67,8.24,8.24,0,0,1-.17-2.75c1.44-4.85,3-9.67,4.55-14.48a2.81,2.81,0,0,0-.53-3.11C35.12,69.43,35.09,67.26,34,66s-3.26-1.42-4.48-2.58c-2.47-2.35-2.6-5.31-1.11-8.3-4.48-4.31-4.75-6.66-1.32-11.51-2.74-5.45-2.29-7.14,2.76-11.12a2.32,2.32,0,0,0,.6-1.79,6.52,6.52,0,0,1,6.74-7.24,2.33,2.33,0,0,0,1.67-1.14c2.09-3.93,4.67-5.07,9-4a2.24,2.24,0,0,0,1.83-.63c2.9-3.26,6.43-3.65,10-1.14a3.05,3.05,0,0,0,2.42.3c4.41-1.57,7.58-.29,9.59,3.9A2.51,2.51,0,0,0,73.28,22c4.79.76,6.69,2.91,6.93,7.77a2.81,2.81,0,0,0,1.07,2c4.14,2.56,5.06,5.13,3.41,9.6a2.36,2.36,0,0,0,.41,1.95C88.34,47.19,88,50.92,84,54.23a2.48,2.48,0,0,0-.56,2.07c.92,3.88-1,7.43-4.92,8.37a1.86,1.86,0,0,0-1.68,2A4.52,4.52,0,0,1,76,69.54c-1.7,1.55-1.14,3.12-.58,4.83,1.48,4.59,2.94,9.18,4.33,13.8a7.3,7.3,0,0,1-.1,2.35,7.9,7.9,0,0,1-2.5-.4C74.59,88.78,72.14,87.28,69.24,85.61ZM34.75,62.87c1.81-.55,2.56.3,2.07,2a3.67,3.67,0,0,0,1.91,4.51,3.82,3.82,0,0,0,4.92-.63c1.38-1.31,2.29-.93,2.64.93s1.11,3.52,3.07,4a4.15,4.15,0,0,0,4.81-2c.89-1.36,1.94-1.32,2.6.18,1,2.28,2.73,3.31,5,2.71,2.11-.55,3-2.24,3-4.47a2.49,2.49,0,0,1,.86-1.72c.22-.18,1.13.23,1.54.59,1.68,1.47,3.5,1.85,5.32.52s2-3.15,1.2-5.22-.23-2.67,1.89-2.34c1.85.29,3.64.27,4.76-1.58s.69-3.5-.67-5.11c-1.57-1.85-1.27-2.64,1.2-2.93a3.69,3.69,0,0,0,3.65-3.56c.25-2.17-.91-3.54-2.88-4.29-2.48-1-2.56-1.38-.53-3.1a4,4,0,0,0-2.55-7.23c-2.68,0-2.66-.42-1.77-3a6.65,6.65,0,0,0-.3-4.78c-.75-1.42-2.56-1.77-4.36-1.18-2.7.88-2.48.76-2.93-2.11-.22-1.4-1.33-3.26-2.51-3.73a5.32,5.32,0,0,0-4.4,1c-2.08,1.65-2.25,1.88-3.71-.51-1-1.7-2.62-2.57-4.32-1.87a6.44,6.44,0,0,0-3,3.11c-.91,2-1.19,2.25-3.07.84C45,19.4,41.76,20.7,41.36,24.68c-.2,2-1,2.44-2.78,1.65s-3.41-.06-4.6,1.28a3.61,3.61,0,0,0-.46,4.52c1.2,2.12.88,2.69-1.46,2.86a3.94,3.94,0,0,0-3.68,2.76,3.76,3.76,0,0,0,1.33,4.39c2,1.73,1.9,1.59-.18,3.45-1,.88-2,2.57-1.83,3.67a6,6,0,0,0,2.78,3.61c2.27,1.25,2.19,1,.89,3.17a6.53,6.53,0,0,0-.57,4.51C31.23,62.18,32.84,63,34.75,62.87Zm13,27.38h.65l4.54-14c-3.44.48-6.39.1-8.06-2.87-1.05-1.87-2.39-1.13-3.59-.76a3.39,3.39,0,0,0-2,1.75c-1.15,3-2.1,6.16-3.08,9.27-.24.75-.34,1.54-.5,2.31l.52.34c1.68-1.07,3.36-2.12,5-3.21s2.52-.66,3.29,1C45.56,86.22,46.71,88.21,47.78,90.25Zm12-12.6,3.9,13.63c.51-.8.66-1,.75-1.19.81-1.85,1.64-3.7,2.42-5.57,1-2.33,1.42-2.52,3.6-1.33,1.72.94,3.43,1.91,5.73,3.19-.36-1.68-.5-2.66-.78-3.59C74.8,80.86,74,79,73.51,77c-1.07-3.94-1-4-4.77-4.4a1.63,1.63,0,0,0-.69,0c-.4.15-1,.29-1.12.59C65.65,76.31,62.89,77.06,59.77,77.64Z"/><path class="cls-3" d="M35,46a20.55,20.55,0,0,1,21.2-20.93c12.6.2,21,9.57,21,21.29,0,11.55-9.5,21-21.67,20.81C44.52,67.08,34.42,57.21,35,46ZM56.1,28c-10.24-.69-18.73,8.69-18.43,18.87.29,9.5,9.13,18,18.67,17.65A18.41,18.41,0,0,0,74.42,46.07C74.47,35.52,65.14,27.23,56.1,28Z"/><path class="cls-2" d="M62.19,54.87H50.73V50.46h2.73V41.8a8.46,8.46,0,0,1-2,.19,4.76,4.76,0,0,1-.69,0V37.71h.34a8,8,0,0,0,3.35-.7,5.33,5.33,0,0,0,2.24-1.69h2.88V50.46h2.64Z"/></svg>