<svg id="Layer_1" data-name="Layer 1" xmlns="http://www.w3.org/2000/svg" viewBox="0 0 112.6 112.6"><defs><style>.cls-1{fill:none;stroke:#265f79;stroke-miterlimit:10;stroke-width:3px;}.cls-2{fill:#265f79;}</style></defs><title>icon</title><circle class="cls-1" cx="56.3" cy="56.3" r="54.8"/><path class="cls-2" d="M22.09,49.48V44.76c0-.12,0-.25.05-.37.06-1.35.09-2.71.18-4.06.13-1.93.3-3.86.47-5.79a2.43,2.43,0,0,1,1.75-2.21L51.93,22.4,55.84,21h.91l.52.2,8.24,3,22.57,8.19A2.38,2.38,0,0,1,89.8,34.5c.21,2.38.38,4.77.56,7.16.07,1,.1,1.92.15,2.88V49.7c0,.14,0,.27-.05.41-.18,2.52-.31,5.06-.56,7.57a59.76,59.76,0,0,1-2.06,10.6,45.35,45.35,0,0,1-8.25,16.36A35.52,35.52,0,0,1,59.93,97.18a13.12,13.12,0,0,1-5.71.34A35.37,35.37,0,0,1,35.5,87.44a41.88,41.88,0,0,1-9.38-15.07,67.07,67.07,0,0,1-3.87-20Zm4.8-4a102.28,102.28,0,0,0,.59,11.76A60.57,60.57,0,0,0,29.7,68a39.79,39.79,0,0,0,7.4,14A30.66,30.66,0,0,0,54.28,92.6a7.3,7.3,0,0,0,2.24.27,24.38,24.38,0,0,0,7.35-2.08A32,32,0,0,0,78.6,77.71,44.88,44.88,0,0,0,83.75,65a73.62,73.62,0,0,0,1.95-16.9,112.38,112.38,0,0,0-.5-11.38.37.37,0,0,0-.3-.37l-2.25-.82-26-9.42a1.09,1.09,0,0,0-.8,0L38.47,32.4,27.81,36.27c-.2.07-.38.12-.4.42C27.21,40.12,27,43.56,26.89,45.48Z"/><path class="cls-2" d="M46.47,53.36c0-.29,0-.53,0-.77,0-2.12,0-4.23,0-6.35A7.08,7.08,0,0,1,52.77,39a24.61,24.61,0,0,1,3-.05h3.12a7.09,7.09,0,0,1,7.14,6.18,24.94,24.94,0,0,1,.08,3.19c0,1.52,0,3,0,4.56,0,.14,0,.27,0,.43.55,0,1.07,0,1.58.1a3.49,3.49,0,0,1,2.95,3.22c.05,1.3,0,2.61,0,3.91,0,3.57,0,7.15,0,10.72A3.54,3.54,0,0,1,67,75H45.67a3.54,3.54,0,0,1-3.76-3.73q0-7.13,0-14.25a3.56,3.56,0,0,1,3.65-3.61Zm14.84,0c0-.13,0-.23,0-.33q0-3.4,0-6.8a2.31,2.31,0,0,0-2.43-2.43H53.8a2.33,2.33,0,0,0-2.52,2.54q0,3.34,0,6.69c0,.11,0,.22,0,.34ZM54.8,66.66h0c0,.87,0,1.75,0,2.62a.78.78,0,0,0,.87.87h1.14c.74,0,1-.26,1-1,0-1.68,0-3.37,0-5.05a.53.53,0,0,1,.24-.51,3,3,0,0,0,1.12-3.33,3,3,0,0,0-5.7,0,3,3,0,0,0,1.1,3.33.53.53,0,0,1,.25.5C54.79,64.94,54.8,65.8,54.8,66.66Z"/></svg>