<svg id="Layer_1" data-name="Layer 1" xmlns="http://www.w3.org/2000/svg" viewBox="0 0 128.72 126"><defs><style>.cls-1{fill:none;stroke:#265f79;stroke-miterlimit:10;stroke-width:3px;}.cls-2{fill:#265f79;}</style></defs><title>icon</title><circle class="cls-1" cx="56.3" cy="56.3" r="54.8"/><path class="cls-2" d="M82.8,57.5A47.4,47.4,0,0,1,77.55,62a45.07,45.07,0,0,1-10.79,6.07A31.94,31.94,0,0,1,59.44,70,27.69,27.69,0,0,1,47.9,69,41.81,41.81,0,0,1,35.69,63a48.45,48.45,0,0,1-6.23-5.16c-.08-.08-.17-.15-.32-.27l.78-.72A49.07,49.07,0,0,1,42.85,48a33.42,33.42,0,0,1,8.79-2.76A26.66,26.66,0,0,1,58.7,45a33.58,33.58,0,0,1,11.82,3.65,49.11,49.11,0,0,1,12,8.62A3.49,3.49,0,0,0,82.8,57.5Zm-36.44,0a9.74,9.74,0,1,0,9.75-9.75A9.76,9.76,0,0,0,46.36,57.54Zm2.51,9.37a11.94,11.94,0,0,1-.23-18.79A35.6,35.6,0,0,0,40,51.83a43.33,43.33,0,0,0-7.66,5.64,43.45,43.45,0,0,0,7.79,5.72A36.52,36.52,0,0,0,48.88,66.91Zm14.45-.12a35.74,35.74,0,0,0,8.61-3.71,43,43,0,0,0,7.6-5.62,41.8,41.8,0,0,0-16.08-9.27A11.93,11.93,0,0,1,63.32,66.79Z"/><path class="cls-2" d="M54.8,51.71A5.78,5.78,0,0,1,61,54.36a5.84,5.84,0,0,1-8,8,5.72,5.72,0,0,1-2.7-5.71,3.36,3.36,0,0,0,2.86,1,3.26,3.26,0,0,0,2.09-1.14A3.4,3.4,0,0,0,54.8,51.71Z"/><path class="cls-2" d="M128.72,115.65,117.43,126c-4.78-4.61-9.94-9.59-15.1-14.58-3-2.88-6.26-5.51-8.8-8.73-2.39-3-6.84-4.18-6.64-10.06.1-3-5.85-6.11-9.2-9.31C67.75,90.44,56.83,92.8,45,89A35.47,35.47,0,1,1,87.23,71.46c-1.62,3.09-1.56,5.15,1.2,6.88,3.23,2,4.19,7.85,9.83,5.94.25-.08.79.59,1.15,1ZM55.63,85.87a30.67,30.67,0,0,0,31-30.67A31.23,31.23,0,0,0,56,24.4C39.23,24.27,25,38.46,25,55.29A30.8,30.8,0,0,0,55.63,85.87Zm37.09,8.9,1.87-.91,23.94,25.53,3.91-4.54-1.56,1L97.55,90.59Z"/></svg>