<?xml version="1.0" encoding="utf-8"?>
<!-- Generator: Adobe Illustrator 16.0.0, SVG Export Plug-In . SVG Version: 6.00 Build 0)  -->
<!DOCTYPE svg PUBLIC "-//W3C//DTD SVG 1.1//EN" "http://www.w3.org/Graphics/SVG/1.1/DTD/svg11.dtd">
<svg version="1.1" id="Layer_1" xmlns="http://www.w3.org/2000/svg" xmlns:xlink="http://www.w3.org/1999/xlink" x="0px" y="0px"
	 width="500px" height="500px" viewBox="0 0 500 500" enable-background="new 0 0 500 500" xml:space="preserve">
<g>
	<path fill="#275E79" d="M393.869,428.7v-11.131c0-77.3,0-154.601,0-231.712c0.754-5.938-2.771-11.587-8.435-13.523
		c-43.303-20.132-86.379-40.759-129.72-60.776c-4.218-1.694-8.926-1.694-13.144,0c-43.418,20.094-86.721,40.91-130.29,61.194
		c-4.993,1.87-8.023,6.951-7.294,12.232c0.178,77.289,0.178,154.526,0,231.711c0,3.57,0,7.181,0,11.396H74.6V191.023l-27.426,12.611
		l-13.143-27.501l28.564-13.562c59.892-28.287,119.82-56.51,179.786-84.669c3.824-1.859,8.22-2.172,12.269-0.874
		c68.729,31.958,137.356,64.157,205.883,96.597c1.291,0.608,2.506,1.443,4.443,2.583l-13.105,27.426l-27.272-12.194V428.7H393.869z"
		/>
	<path fill="#275E79" d="M200.636,294.496v-98.763h37.073v30.73h23.627v-30.692h38.594v98.763L200.636,294.496z"/>
	<path fill="#275E79" d="M364.999,326.898v99.674h-99.256v-99.257h37.605v30.884h23.171v-31.301H364.999z"/>
	<path fill="#275E79" d="M134.16,426.458v-99.255h37.188v30.843h23.399v-30.882h38.403v99.294H134.16z"/>
</g>
</svg>
