<?xml version="1.0" encoding="utf-8"?>
<!-- Generator: Adobe Illustrator 16.0.0, SVG Export Plug-In . SVG Version: 6.00 Build 0)  -->
<!DOCTYPE svg PUBLIC "-//W3C//DTD SVG 1.1//EN" "http://www.w3.org/Graphics/SVG/1.1/DTD/svg11.dtd">
<svg version="1.1" id="Layer_1" xmlns="http://www.w3.org/2000/svg" xmlns:xlink="http://www.w3.org/1999/xlink" x="0px" y="0px"
	 width="500px" height="500px" viewBox="0 0 500 500" enable-background="new 0 0 500 500" xml:space="preserve">
<g>
	<path fill="#275E79" d="M432.824,406.579l-244.007,10.644v-204.35c12.309,0,24.712-0.439,37.021,0
		c64.935,2.638,129.838,5.715,194.678,8.008c9.42,0.345,12.561,2.731,12.561,12.559c-0.472,53.914-0.22,107.828-0.22,161.741
		L432.824,406.579z M221.378,314.012c0-25.843,0.188-51.685-0.219-77.526c0-3.642-3.14-7.253-4.804-10.896
		c-1.728,3.549-3.517,7.065-5.087,10.676c-0.186,1.039-0.186,2.102,0,3.141c0,49.842,0,99.684,0,149.524
		c-0.159,3.304,0.147,6.612,0.911,9.829c0.913,1.879,2.659,3.217,4.71,3.611c1.099,0.188,3.359-1.82,3.736-3.141
		c0.661-2.859,0.936-5.796,0.816-8.729C221.441,364.921,221.42,339.425,221.378,314.012z M254.568,315.174
		c0-25.465,0.219-50.931-0.251-76.396c0-3.831-3.455-7.599-5.307-11.399c-1.539,3.675-4.396,7.35-4.428,11.053
		c-0.293,50.576-0.293,101.149,0,151.725c0,3.644,3.14,7.254,4.679,10.896c1.758-3.894,4.992-7.756,5.056-11.65
		C254.852,364.692,254.568,339.917,254.568,315.174z M286.815,314.012c0-23.968,0-47.926,0-71.874
		c0.262-2.937,0.102-5.897-0.471-8.791c-0.628-2.104-2.857-3.77-4.396-5.621c-1.907,1.904-3.602,4.01-5.056,6.279
		c-0.466,1.784-0.541,3.649-0.22,5.464c0,49.77,0,99.538,0.22,149.306c0,3.895,3.359,7.757,5.149,11.65
		c1.602-4.051,4.49-8.102,4.553-12.185c0.503-24.805,0.283-49.517,0.283-74.197L286.815,314.012z M375.143,312.913
		c0,24.366-0.188,48.7,0.188,73.067c0,3.36,2.826,6.688,4.334,10.048c1.884-3.359,5.37-6.688,5.4-10.048
		c0.357-47.958,0.357-95.927,0-143.906c0-3.358-3.548-6.688-5.463-10.016c-1.476,3.328-4.208,6.657-4.271,10.048
		c-0.282,23.581-0.093,47.226-0.093,70.838L375.143,312.913z M407.422,312.913c0,23.958-0.22,47.916,0.22,71.874
		c0,3.643,3.14,7.19,4.836,10.803c1.695-3.612,4.835-7.191,4.835-10.834c0.335-47.184,0.335-94.367,0-141.551
		c0-3.611-3.14-7.19-4.867-10.801c-1.695,3.61-4.74,7.189-4.834,10.801c-0.314,23.3-0.096,46.535-0.096,69.739L407.422,312.913z
		 M319.094,313.95c0-24.681,0.159-49.361-0.188-74.01c0-3.36-2.699-6.688-4.145-10.048c-1.727,3.423-4.898,6.813-4.93,10.236
		c-0.314,49.716-0.314,99.432,0,149.148c0,3.359,2.669,6.688,4.081,10.049c1.728-3.423,4.931-6.814,4.993-10.236
		c0.503-25.026,0.283-50.053,0.283-75.108L319.094,313.95z M352.158,314.985c0-24.334,0.189-48.67-0.219-72.974
		c0-3.517-3.141-6.969-4.867-10.456c-1.507,3.141-4.364,6.281-4.364,9.609c-0.272,48.648-0.272,97.307,0,145.978
		c0,3.14,3.14,6.28,4.678,9.419c1.57-3.139,4.491-6.279,4.521-9.607c0.535-24.021,0.347-47.979,0.347-71.938L352.158,314.985z"/>
	<path fill="#275E79" d="M180.716,416.5l-55.453-5.18V214.161l55.453-2.796V416.5z"/>
	<path fill="#275E79" d="M118.073,213.973v196.563c-15.699-1.318-31.87-2.857-47.915-3.895c-7.945-0.344-7.128-5.62-7.128-10.801
		c0-43.144,0-86.276,0-129.398c0-16.139,0-32.247,0-49.33L118.073,213.973z"/>
	<path fill="#275E79" d="M226.968,136.697L71.162,211.868l-2.606-4.427c2.959-2.426,6.11-4.61,9.419-6.532
		c48.701-23.675,97.56-47.1,146.167-70.994c4.489-2.198,7.599-7.254,12.277-11.899l6.594,8.258
		c10.77-8.384-0.88-12.843-2.732-18.213c-3.14-9.418-7.945-18.18-12.905-29.138h33.473l-9.421,31.399
		c0.884,4.557,2.241,9.008,4.051,13.281c1.9,3.547,4.852,6.421,8.446,8.228c53.381,25.12,106.76,50.239,159.951,75.359
		c3.251,1.826,6.338,3.928,9.231,6.28l-1.947,3.453c-3.862-1.413-7.85-2.512-11.524-4.239
		c-53.379-25.118-106.759-49.956-159.886-75.579c-11.022-5.055-17.742-4.771-25.654,5.118
		c-15.135,19.06-31.557,37.209-47.507,55.546c-2.292,2.67-4.805,5.119-7.223,7.662l-3.61-2.199c1.333-3.243,3.006-6.338,4.992-9.23
		c15.7-18.559,31.683-36.927,47.571-55.357L226.968,136.697z"/>
</g>
</svg>
