<?xml version="1.0" encoding="utf-8"?>
<!-- Generator: Adobe Illustrator 16.0.0, SVG Export Plug-In . SVG Version: 6.00 Build 0)  -->
<!DOCTYPE svg PUBLIC "-//W3C//DTD SVG 1.1//EN" "http://www.w3.org/Graphics/SVG/1.1/DTD/svg11.dtd">
<svg version="1.1" id="Layer_1" xmlns="http://www.w3.org/2000/svg" xmlns:xlink="http://www.w3.org/1999/xlink" x="0px" y="0px"
	 width="500px" height="500px" viewBox="0 0 500 500" enable-background="new 0 0 500 500" xml:space="preserve">
<g>
	<path fill="#275E79" d="M426.927,250.279c0,52.806,0,105.601,0,158.385c0,14.078-3.869,17.135-17.656,14.372
		c-8.497-1.713-17.015-3.339-25.557-4.879c-6.959-1.267-14.047-4.91-19.511,4.001c-1.267,2.047-7.803,1.593-11.705,1.04
		c-8.876-1.269-17.656-3.415-26.5-4.976c-6.894-1.235-14.015-5.072-19.51,3.869c-1.301,2.081-7.836,1.919-11.705,1.235
		c-67.092-12.029-134.117-24.182-201.078-36.45c-12.583-2.275-14.47-4.486-14.47-17.037c0-79.828,0.163-159.686-0.228-239.512
		c0-10.47,3.675-15.022,13.494-17.266c51.008-11.684,101.948-23.607,152.824-35.767c7.804-1.886,14.112-1.269,18.762,5.43
		c5.301,7.641,11.934,8.747,20.713,6.926c22.762-4.715,45.521-8.714,68.283-13.006c5.561-0.911,11.25-1.821,15.315,4.584
		c1.981,1.747,4.647,2.501,7.25,2.049c11.349-1.788,22.697-3.999,34.044-6.275c13.169-2.536,17.299,0.683,17.299,13.917
		C426.949,144.027,426.927,197.148,426.927,250.279z M98.843,367.465l192.201,34.956V153.804c-15.218,0-29.655,0-44.091,0
		c-10.861,0-13.007-2.309-13.007-13.007c0-13.005,0-26.012,0-40.026L98.843,132.376V367.465z M292.475,107.893l-2.7,3.706
		c3.253,2.146,6.505,4.129,9.755,6.503c9.334,6.829,11.935,15.867,11.868,27.541c-0.52,79.209-0.259,158.449-0.259,237.657v12.291
		l38.369,6.928V97.748L292.475,107.893z M407.125,402.485V97.748c-9.287,2.171-18.688,3.822-28.159,4.942
		c-8.682,0.584-10.144,4.357-10.112,12.192c0.261,90.103,0.163,180.204,0.163,270.305v10.274L407.125,402.485z M283.857,133.807
		l-30.239-32.191v32.158L283.857,133.807z"/>
	<path fill="#275E79" d="M132.105,327.568l114.912,12.454c5.104,0.553,10.242,0.813,15.348,1.562
		c6.503,1.007,11.022,4.519,9.754,11.672c-1.072,6.504-5.95,8.941-12.127,8.26c-43.409-4.747-86.786-9.755-130.064-14.405
		c-6.699-0.748-12.485-2.504-11.868-10.665C118.646,327.666,125.181,327.048,132.105,327.568z"/>
	<path fill="#275E79" d="M195.772,167.461c21.2,0,42.271,0,63.601,0c6.959,0,12.389,1.853,13.007,9.754
		c0.616,7.901-5.432,10.211-12.064,10.438c-43.353,1.582-86.708,3.111-130.063,4.584c-6.502,0.228-11.836-1.789-11.997-9.235
		c-0.195-7.965,5.201-10.144,12.226-10.144c21.852,0,43.701,0,65.553,0L195.772,167.461z"/>
	<path fill="#275E79" d="M195.22,269.496h-64.545c-6.697,0-12.68-1.365-12.648-9.756c0-8.778,6.179-10.014,13.365-9.755
		c42.4,1.52,84.8,2.992,127.201,4.423c7.284,0.262,14.341,1.69,13.56,10.991c-0.684,8.291-7.251,9.266-14.309,9.2
		c-20.874-0.194-41.75,0-62.624,0V269.496z"/>
	<path fill="#275E79" d="M133.927,288.843c43.214,3.25,85.485,6.503,127.788,9.462c6.502,0.455,10.665,3.024,10.566,9.754
		c0,7.381-4.909,10.015-11.64,9.56c-32.364-2.167-64.729-4.4-97.093-6.697c-11.217-0.781-22.403-1.951-33.621-2.603
		c-6.926-0.389-12.323-2.406-11.933-10.47c0.39-8.064,6.274-9.461,13.006-9.04C132.302,288.906,133.602,288.843,133.927,288.843z"/>
	<path fill="#275E79" d="M194.861,230.737c-21.525,0-43.051,0-64.576,0c-7.057,0.097-12.259-1.886-12.259-9.918
		c0-7.446,5.202-9.397,11.836-9.365c43.354,0,86.71,0,130.063,0c7.058,0,12.455,1.918,12.26,9.95
		c-0.195,8.031-5.983,9.463-12.812,9.398C237.914,230.671,216.388,230.737,194.861,230.737z"/>
</g>
</svg>
