<?xml version="1.0" encoding="utf-8"?>
<!-- Generator: Adobe Illustrator 16.0.0, SVG Export Plug-In . SVG Version: 6.00 Build 0)  -->
<!DOCTYPE svg PUBLIC "-//W3C//DTD SVG 1.1//EN" "http://www.w3.org/Graphics/SVG/1.1/DTD/svg11.dtd">
<svg version="1.1" id="Layer_1" xmlns="http://www.w3.org/2000/svg" xmlns:xlink="http://www.w3.org/1999/xlink" x="0px" y="0px"
	 width="500px" height="500px" viewBox="0 0 500 500" enable-background="new 0 0 500 500" xml:space="preserve">
<g>
	<path fill="#275E79" d="M397.532,366.389l3.595,8.588c3.594,7.8,7.188,15.49,10.351,23.433c3.849,7.929,0.54,17.476-7.389,21.324
		c-0.172,0.083-0.344,0.163-0.519,0.241c-6.901,3.593-14.377,6.181-21.563,9.488c-3.153,1.724-6.629,2.777-10.208,3.091
		c-6.771,0.384-13.029-3.614-15.526-9.92c-4.024-8.05-7.512-16.352-11.213-24.583c-0.899-2.048-1.619-4.134-2.66-6.793
		c-3.378,1.366-6.647,2.588-9.847,4.025c-4.529,2.049-8.878,4.493-13.515,6.289c-8.381,3.67-18.151-0.151-21.822-8.533
		c-0.035-0.079-0.067-0.157-0.102-0.235c-1.429-2.955-2.132-6.208-2.048-9.488c0.18-5.5,0-10.997,0-16.856H106.738
		c-13.729,0-27.495,0-41.225,0c-4.542-0.198-8.897-1.877-12.398-4.781c-5.808-4.57-10.021-10.859-12.04-17.97
		c-1.183-3.233-1.873-6.625-2.049-10.063c-0.431-21.563-0.79-43.127-0.826-64.691c0-56.786,0-113.573,0-170.358
		c-0.461-6.313,0.754-12.636,3.521-18.329c1.896-4.225,4.197-8.257,6.865-12.04c3.984-5.317,10.146-8.562,16.784-8.843
		c124.33-0.215,248.66-0.442,372.989-0.682c11.641-0.58,22.332,6.398,26.487,17.288c1.835,4.205,3.596,8.482,4.96,12.758
		c0.196,1.191,0.196,2.405,0,3.593c0,49.096,0,98.214,0,147.356c0,30.586,0,61.099,0,91.793c-0.187,6.037-1.722,11.955-4.492,17.323
		c-1.907,4.524-4.82,8.557-8.517,11.788c-3.999,3.643-9.186,5.711-14.594,5.822c-13.728,0-27.493,0-41.222,0L397.532,366.389z
		 M342.04,252.493l-0.216,0.61c1.906,1.652,3.882,3.234,5.75,4.924l22.787,20.666l20.666,18.797
		c9.596,8.734,19.264,17.467,28.752,26.236c4.088,3,7.464,6.866,9.883,11.322c1.608,2.798,1.911,6.159,0.828,9.2
		c-0.936,2.121-1.51,4.385-2.409,6.938h13.046c4.224-0.171,7.979-2.74,9.67-6.613c2.852-5.033,4.27-10.751,4.096-16.532
		c0-76.938,0-153.862,0-230.774c0.079-5.109-1.028-10.166-3.234-14.772c-1.861-5.242-6.994-8.596-12.543-8.194
		c-4.133,0.251-8.303,0-12.436,0H136.784c-22.569,0-45.104,0-67.677,0c-4.739-0.07-9.099,2.586-11.212,6.828
		c-2.934,5.001-4.357,10.743-4.098,16.533c0,76.314,0,152.639,0,228.976c-0.031,4.078,0.429,8.145,1.367,12.112
		c0.883,2.9,2.283,5.614,4.133,8.015c2.54,3.314,6.63,5.06,10.781,4.6c26.201,0,52.365,0,78.564,0h146.423v-97.649
		c-3.741-0.137-7.452-0.692-11.07-1.653c-5.815-1.75-11.022-5.099-15.023-9.668c-4.206-5.634-6.701-12.358-7.188-19.373
		c-0.035-3.271,0.193-6.54,0.682-9.776c0.571-5.444,2.648-10.623,6.004-14.95c5.02-6.82,12.791-11.081,21.24-11.645
		c5.876-0.93,11.896-0.221,17.396,2.048c4.527,1.558,8.482,4.437,11.356,8.267c2.281,3.191,4.197,6.626,5.715,10.243
		c1.882,5.009,2.45,10.415,1.653,15.706c-0.574,3.846-1.51,7.621-2.156,11.43c-0.258,0.981-0.088,2.026,0.467,2.876
		c3.379,3.27,6.937,6.396,10.495,9.488c0.98,0.641,2.029,1.171,3.127,1.581c0-3.233,0-5.714,0-8.229c0-26.356,0-52.713,0-79.068
		c0-2.05,0.431-2.985,2.732-2.84c3.27,0.18,6.576,0,9.846,0c3.271,0,3.595,0.431,3.595,3.593c0,13.729,0,27.459,0,41.189
		c0,2.982,0,5.965,0,8.806c2.599,1.031,5.566,0.156,7.188-2.121c1.689-2.265,3.595-4.456,5.248-6.649
		c3.594-4.313,6.863-8.697,10.494-12.902c0.972-1.176,2.339-1.955,3.846-2.193c4.959-0.251,9.954,0,15.31,0
		c-0.241,0.615-0.541,1.205-0.899,1.762l-10.349,12.328c-2.876,3.594-5.679,6.901-8.591,10.315
		c-1.222,1.437-3.594,2.947-3.594,4.205c0,1.257,2.444,3.091,3.594,4.744c2.946,4.313,5.679,8.806,8.662,13.118
		c3.413,4.924,7.188,9.704,10.459,14.628c0.657,1.146,1.21,2.348,1.653,3.593c-4.421,0-8.303-0.215-12.15,0
		c-2.87,0.201-5.624-1.177-7.187-3.593c-1.798-2.336-3.379-4.852-5.031-7.188c-3.81-5.93-7.764-11.861-11.788-17.755
		c-1.476-2.121-3.99-1.15-6.004-1.007c-0.429,0-1.006,2.085-1.006,3.236c0,7.008,0,13.979,0,20.989c0,1.617,0,3.235-0.287,5.138
		L342.04,252.493z M349.552,371.384c0.484,0.583,0.919,1.208,1.294,1.868c2.084,4.504,4.146,9.021,6.182,13.549
		c3.042,6.924,6.086,13.766,9.129,20.522c1.187,2.695,2.085,5.499,3.343,8.159c0.499,0.847,1.362,1.417,2.336,1.544
		c1.259-0.09,2.481-0.445,3.593-1.042c6.927-3.042,13.826-6.121,20.703-9.236c1.545-0.683,2.336-1.581,1.222-3.594
		c-1.401-2.48-2.372-5.248-3.594-7.907c-3.02-6.864-6.074-13.729-9.058-20.593c-1.917-4.361-3.799-8.733-5.642-13.118
		c-0.684-1.618-1.116-3.127,1.364-3.594c1.244-0.46,2.446-1.026,3.595-1.689c8.95-4.062,17.97-8.231,26.92-12.076
		c5.499-2.337,5.75-3.091,1.401-7.188c-7.584-6.865-15.167-13.73-22.714-20.595l-21.745-19.66l-20.056-18.221L321.23,254.29
		c-2.085-1.906-4.24-3.594-6.433-5.535c-0.994-1-2.61-1.004-3.609-0.01c-0.321,0.321-0.552,0.721-0.668,1.159
		c-0.106,0.775-0.106,1.562,0,2.336c0,36.731,0,73.463,0,110.193c0,7.188,0,14.7,0,22.031c0,2.805,1.689,3.595,4.205,2.336
		c1.653-0.862,3.378-1.617,5.103-2.409c5.248-2.372,10.495-4.779,15.779-7.187C340.027,375.517,344.736,373.541,349.552,371.384z
		 M309.693,220.182h-0.287c0-1.294,0-2.588,0-3.881c-0.72-7.69-2.336-14.879-11.178-17.215c-4.678-1.448-9.77-0.508-13.621,2.515
		c-4.924,3.918-5.821,9.776-6.648,15.49c-0.58,4.795,0.076,9.657,1.903,14.125c1.978,5.175,4.925,9.2,11.142,9.416
		c0.676,0.059,1.34,0.204,1.979,0.432c2.335,0.373,4.698-0.482,6.253-2.264c1.345-1.807,2.984-3.374,4.851-4.636
		c2.266-1.402,4.458-2.588,4.744-5.642C309.119,225.465,309.371,222.95,309.693,220.182z"/>
	<path fill="#275E79" d="M113.28,252.384V161.06h4.455c10.784,0,21.781-0.323,32.635,0.216c7.756-0.028,15.289,2.596,21.35,7.439
		c2.96,2.277,4.919,5.614,5.461,9.309c0.288,2.875,0.863,5.714,0.936,8.553c0.263,4.176-1.424,8.237-4.565,10.999
		c-3.234,2.803-6.685,5.355-9.703,7.763c2.121,0.934,5.067,2.084,7.872,3.594c6.565,3.799,10.218,11.162,9.272,18.69
		c-1.043,6.54-2.983,12.901-8.771,16.927c-3.353,2.456-7.061,4.384-10.998,5.714c-10.494,3.2-21.564,2.014-32.346,2.157
		C123.846,252.458,118.671,252.384,113.28,252.384z M130.388,225.861c0,3.809,0,7.583,0,11.393c0,1.582,0.504,2.121,2.084,2.084
		c3.091,0,6.218,0,9.308,0c4.087-0.062,8.159-0.446,12.184-1.149c2.562-0.554,4.924-1.796,6.83-3.595
		c2.525-2.902,3.666-6.758,3.127-10.566c0.034-5.725-4.264-10.552-9.957-11.177c-7.188-0.504-14.375-0.36-21.563-0.504
		c-1.581,0-2.085,0.683-2.048,2.229c0.071,3.845,0,7.583,0,11.286H130.388z M130.388,201.026c7.547-0.504,14.628-0.935,21.563-1.545
		c1.301-0.215,2.531-0.732,3.595-1.51c4.939-3.666,6.883-10.141,4.781-15.922c-0.562-1.359-1.299-2.641-2.192-3.809
		c-2.768-3.593-7.189-3.342-10.784-3.881c-5.165-0.422-10.357-0.422-15.525,0c-0.719,0.182-1.292,0.727-1.51,1.438
		c0,8.087,0.037,16.245,0.037,25.23H130.388z"/>
	<path fill="#275E79" d="M254.095,219.463c-0.431,10.208-3.056,19.301-10.781,26.13c-4.252,4.171-9.9,6.617-15.851,6.865
		c-2.697,0-5.429,1.041-8.052,0.826c-7.961-0.165-15.551-3.413-21.169-9.057c-3.26-3.583-5.712-7.824-7.188-12.436
		c-1.789-5.464-2.367-11.254-1.688-16.964c0.566-8.093,4.346-15.623,10.494-20.917c3.829-3.486,8.633-5.718,13.765-6.398
		c3.859-0.537,7.749-0.837,11.646-0.898c11.629,0.661,21.796,8.071,25.985,18.94C252.457,210.135,253.404,214.779,254.095,219.463z
		 M237.094,220.434c0-2.013,0-3.594,0-5.463c-0.094-1.781-0.458-3.538-1.079-5.211c-0.884-2.672-2.273-5.15-4.097-7.296
		c-4.682-4.312-11.563-5.231-17.215-2.3c-6.434,2.875-8.194,8.949-8.949,15.023c-0.888,5.59-0.293,11.316,1.726,16.604
		c1.029,3.259,3.285,5.99,6.29,7.62c3.676,1.942,7.953,2.417,11.968,1.329c3.569-0.829,6.622-3.126,8.409-6.326
		C236.562,230.175,237.592,225.288,237.094,220.434z"/>
</g>
</svg>
