<?xml version="1.0" encoding="utf-8"?>
<!-- Generator: Adobe Illustrator 16.0.0, SVG Export Plug-In . SVG Version: 6.00 Build 0)  -->
<!DOCTYPE svg PUBLIC "-//W3C//DTD SVG 1.1//EN" "http://www.w3.org/Graphics/SVG/1.1/DTD/svg11.dtd">
<svg version="1.1" id="Layer_1" xmlns="http://www.w3.org/2000/svg" xmlns:xlink="http://www.w3.org/1999/xlink" x="0px" y="0px"
	 width="500px" height="500px" viewBox="0 0 500 500" enable-background="new 0 0 500 500" xml:space="preserve">
<g>
	<path fill="#275E79" d="M30.285,340.565c-9.719-2.04-14.764-14.622-10.344-23.832c1.146-2.44,1.754-5.098,1.786-7.793
		c0-47.23-0.066-94.364-0.197-141.407c0-1.955,0-3.91,0-6.177h314.832v138.488H38.191v6.801h302.903v35.024h-4.647
		c-50.479,0-100.958,0-151.438,0c-2.835,0.278-5.492-1.42-6.432-4.108c-7.283-13.971-18.987-21.565-34.856-21.479
		c-15.869,0.084-27.317,7.82-34.855,21.678c-1.051,1.435-2.29,2.722-3.684,3.825c-1.236-1.115-2.34-2.37-3.287-3.74
		c-7.255-13.573-18.42-21.311-34.006-21.735c-15.585-0.425-27.459,6.971-35.366,20.658c-0.679,1.19-1.274,2.409-1.927,3.6
		C30.597,340.452,30.398,340.48,30.285,340.565z M68.286,289.558v-118.34H46.127v118.34H68.286z M151.996,171.077v118.396h22.218
		V171.077H151.996z M185.548,289.301h22.388V171.077h-22.388V289.301z M278.667,289.473v-118.34h-21.99v118.34H278.667z
		 M291.731,171.048v118.34h22.159v-118.34H291.731z M81.38,171.048v118.396h21.79v-118.34L81.38,171.048z M116.943,289.388h21.961
		V171.161h-21.961V289.388z M243.047,289.388V171.161h-21.99v118.283L243.047,289.388z"/>
	<path fill="#275E79" d="M485.93,274.057l-5.072,0.538v30.406l4.647,0.482c0,9.578,0.284,19.269-0.283,28.877
		c0,1.614-3.684,4.221-5.668,4.362c-8.501,0.512-17.314,0.313-25.985,0c-1.531-0.219-2.888-1.099-3.713-2.407
		c-10.22-18.938-33.858-26.004-52.796-15.782c-6.687,3.609-12.172,9.096-15.781,15.782c-0.885,1.276-2.281,2.104-3.825,2.266
		c-5.158,0.255-10.344,0-15.501,0c-2.768,0.439-5.365-1.449-5.805-4.216c-0.038-0.245-0.06-0.494-0.062-0.743
		c-0.691-5.104-1.127-10.239-1.304-15.388c-0.095-46.19-0.095-92.391,0-138.601c0-8.812,0.766-9.578,9.635-9.578h88.896
		c1.218,0,2.438,0,3.655,0c8.501,0.341,9.636,1.247,11.505,9.55c5.498,24.229,11.336,48.402,16.323,72.744
		C486.129,259.633,485.563,266.886,485.93,274.057z M452.548,185.926h-79.771v58.716h88.782L452.548,185.926z M465.328,312.341
		h-24.002c-0.693,0.038-1.384,0.114-2.068,0.227c3.599,4.081,7.028,8.021,10.541,11.874c0.588,0.656,1.394,1.079,2.269,1.189
		c4.334,0,8.698,0,13.261,0V312.341z M376.404,254.361l1.161,1.615h19.385l0.821-1.559c-1.134-0.821-2.211-2.295-3.373-2.352
		c-4.833-0.266-9.676-0.266-14.508,0C378.671,252.038,377.565,253.568,376.404,254.361z"/>
	<path fill="#275E79" d="M142.702,380.04c-15.988,0.002-29.013-12.834-29.245-28.819c-0.561-16.079,12.021-29.568,28.099-30.128
		c16.079-0.562,29.568,12.02,30.13,28.098c0.02,0.601,0.021,1.201,0.006,1.803C171.645,366.994,158.702,379.962,142.702,380.04z
		 M142.702,371c10.966-0.03,19.869-8.87,19.979-19.836c0.141-11.096-8.74-20.205-19.836-20.346s-20.204,8.74-20.345,19.836
		s8.739,20.204,19.836,20.345C142.458,371,142.579,371.001,142.702,371z"/>
	<path fill="#275E79" d="M414.263,380.04c-15.963,0.063-28.954-12.828-29.018-28.791c0-0.01,0-0.02,0-0.028
		c-0.031-16.134,12.999-29.251,29.131-29.33c16.018,0.32,28.883,13.311,29.048,29.33
		C443.146,367.153,430.199,379.949,414.263,380.04z M394.257,350.853c-0.203,10.952,8.511,19.998,19.465,20.201
		c0.058,0.001,0.115,0.002,0.173,0.003c11.128,0.157,20.274-8.735,20.431-19.862c0.001-0.048,0.001-0.096,0.002-0.145
		c-0.195-10.981-9.027-19.85-20.007-20.092C403.337,331.034,394.427,339.87,394.257,350.853L394.257,350.853z"/>
	<path fill="#275E79" d="M65.566,380.04c-15.931,0.001-28.858-12.889-28.905-28.819c-0.048-16.015,12.78-29.095,28.792-29.359
		c16.152,0.169,29.215,13.206,29.414,29.359C94.619,367.222,81.569,380.057,65.566,380.04z M45.729,351.05
		c0,10.956,8.881,19.837,19.837,19.837c11.034,0.048,20.05-8.802,20.204-19.837c-0.061-11.161-9.043-20.22-20.204-20.374
		c-11.093,0.187-19.959,9.281-19.865,20.374H45.729z"/>
</g>
</svg>
