<?xml version="1.0" encoding="utf-8"?>
<!-- Generator: Adobe Illustrator 16.0.0, SVG Export Plug-In . SVG Version: 6.00 Build 0)  -->
<!DOCTYPE svg PUBLIC "-//W3C//DTD SVG 1.1//EN" "http://www.w3.org/Graphics/SVG/1.1/DTD/svg11.dtd">
<svg version="1.1" id="Layer_1" xmlns="http://www.w3.org/2000/svg" xmlns:xlink="http://www.w3.org/1999/xlink" x="0px" y="0px"
	 width="500px" height="500px" viewBox="0 0 500 500" enable-background="new 0 0 500 500" xml:space="preserve">
<g>
	<path fill="#275E79" d="M307.976,396.246c-11.515,12.114-20.917,22.044-30.354,31.903c-6.375,6.657-12.854,6.797-19.263,0
		l-31.27-32.573c-9.402,10.565-17.607,20.53-26.27,29.686c-10.847,11.269-14.085,11.127-25.354-0.318
		c-8.664-8.802-16.904-17.994-27.926-29.79c-10.141,11.409-18.206,21.41-27.361,30.248c-3.521,3.522-10.564,7.043-14.438,5.6
		c-3.873-1.444-6.62-8.875-6.655-13.698c-0.376-98.6-0.446-197.201-0.212-295.801c-0.447-29.441,23.058-53.671,52.499-54.119
		c0.319-0.004,0.638-0.006,0.957-0.005c75.406,0,150.823,0.059,226.252,0.176c24.051,0,47.75,26.165,48.455,52.822
		c0.386,14.508-0.247,29.016,0.21,43.489c0.354,10.776-4.718,15.073-14.895,15.002c-17.608,0-35.531,0-55.004,0v14.086
		c0,73.34,0,146.679,0,220.019c0,7.324,1.795,17.114-7.606,18.487c-5.212,0.775-12.324-4.542-17.044-8.804
		C324.386,415.122,317.307,406.388,307.976,396.246z M267.55,408.254c11.057-11.55,20.6-21.129,29.896-31.235
		c6.445-7.043,12.572-7.043,19.087-0.212c5.493,5.635,11.127,11.022,18.769,18.417c0-61.941-0.74-120.361,0.246-178.748
		c0.704-42.258-5-84.867,6.163-127.335c-4.367-0.177-8.452-0.634-12.501-0.634c-56.342-0.305-112.686-0.575-169.029-0.81
		c-29.087-0.035-41.553,12.466-41.553,41.658c0,84.115,0,168.221,0,252.312v15.707c8.028-8.346,13.558-13.735,18.699-19.475
		c7.536-8.45,14.508-7.817,21.903,0.318c8.874,9.753,18.1,19.157,28.418,30.038c10.282-10.564,19.051-19.966,28.171-28.982
		c10.564-10.563,13.664-10.563,24.403,0.318C248.815,388.394,257.231,397.514,267.55,408.254z M405.132,156.578
		c0-14.967,0.916-28.666-0.246-42.258c-1.163-13.593-15.565-26.165-26.412-25.813c-9.438,0-19.543,11.057-20.6,24.65
		c-1.092,14.085-0.246,28.665-0.246,43.455L405.132,156.578z"/>
	<path fill="#275E79" d="M227.159,151.893c21.974,0,43.947,0,65.885,0c7.255,0,14.086,0.915,14.403,9.685
		c0.528,9.578-6.515,11.515-14.085,11.515c-44.347,0-88.693,0-133.04,0c-7.536,0-14.825-1.304-14.333-11.199
		c0.494-9.896,7.782-10.001,15.249-10.001C183.281,152.104,205.186,151.893,227.159,151.893z"/>
	<path fill="#275E79" d="M226.701,311.274c21.974,0,43.947,0,65.885,0c7.676,0,14.825,0.81,14.861,10.565
		c0,8.768-6.621,10.563-13.769,10.563c-44.769,0-89.537,0-134.307,0c-7.043,0-13.733-1.725-13.558-10.775
		c0.176-9.05,6.233-10.565,13.7-10.565C181.944,311.38,204.411,311.274,226.701,311.274z"/>
	<path fill="#275E79" d="M217.334,278.666c-19.05,0-38.103,0-57.118,0c-7.888,0-14.543-1.655-14.333-11.199
		c0.211-8.662,6.62-10.563,13.911-10.563h115.501c7.853,0,14.791,2.219,14.473,11.339c-0.316,9.12-7.536,10.564-15.283,10.564
		C255.4,278.666,236.385,278.666,217.334,278.666z"/>
	<path fill="#275E79" d="M194.868,226.16h-34.721c-7.712,0-14.545-1.761-14.263-11.305c0.247-8.626,6.444-10.563,13.839-10.563
		c23.947,0,47.905,0,71.874,0c7.395,0,13.556,1.831,13.732,10.563c0.177,8.733-5.986,10.987-13.311,11.234
		C219.623,226.266,207.263,226.124,194.868,226.16z"/>
</g>
</svg>
