<?xml version="1.0" encoding="utf-8"?>
<!-- Generator: Adobe Illustrator 16.0.0, SVG Export Plug-In . SVG Version: 6.00 Build 0)  -->
<!DOCTYPE svg PUBLIC "-//W3C//DTD SVG 1.1//EN" "http://www.w3.org/Graphics/SVG/1.1/DTD/svg11.dtd">
<svg version="1.1" id="Layer_1" xmlns="http://www.w3.org/2000/svg" xmlns:xlink="http://www.w3.org/1999/xlink" x="0px" y="0px"
	 width="500px" height="500px" viewBox="0 0 500 500" enable-background="new 0 0 500 500" xml:space="preserve">
<g>
	<path fill="#275E79" d="M126.304,258.959c0-1.891,0-3.228,0-4.565c0-52.345,0.204-104.46-0.146-156.688
		c-0.339-11.945,9.068-21.902,21.013-22.243c0.354-0.009,0.707-0.012,1.061-0.003c51.008,0.348,102.015,0.175,153.023,0
		c3.459-0.156,6.796,1.291,9.043,3.926c20.512,22.586,41.063,45.045,61.652,67.381c1.928,1.896,2.981,4.508,2.908,7.212
		c0,33.384,0,66.77,0,100.154c0,1.453,0,2.907,0,4.827h16.372c5.351,0,7.299,1.948,7.299,7.356c0,26.348-0.146,52.725,0,79.072
		c0.169,3.483-1.511,6.799-4.42,8.725c-5.816,4.1-11.342,8.286-16.809,12.678c-1.291,1.151-2.083,2.756-2.21,4.479
		c-0.204,8.986,0,17.972,0,26.986c0.26,10.983-8.433,20.098-19.416,20.357c-0.313,0.007-0.628,0.007-0.941,0h-208.51
		c-10.985,0.031-19.917-8.848-19.949-19.834c0-0.038,0-0.076,0-0.116c0-9.101,0-18.233,0-27.335c-0.137-1.72-0.94-3.316-2.239-4.449
		c-5.613-4.422-11.4-8.725-17.188-12.767c-2.8-1.761-4.425-4.899-4.246-8.202c0-26.492,0-52.955,0-79.448
		c0-5.816,1.803-7.62,7.766-7.62L126.304,258.959z M362.616,258.668V158.397h-57.522c-5.38,0-7.271-1.92-7.271-7.358
		c0-19.834,0-39.667,0-59.5v-3.838H185.629v170.967H362.616z M386.375,270.854H114.7v70.637h271.674V270.854z M185.716,353.588
		v53.102c0.989,0,1.688,0,2.414,0h165.093c6.368,0,9.654-3.431,9.654-9.916c0-12.679,0-25.359,0-38.039c0-1.686,0-3.344,0-5.146
		H185.716z M173.503,87.41h-24.69c-7.649,0-10.672,3.054-10.672,10.761c0,52.19,0,104.391,0,156.601c0,1.299,0,2.607,0,3.926h35.362
		V87.41z M173.503,406.777v-52.956h-35.362c0,15.005,0,29.749,0,44.494c-0.146,4.493,3.381,8.256,7.876,8.4
		c0.069,0.001,0.139,0.003,0.208,0.003c8.986,0.262,17.943,0.059,27.162,0.059H173.503z M309.892,97.094V146.3h45.133
		L309.892,97.094z"/>
	<path fill="#275E79" d="M241.087,293.217l-7.619,29.778c-0.204,0.843-0.466,1.658-0.699,2.473
		c-0.474,2.833-2.944,4.896-5.816,4.856c-2.987,0.152-5.604-1.986-6.049-4.945c-1.542-5.815-2.908-11.399-4.449-17.099
		c-1.205-5.132-2.729-10.183-4.566-15.123c0,3.491,0,6.979,0,10.47c0,7.009,0,14.047,0,21.055c0,3.547-2.209,5.815-5.002,5.643
		c-3.256-0.351-4.565-2.473-4.565-5.643c0-13.57,0-27.142,0-40.713c-0.342-2.596,1.485-4.977,4.081-5.318
		c0.112-0.016,0.226-0.026,0.339-0.032c1.454-0.22,2.921-0.327,4.391-0.32c5.816,0,6.805,0.785,8.259,6.281
		c2.21,8.298,4.411,16.605,6.601,24.923c0.152,0.687,0.599,1.271,1.222,1.599l5.496-20.356c0.698-2.616,1.483-5.205,2.123-7.822
		c0.247-2.439,2.262-4.316,4.711-4.393c3.751-0.174,7.765-1.191,10.79,1.979c0.766,1.104,1.125,2.441,1.017,3.78
		c0,13.301,0,26.601,0,39.899c0,3.955-1.861,6.252-4.798,6.193c-2.937-0.057-4.769-2.412-4.798-6.31c0-9.103,0-18.233,0-27.337
		c0-1.182,0-2.365,0-3.548L241.087,293.217z"/>
	<path fill="#275E79" d="M304.512,330.701c-8.259-0.262-14.366-1.482-18.583-6.572c-1.849-2.391-3.059-5.213-3.519-8.2
		c0.126-1.904,1.226-3.608,2.908-4.508c1.425-0.438,3.606,1.019,5.147,2.093c0.873,0.611,1.105,2.125,1.628,3.229
		c2.977,5.692,10.006,7.896,15.699,4.917c0.862-0.452,1.666-1.009,2.39-1.66c2.579-2.273,2.828-6.204,0.556-8.784
		c-0.803-0.912-1.856-1.568-3.028-1.89c-3.286-1.308-6.834-1.977-10.236-2.907c-2.481-0.696-4.903-1.591-7.241-2.677
		c-6.435-3.11-9.129-10.848-6.019-17.282c1.021-2.114,2.6-3.91,4.564-5.196c7.241-5.147,20.299-5.147,27.016,0.351
		c2.105,1.84,3.715,4.179,4.682,6.804c1.024,2.34-0.044,5.066-2.383,6.089c-0.172,0.075-0.346,0.139-0.524,0.192
		c-2.134,0.849-4.552-0.194-5.401-2.328c-0.075-0.188-0.136-0.382-0.183-0.579c-2.908-7.126-8.579-7.591-13.58-6.224
		c-2.56,0.698-4.857,1.978-5.031,5.146c-0.176,3.17,1.86,4.479,4.303,5.264c4.886,1.6,9.946,2.908,14.803,4.45
		c4.536,1.067,8.23,4.347,9.829,8.724c2.499,7.597-1.191,15.848-8.52,19.048C310.772,329.293,307.668,330.131,304.512,330.701z"/>
	<path fill="#275E79" d="M272.668,304.413c0,6.514,0,13.028,0,19.542c0,4.014-1.949,6.34-5.089,6.398
		c-3.141,0.058-5.206-2.326-5.206-6.252c0-13.397,0-26.804,0-40.221c0-3.954,2.094-6.281,5.235-6.194
		c3.14,0.088,5.031,2.415,5.06,6.427C272.697,290.89,272.668,297.666,272.668,304.413z"/>
	<path fill="#275E79" d="M186.095,319.739c2.93,0.093,5.251,2.506,5.234,5.438c0.049,2.857-2.227,5.216-5.086,5.265
		c-0.088,0.002-0.177,0.001-0.265-0.002c-2.782-0.141-4.939-2.479-4.857-5.263C181.022,322.313,183.233,319.895,186.095,319.739z"/>
</g>
</svg>
