<svg id="Layer_1" data-name="Layer 1" xmlns="http://www.w3.org/2000/svg" viewBox="0 0 114.07 105.58"><defs><style>.cls-1{fill:#265f79;}</style></defs><title>icon</title><path class="cls-1" d="M113.83,105.58H66.38C65,99.31,67.17,95.23,73,93.29c2.36-.79,4.76-1.45,7.12-2.24,4.5-1.51,5.56-5.42,2.58-9.06-4.56-5.56-6-12.08-5.15-19,.81-6.3,6.79-10.77,13.29-10.44a12.58,12.58,0,0,1,11.95,12.32c.1,6.42-1.35,12.47-5.73,17.52a5.19,5.19,0,0,0,2.3,8.55c2.46.87,5,1.53,7.46,2.35C112.69,95.22,114.85,98.91,113.83,105.58Z"/><path class="cls-1" d="M.12,105.51c-.67-7.35,1.33-10.35,8-12.5,2-.65,4.07-1.29,6.08-2,4.48-1.52,5.46-5.39,2.52-9.1a23.59,23.59,0,0,1-5-19.7C13,56,18.79,52,25.23,52.52A12.63,12.63,0,0,1,36.7,63.81c.5,6.85-1,13.2-5.58,18.58a5.24,5.24,0,0,0,2,8.4c2.44.92,5,1.56,7.46,2.35,6.23,2,8.34,5.52,7.27,12.37Z"/><path class="cls-1" d="M76.54,30.11l2.52,6.84c-.22,0-.47.08-.6,0a30.81,30.81,0,0,0-16.52-6.09c-3.81-.27-7.94-2.56-11-5-6.73-5.38-6.52-14.34-.14-20.15C59.1-2,74.57-1.87,82.8,5.86c6.14,5.76,6.08,14.42-.25,20A68.42,68.42,0,0,1,76.54,30.11Z"/><path class="cls-1" d="M37.66,40.89c-7-3.69-12-8.3-10.66-16.62C28,18,34.35,13,42.36,11.64c-1.05,15.58,8.77,21.27,22.3,23.8A19.62,19.62,0,0,1,50,42.27a17.08,17.08,0,0,0-11.35,3.86,32.23,32.23,0,0,1-3.75,2.25Z"/></svg>