<svg id="Layer_1" data-name="Layer 1" xmlns="http://www.w3.org/2000/svg" viewBox="0 0 101.69 118"><defs><style>.cls-1{fill:#265f79;}</style></defs><title>icon</title><path class="cls-1" d="M8.15,63.1c0-.65,0-1.11,0-1.57,0-18,.07-35.92-.05-53.88A7.44,7.44,0,0,1,15.69,0C33.23.12,50.77.06,68.31,0a3.86,3.86,0,0,1,3.11,1.35Q82,13,92.62,24.52a3.35,3.35,0,0,1,1,2.48q0,17.22,0,34.44c0,.5,0,1,0,1.66h5.63c1.84,0,2.51.67,2.51,2.53,0,9.06-.05,18.13,0,27.19a3.4,3.4,0,0,1-1.52,3c-2,1.41-3.9,2.85-5.78,4.36a2.29,2.29,0,0,0-.76,1.54c-.07,3.09,0,6.18,0,9.28a6.84,6.84,0,0,1-7,7H15a6.84,6.84,0,0,1-6.86-6.86c0-3.13,0-6.27,0-9.4a2.27,2.27,0,0,0-.77-1.53c-1.93-1.52-3.92-3-5.91-4.39A3.13,3.13,0,0,1,0,93c0-9.11,0-18.21,0-27.32,0-2,.62-2.62,2.67-2.62ZM89.41,63V28.52H69.63c-1.85,0-2.5-.66-2.5-2.53q0-10.23,0-20.46V4.21H28.55V63Zm8.17,4.19H4.16V91.48H97.58Zm-69,28.45V113.9c.34,0,.58,0,.83,0H86.18c2.19,0,3.32-1.18,3.32-3.41q0-6.54,0-13.08c0-.58,0-1.15,0-1.77ZM24.38,4.11H15.89c-2.63,0-3.67,1.05-3.67,3.7q0,26.92,0,53.85,0,.67,0,1.35H24.38Zm0,109.82V95.72H12.22c0,5.16,0,10.23,0,15.3A2.8,2.8,0,0,0,15,113.91C18.09,114,21.17,113.93,24.34,113.93ZM71.28,7.44V24.36H86.8Z"/><path class="cls-1" d="M47.62,74.88,45,85.12c-.07.29-.16.57-.24.85a2,2,0,0,1-2,1.67,2,2,0,0,1-2.08-1.7c-.53-2-1-3.92-1.53-5.88a43.34,43.34,0,0,0-1.57-5.2q0,1.8,0,3.6c0,2.41,0,4.83,0,7.24,0,1.22-.76,2-1.72,1.94-1.12-.12-1.57-.85-1.57-1.94q0-7,0-14a1.63,1.63,0,0,1,1.52-1.84,9.82,9.82,0,0,1,1.51-.11c2,0,2.34.27,2.84,2.16q1.14,4.28,2.27,8.57a.82.82,0,0,0,.42.55l1.89-7c.24-.9.51-1.79.73-2.69a1.68,1.68,0,0,1,1.62-1.51c1.29-.06,2.67-.41,3.71.68a2,2,0,0,1,.35,1.3q0,6.86,0,13.72c0,1.36-.64,2.15-1.65,2.13s-1.64-.83-1.65-2.17c0-3.13,0-6.27,0-9.4q0-.61,0-1.22Z"/><path class="cls-1" d="M69.43,87.77c-2.84-.09-4.94-.51-6.39-2.26a6.14,6.14,0,0,1-1.21-2.82,1.9,1.9,0,0,1,1-1.55c.49-.15,1.24.35,1.77.72.3.21.38.73.56,1.11a4,4,0,0,0,6.22,1.12,2.14,2.14,0,0,0-.85-3.67c-1.13-.45-2.35-.68-3.52-1a16.5,16.5,0,0,1-2.49-.92,4.45,4.45,0,0,1-.5-7.73C66.51,69,71,69,73.31,70.89a5.75,5.75,0,0,1,1.61,2.34,1.59,1.59,0,0,1-1,2.16,1.43,1.43,0,0,1-1.92-1c-1-2.45-2.95-2.61-4.67-2.14-.88.24-1.67.68-1.73,1.77s.64,1.54,1.48,1.81c1.68.55,3.42,1,5.09,1.53a4.76,4.76,0,0,1,3.38,3,5.33,5.33,0,0,1-2.93,6.55A19.6,19.6,0,0,1,69.43,87.77Z"/><path class="cls-1" d="M58.48,78.73c0,2.24,0,4.48,0,6.72,0,1.38-.67,2.18-1.75,2.2s-1.79-.8-1.79-2.15q0-6.91,0-13.83c0-1.36.72-2.16,1.8-2.13s1.73.83,1.74,2.21C58.49,74.08,58.48,76.41,58.48,78.73Z"/><path class="cls-1" d="M28.71,84a1.86,1.86,0,0,1,1.8,1.87,1.78,1.78,0,0,1-1.84,1.81A1.76,1.76,0,0,1,27,85.87,1.81,1.81,0,0,1,28.71,84Z"/></svg>