<svg id="Layer_1" data-name="Layer 1" xmlns="http://www.w3.org/2000/svg" viewBox="0 0 121.69 121.66"><defs><style>.cls-1{fill:#265f79;}</style></defs><title>icon</title><path class="cls-1" d="M77,87.61c-22.6,16.53-52.88,9.85-67.72-10.54A48.5,48.5,0,0,1,79,10.84,48.69,48.69,0,0,1,87.55,77c1.19,1,2.39,2,3.6,3,8.92,7.45,17.88,14.86,26.75,22.38a10.25,10.25,0,0,1,3.25,11.41,10.38,10.38,0,0,1-8.89,7.72c-4.32.67-7.77-.93-10.56-4.31-7.87-9.53-15.82-19-23.73-28.5C77.67,88.35,77.35,88,77,87.61ZM87.53,48.39c-.12-22.05-17.64-39.22-39.9-39.1-21.17.11-38.51,18-38.38,39.6a39.14,39.14,0,0,0,78.28-.49Z"/><path class="cls-1" d="M47.82,50.32,37.31,39.24l-6.92,6c-1.76,1.52-3.51,3.07-5.3,4.57a2.3,2.3,0,0,1-3.25-.12,2.26,2.26,0,0,1,.27-3.31q7.61-6.62,15.25-13.2a1.93,1.93,0,0,1,.31-.16l10.6,11.16,9-7.06q5.05-3.95,10.1-7.9a2.46,2.46,0,0,1,2.79-.51,2.27,2.27,0,0,1,.24,3.95c-2.09,1.68-4.22,3.31-6.33,5Z"/><path class="cls-1" d="M72.53,55c0,3.69,0,7.39,0,11.08a3.2,3.2,0,0,1-2.71,3.17,3.25,3.25,0,0,1-3.67-2,4.27,4.27,0,0,1-.25-1.48q0-10.79,0-21.58a3.33,3.33,0,1,1,6.64.09c0,3.58,0,7.15,0,10.73Z"/><path class="cls-1" d="M40.79,58.92c0,2.29,0,4.59,0,6.88a3.32,3.32,0,1,1-6.64.08q-.05-7,0-14a3.33,3.33,0,1,1,6.64,0c0,2.33,0,4.66,0,7Z"/><path class="cls-1" d="M55.26,59.09c0-2.18,0-4.35,0-6.53s1.35-3.65,3.36-3.65S62,50.34,62,52.55q0,6.53,0,13.05c0,2.21-1.35,3.66-3.35,3.66s-3.35-1.45-3.37-3.65S55.26,61.26,55.26,59.09Z"/><path class="cls-1" d="M51.42,62.29c0,1.16,0,2.33,0,3.49a3.35,3.35,0,1,1-6.69-.1c0-2.33,0-4.66,0-7a3.35,3.35,0,1,1,6.69,0c0,1.2,0,2.41,0,3.61Z"/><path class="cls-1" d="M30.24,62.59c0,1.13,0,2.25,0,3.38A3.28,3.28,0,0,1,27,69.26a3.22,3.22,0,0,1-3.43-3.08c-.11-2.4-.1-4.82,0-7.22A3.23,3.23,0,0,1,27,55.9a3.28,3.28,0,0,1,3.22,3.31C30.27,60.34,30.24,61.47,30.24,62.59Z"/></svg>