<svg id="Layer_1" data-name="Layer 1" xmlns="http://www.w3.org/2000/svg" viewBox="0 0 133.43 117.74"><defs><style>.cls-1{fill:#265f79;}</style></defs><title>icon</title><path class="cls-1" d="M107.7,99.27h4a61.46,61.46,0,0,1-.05,7.82c-.84,6.46-5.91,10.63-12.83,10.63q-43.07.05-86.15,0c-.33,0-.66,0-1,0C4.16,117.34-.79,111.4.1,103.41H20.25c0-1.65,0-2.93,0-4.2q0-42.58,0-85.16C20.25,4.87,25,0,34.1,0q42.42,0,84.84,0c8.61,0,13.82,5.56,13.07,14.22H111.93V43.87l-4.46.27c1.22-13.31-1.86-26.58,2.12-39.87-.71,0-1.84-.14-3-.14H34.56C27.3,4.13,24.42,7,24.42,14.21q0,42.42,0,84.84c0,1.29,0,2.59,0,4.23H90.65c2.4,8.26,4.66,10.9,9.39,10.26C108.7,112.36,107.58,105.41,107.7,99.27ZM4.52,107.57c1.4,4.26,3.78,6,8.13,6q37.47,0,74.93,0c.61,0,1.22-.09,1.89-.14-2.34-5.92-2.34-5.92-8.09-5.92H4.52ZM127.44,10c-1.18-3.89-3.92-5.93-7.67-5.86A7.25,7.25,0,0,0,112.51,10Z"/><path class="cls-1" d="M109.61,47.9A23.68,23.68,0,1,1,86,71.74,23.69,23.69,0,0,1,109.61,47.9Zm0,3.24a20.43,20.43,0,1,0,20.59,20.22A20.48,20.48,0,0,0,109.59,51.14Z"/><path class="cls-1" d="M40.74,36.2l.7-2.88a27.35,27.35,0,0,0,5.45.89C48,34.17,49,33.14,50,32.55A11,11,0,0,0,47.92,30c-1.26-.81-2.85-1.09-4.16-1.84-4.11-2.37-4-7.26.11-9.74,1.26-.77,2.17-2.11,3.92-3.87l2.61,2.23-.39.4,4.21,1.17-.86,3.36a35.76,35.76,0,0,0-5.23-.51c-.77,0-1.51.92-2.26,1.41.47.66.81,1.55,1.45,1.93,1.49.87,3.2,1.36,4.7,2.22,4.33,2.47,4.28,7.83-.1,10.22-1.32.72-2.82,1-2.71,3.09,0,.47-1.39,1-2.14,1.53l.21-1.29Z"/><path class="cls-1" d="M74.06,51.89v3.74H32.77V51.89Z"/><path class="cls-1" d="M74.07,69.79v3.65H32.77l-.19-3.65Z"/><path class="cls-1" d="M74,91.31H32.77l-.19-3.74H74Z"/><path class="cls-1" d="M76.49,24.72V20.94h24.72v3.79Z"/><path class="cls-1" d="M101.25,36.54v3.68H76.49l-.17-3.68Z"/><path class="cls-1" d="M92.79,71.55a16.93,16.93,0,1,1,33.86,0,16.93,16.93,0,1,1-33.86,0Zm28.42,4V68.42h-8.07V60.63H106v7.92H98.17v7.1h8v7.9h7.13V75.6Z"/></svg>