<svg id="Layer_1" data-name="Layer 1" xmlns="http://www.w3.org/2000/svg" viewBox="0 0 123.06 110"><defs><style>.cls-1{fill:#265f79;}</style></defs><title>icon</title><path class="cls-1" d="M66,0c4.61,1,9.38,1.66,13.82,3.22,15.75,5.54,26.73,16.26,33.12,31.68.3.71.49,1.47.8,2.39l-6.12,2.14c-12-25.52-31.48-37.12-59.48-30.3-19.52,4.76-31,21.75-33.33,35.59h7.06l-11,13.36L0,44.95H7.28A54.94,54.94,0,0,1,17.89,21.5C27.56,9.3,40.08,2.15,55.62.46a17.53,17.53,0,0,0,2-.46Z"/><path class="cls-1" d="M8.22,68.94l6.65-1.78C19.29,81.92,28.29,92.71,42.34,99a46.76,46.76,0,0,0,29,3C93,97.5,106,79.78,108.34,65.23h-7l10.92-13.3L123.06,65H115.9c-3.42,15.76-11.63,28-25.14,36.57a52.46,52.46,0,0,1-31.68,8.28C34.3,108.4,14.53,92.37,8.22,68.94Z"/><path class="cls-1" d="M73.45,34.59c.4-.56.79-1.63,1.54-2.06a8,8,0,0,1,3.79-1.19c2.23,0,7.75,5.6,7.54,7.78a8.6,8.6,0,0,1-2,4.23c-1,1.2-1.39,2-.81,3.63s1.69,1.42,2.87,1.45c3.24.08,4.94,1.74,5.07,5,0,1,0,1.91,0,2.87,0,5.37-1,6.32-6.43,6.89C84,63.27,83,64.66,81.77,65.6c1,1.13,1.69,1.8,2.31,2.5a4.56,4.56,0,0,1,0,6.53C83,75.85,81.75,77,80.55,78.12,78,80.53,75.88,80.5,73.32,78c-1-.94-1.68-2.15-3.45-1.27a2.55,2.55,0,0,0-1.81,2.65c0,3.84-1.48,5.26-5.35,5.38-1.39,0-2.78.06-4.17,0-3.5-.19-5-1.76-5-5.25,0-1.53,0-2.68-1.83-3.45s-2.32.45-3.2,1.27c-2.2,2-4.51,2.07-6.7.05-1.21-1.12-2.36-2.31-3.49-3.51-2.27-2.42-2.21-4.59.14-7,.92-1,2.18-1.64,1.29-3.46-.61-1.24-1.1-1.87-2.61-1.86-3.93,0-5.43-1.6-5.48-5.55,0-.87,0-1.74,0-2.61,0-4.82,1.33-6.29,6.09-6.31,1.54,0,2-.75,2.68-1.87.83-1.41-.09-2-.86-2.83-2.55-2.7-2.53-4.78,0-7.42.78-.81,1.58-1.62,2.38-2.41,3.31-3.24,5-3.29,8.31,0a2.44,2.44,0,0,0,3.14.69A2.27,2.27,0,0,0,55,30.75c0-4,1.49-5.43,5.52-5.5,1.48,0,3-.07,4.43,0,3.07.2,4.55,1.77,4.65,4.8S69.74,33.07,73.45,34.59Zm9,36.53c-4.17-2.35-4.8-5.3-2.31-9.24,1-1.59,1.74-2.49,3.7-2.45,4.5.08,4,.66,4.06-3.95,0-3.76,0-3.84-3.85-3.75-1.82,0-2.57-.62-3.41-2.28-1.94-3.83-1.54-6.79,2.07-9.21a.91.91,0,0,0,.27-.45l-5-5.65c-2.32,2.54-3.94,4.81-8.26,2.94-4.48-1.94-3.22-5.21-3.82-8.4-1.2,0-2.22,0-3.24,0-4.35.06-4.4-.74-4.3,4.08,0,1.6-.58,2.23-2.06,3-3.86,2-6.93,1.84-9.45-1.94-.13-.19-.43-.26-.79-.46l-6,5.09c1.77,1.5,2.82,2.28,3.74,3.2.45.45,1,1.29.9,1.72a24.91,24.91,0,0,1-2.8,6.32c-.55.77-2.56.73-3.89.65-2.14-.13-3.11.55-2.76,2.76a8.32,8.32,0,0,1,0,1.3c0,3.65,0,3.54,3.58,3.78,1.1.07,2.68.63,3.12,1.45,1.9,3.52,3.27,7.19-1.4,9.88-.26.15-.38.54-.57.82l-.55.68a28,28,0,0,1,3.15,2.3c2.6,2.49,2.65,2.61,5.13-.1,1.43-1.57,2.72-1.92,4.46-.68a4.94,4.94,0,0,0,1.85.9c2.65.49,3.21,2.19,3,4.57-.08,1,.13,2.83.43,2.88a23.16,23.16,0,0,0,6.38.23c.46-.06,1-2,.93-3.1-.2-2.45.66-3.73,3.12-4.11,1-.16,1.87-1,2.86-1.15a3.56,3.56,0,0,1,2.54.5c4.09,3.33,4.06,3.37,7.78-.47C81.4,72.4,81.71,72,82.44,71.12Z"/><path class="cls-1" d="M61.44,42.14a12.6,12.6,0,0,1,12.9,12.71A12.84,12.84,0,1,1,48.67,55,12.59,12.59,0,0,1,61.44,42.14Zm0,22.12a9.42,9.42,0,0,0,9.67-9.16,9.8,9.8,0,0,0-9.58-9.67A9.69,9.69,0,0,0,52,54.86,9.4,9.4,0,0,0,61.44,64.26Z"/></svg>