<svg id="Layer_1" data-name="Layer 1" xmlns="http://www.w3.org/2000/svg" viewBox="0 0 112.64 107.5"><defs><style>.cls-1{fill:#265f79;}</style></defs><title>icon</title><path class="cls-1" d="M56,24.07c2-2,3.7-3.65,5.36-5.39a2.15,2.15,0,0,0,.39-1.28,12.8,12.8,0,0,1,4.06-9.06c1.62-1.52,3.12-3.16,4.73-4.69A12.85,12.85,0,0,1,88.82,21.72c-1.74,1.86-3.58,3.64-5.4,5.42a11.94,11.94,0,0,1-8.16,3.4,2.29,2.29,0,0,0-1.38.46c-1.75,1.65-3.44,3.36-5.25,5.16,1.54,1.56,3,3.1,4.53,4.52.34.31,1.07.25,1.62.25h37.87V107.5H0V40.95H48.44c-.49-.55-.73-.87-1-1.15-2.75-2.73-5.48-5.48-8.28-8.15a3.4,3.4,0,0,0-1.94-.82,12.18,12.18,0,0,1-7.82-3.2c-2-1.94-4-3.88-5.89-5.93a12.62,12.62,0,0,1-2-14.13A12.48,12.48,0,0,1,33.66.27,11.61,11.61,0,0,1,41.51,3.4c2.17,2,4.28,4.14,6.32,6.3s2.73,4.88,3,7.76a3.8,3.8,0,0,0,.89,1.93C53.09,21,54.54,22.46,56,24.07Zm-2.32,22H51.86c-10.44,0-20.88.1-31.31-.06-3,0-4.63,1.08-5.57,3.7-.14.4-.33.78-.49,1.17a7.5,7.5,0,0,1-4.43,4.31c-1.14.44-2.25,1-3.38,1.43A2.43,2.43,0,0,0,5,59.28c.06,9,0,17.95,0,26.92,0,5.19,0,5.22,4.94,7a6.82,6.82,0,0,1,4.38,4.1c.25.66.61,1.28.85,1.94.89,2.4,2.58,3.28,5.15,3.25,10.63-.09,21.25,0,31.88,0,.46,0,.92,0,1.42-.06V99.81c-12.33-2-19.25-12.36-20.29-22.47a27.11,27.11,0,0,1,4.22-18.1A22.68,22.68,0,0,1,53.7,48.74Zm5.22,56.35H90.21c5.72,0,5.74,0,8.06-5.24a7.33,7.33,0,0,1,4.1-4.06c1.18-.47,2.33-1,3.51-1.49A2.52,2.52,0,0,0,107.61,89c-.07-9.77-.08-19.55,0-29.32,0-1.73-.59-2.71-2.11-3.16-4.15-1.24-7.22-3.58-8.42-7.93a1.56,1.56,0,0,0-.14-.24,3.79,3.79,0,0,0-3.78-2.2c-4.44,0-8.88,0-13.32,0-.34,0-.69.07-1.31.13,3.07,3,6,5.88,8.83,8.76A15.05,15.05,0,0,1,92,64.77c.26,4.42.21,8.87.24,13.3a2.46,2.46,0,0,1-1.6,2.46,2.59,2.59,0,0,1-3-.67q-3.56-3.55-7.14-7.08c-.34-.34-.7-.66-1.29-1.21A27.14,27.14,0,0,1,74.6,89.9a22.58,22.58,0,0,1-15.68,9.9Zm0-15.37v7.35c.62-.12,1.13-.19,1.62-.33a16.56,16.56,0,0,0,8.36-5.3c4.79-5.57,6.14-12,4.88-19.17a13,13,0,0,0-4.52-8.21,61.07,61.07,0,0,1-5.2-5c-1.41-1.46-3.2-1.84-5.19-2.28v7.2H53.71V54.12c-9.53,1.6-16.18,11.35-15.25,22.17.8,9.27,8.21,18.06,15.33,18v-7.2ZM87,71.71c0-1.35-.06-2.34,0-3.32.31-4.41-1.36-7.87-4.5-11C70.68,45.74,59,33.93,47.19,22.19a4,4,0,0,1-1.37-3.51,6.65,6.65,0,0,0-1.69-5.38,80.26,80.26,0,0,0-6.22-6.19,7.38,7.38,0,0,0-10.44.76,7.4,7.4,0,0,0-.09,10.36c1.83,2,3.76,3.85,5.71,5.72a6.58,6.58,0,0,0,5.29,2,4.62,4.62,0,0,1,4.11,1.62Q64.06,49,85.71,70.49C86,70.82,86.38,71.12,87,71.71ZM65,32.4c1.95-2,3.82-4,5.85-5.78a4,4,0,0,1,2.61-1A8.07,8.07,0,0,0,80,23.28c1.65-1.62,3.3-3.24,4.89-4.91,3.19-3.36,3.17-7.83,0-11s-7.55-3.18-11,.1c-1.67,1.6-3.28,3.26-4.91,4.9a7.11,7.11,0,0,0-2.26,5.87,4.41,4.41,0,0,1-1.63,4c-1.82,1.68-3.53,3.47-5.2,5.13Zm42.5,64.38c-3.52.8-5,2.29-5.62,5.56h5.62Zm-96.77,5.61A5.79,5.79,0,0,0,5.17,97v5.34Zm0-56.2H5.17v5.3A6.33,6.33,0,0,0,10.78,46.19Zm96.71,5.31V46.22h-5.65A6.33,6.33,0,0,0,107.49,51.5Z"/><path class="cls-1" d="M58.77,81.93H53.83V66.66h4.94Z"/><path class="cls-1" d="M37.56,20.6H37c-2.21,0-6.12-3.8-6.2-6A3.62,3.62,0,0,1,32.92,11a3.44,3.44,0,0,1,4,.33,31.15,31.15,0,0,1,3.3,3.29,3.4,3.4,0,0,1,.5,3.84A3.47,3.47,0,0,1,37.56,20.6Z"/><path class="cls-1" d="M56.32,38.87a2.81,2.81,0,0,1-2.83-2.76,2.82,2.82,0,1,1,5.63,0A2.81,2.81,0,0,1,56.32,38.87Z"/><path class="cls-1" d="M81.81,13.89c0,2.79-4.18,7-6.46,6.94a3.41,3.41,0,0,1-3.09-1.91,3.81,3.81,0,0,1,.22-4.28,23.45,23.45,0,0,1,3.41-3.38,3.4,3.4,0,0,1,3.87-.22A3.64,3.64,0,0,1,81.81,13.89Z"/></svg>