<svg id="Layer_1" data-name="Layer 1" xmlns="http://www.w3.org/2000/svg" viewBox="0 0 120.17 104"><defs><style>.cls-1{fill:#265f79;}</style></defs><title>icon</title><path class="cls-1" d="M100,85.61,101,88c1,2.17,2,4.31,2.88,6.52a4.44,4.44,0,0,1-2.2,6c-1.92,1-4,1.72-6,2.64a7.24,7.24,0,0,1-2.84.86,4.38,4.38,0,0,1-4.32-2.76c-1.12-2.24-2.09-4.55-3.12-6.84-.25-.57-.45-1.15-.74-1.89-.94.38-1.85.72-2.74,1.12-1.26.57-2.47,1.25-3.76,1.75a4.61,4.61,0,0,1-6.1-2.44,5.73,5.73,0,0,1-.57-2.64c.05-1.53,0-3.06,0-4.69H19.09c-3.82,0-7.65,0-11.47,0a5.8,5.8,0,0,1-3.45-1.33,9.75,9.75,0,0,1-3.35-5,9.57,9.57,0,0,1-.57-2.8c-.12-6-.22-12-.23-18q0-23.7,0-47.4A10,10,0,0,1,1,6,20.08,20.08,0,0,1,2.91,2.65,6.16,6.16,0,0,1,7.58.19Q59.47.1,111.36,0a7.49,7.49,0,0,1,7.37,4.81c.51,1.17,1,2.36,1.38,3.55a3.09,3.09,0,0,1,0,1q0,20.49,0,41c0,8.51,0,17,0,25.54a11.27,11.27,0,0,1-1.25,4.82A9,9,0,0,1,116.49,84a6.22,6.22,0,0,1-4.06,1.62c-3.82,0-7.65,0-11.47,0ZM84.56,53.92l-.06.17c.53.46,1.08.9,1.6,1.37l6.34,5.75,5.75,5.23c2.67,2.43,5.36,4.86,8,7.3a9.58,9.58,0,0,1,2.75,3.15,3.07,3.07,0,0,1,.23,2.56c-.26.59-.42,1.22-.67,1.93h3.63a3.07,3.07,0,0,0,2.69-1.84,8.79,8.79,0,0,0,1.14-4.6q0-32.11,0-64.21a9.19,9.19,0,0,0-.9-4.11,3.44,3.44,0,0,0-3.49-2.28c-1.15.07-2.31,0-3.46,0H27.45c-6.28,0-12.55,0-18.83,0a3.43,3.43,0,0,0-3.12,1.9,8.35,8.35,0,0,0-1.14,4.6q0,31.85,0,63.71a14.2,14.2,0,0,0,.38,3.37,7,7,0,0,0,1.15,2.23,3.32,3.32,0,0,0,3,1.28c7.29,0,14.57,0,21.86,0H71.49V54.26a14,14,0,0,1-3.08-.46,9,9,0,0,1-4.18-2.69,10.19,10.19,0,0,1-2-5.39A17,17,0,0,1,62.42,43a8.18,8.18,0,0,1,1.67-4.16A8,8,0,0,1,70,35.6a9,9,0,0,1,4.84.57A6.66,6.66,0,0,1,78,38.47a14.68,14.68,0,0,1,1.59,2.85,8.73,8.73,0,0,1,.46,4.37c-.16,1.07-.42,2.12-.6,3.18a1,1,0,0,0,.13.8c.94.91,1.93,1.78,2.92,2.64a4.42,4.42,0,0,0,.87.44c0-.9,0-1.59,0-2.29q0-11,0-22c0-.57.12-.83.76-.79.91.05,1.83,0,2.74,0s1,.12,1,1q0,5.73,0,11.46c0,.83,0,1.66,0,2.45a1.69,1.69,0,0,0,2-.59c.47-.63,1-1.24,1.46-1.85,1-1.2,1.91-2.42,2.92-3.59a1.74,1.74,0,0,1,1.07-.61c1.38-.07,2.77,0,4.26,0a2.81,2.81,0,0,1-.25.49l-2.88,3.43c-.8,1-1.58,1.92-2.39,2.87-.34.4-1,.82-1,1.17s.68.86,1,1.32c.82,1.2,1.58,2.45,2.41,3.65.95,1.37,2,2.7,2.91,4.07a6.15,6.15,0,0,1,.46,1c-1.23,0-2.31-.06-3.38,0a2.2,2.2,0,0,1-2-1c-.5-.65-.94-1.35-1.4-2C92,49.29,90.9,47.64,89.78,46c-.41-.59-1.11-.32-1.67-.28-.12,0-.28.58-.28.9,0,1.95,0,3.89,0,5.84,0,.45,0,.9-.08,1.43ZM86.65,87a3.61,3.61,0,0,1,.36.52q.87,1.88,1.72,3.77Q90,94.18,91.27,97c.33.75.58,1.53.93,2.27a.89.89,0,0,0,.65.43,2.49,2.49,0,0,0,1-.29q2.89-1.27,5.76-2.57c.43-.19.65-.44.34-1-.39-.69-.66-1.46-1-2.2-.84-1.91-1.69-3.82-2.52-5.73q-.8-1.82-1.57-3.65c-.19-.45-.31-.87.38-1a6.56,6.56,0,0,0,1-.47c2.49-1.13,5-2.29,7.49-3.36,1.53-.65,1.6-.86.39-2-2.11-1.91-4.22-3.82-6.32-5.73l-6.05-5.47-5.58-5.07-7.4-6.74c-.58-.53-1.18-1-1.79-1.54a.71.71,0,0,0-1.19.32,2.4,2.4,0,0,0,0,.65q0,15.33,0,30.66c0,2,0,4.09,0,6.13,0,.78.47,1,1.17.65.46-.24.94-.45,1.42-.67,1.46-.66,2.92-1.33,4.39-2C84,88.15,85.31,87.6,86.65,87ZM75.56,44.93h-.08c0-.36,0-.72,0-1.08-.2-2.14-.65-4.14-3.11-4.79a4.15,4.15,0,0,0-3.79.7c-1.37,1.09-1.62,2.72-1.85,4.31A7.88,7.88,0,0,0,67.26,48c.55,1.44,1.37,2.56,3.1,2.62a2.19,2.19,0,0,1,.55.12,1.91,1.91,0,0,0,1.74-.63A5.58,5.58,0,0,1,74,48.82c.63-.39,1.24-.72,1.32-1.57S75.47,45.7,75.56,44.93Z"/><path class="cls-1" d="M20.91,53.89V28.48h1.24c3,0,6.06-.09,9.08.06a9.46,9.46,0,0,1,5.94,2.07,4,4,0,0,1,1.52,2.59c.08.8.24,1.59.26,2.38a3.76,3.76,0,0,1-1.27,3.06c-.9.78-1.86,1.49-2.7,2.16.59.26,1.41.58,2.19,1A5.25,5.25,0,0,1,39.75,47c-.29,1.82-.83,3.59-2.44,4.71a11.3,11.3,0,0,1-3.06,1.59c-2.92.89-6,.56-9,.6C23.85,53.91,22.41,53.89,20.91,53.89Zm4.76-7.38c0,1.06,0,2.11,0,3.17,0,.44.14.59.58.58.86,0,1.73,0,2.59,0a21.63,21.63,0,0,0,3.39-.32,4,4,0,0,0,1.9-1A3.69,3.69,0,0,0,35,46a3.11,3.11,0,0,0-2.77-3.11c-2-.14-4-.1-6-.14-.44,0-.58.19-.57.62C25.68,44.44,25.66,45.48,25.66,46.51Zm0-6.91c2.1-.14,4.07-.26,6-.43a2.34,2.34,0,0,0,1-.42A3.87,3.87,0,0,0,34,34.32a4.68,4.68,0,0,0-.61-1.06c-.77-1-2-.93-3-1.08a26.47,26.47,0,0,0-4.32,0,.59.59,0,0,0-.42.4C25.65,34.83,25.66,37.1,25.66,39.6Z"/><path class="cls-1" d="M60.09,44.73c-.12,2.84-.85,5.37-3,7.27a6.69,6.69,0,0,1-4.41,1.91c-.75,0-1.51.29-2.24.23a8.56,8.56,0,0,1-5.89-2.52,9.39,9.39,0,0,1-2-3.46,11,11,0,0,1-.47-4.72A8.46,8.46,0,0,1,45,37.62a7.07,7.07,0,0,1,3.83-1.78,26.53,26.53,0,0,1,3.24-.25,8.25,8.25,0,0,1,7.23,5.27A35.74,35.74,0,0,1,60.09,44.73ZM55.36,45c0-.56,0-1,0-1.52a4.93,4.93,0,0,0-.3-1.45A6.09,6.09,0,0,0,53.92,40a4.21,4.21,0,0,0-4.79-.64c-1.79.8-2.28,2.49-2.49,4.18a9,9,0,0,0,.48,4.62,3.67,3.67,0,0,0,1.75,2.12,4.57,4.57,0,0,0,3.33.37,3.62,3.62,0,0,0,2.34-1.76A6.52,6.52,0,0,0,55.36,45Z"/></svg>