<svg id="Layer_1" data-name="Layer 1" xmlns="http://www.w3.org/2000/svg" viewBox="0 0 117.84 107.73"><defs><style>.cls-1{fill:#265f79;}</style></defs><title>icon</title><path class="cls-1" d="M117.77,104.34l-77.71,3.39V42.65c3.92,0,7.87-.14,11.79,0,20.68.84,41.35,1.82,62,2.55,3,.11,4,.87,4,4-.15,17.17-.07,34.34-.07,51.51ZM50.43,74.86c0-8.23.06-16.46-.07-24.69,0-1.16-1-2.31-1.53-3.47-.55,1.13-1.12,2.25-1.62,3.4a2.84,2.84,0,0,0,0,1q0,23.81,0,47.62a11.22,11.22,0,0,0,.29,3.13A2.11,2.11,0,0,0,49,103c.35.06,1.07-.58,1.19-1a10.45,10.45,0,0,0,.26-2.78Q50.45,87,50.43,74.86ZM61,75.23c0-8.11.07-16.22-.08-24.33,0-1.22-1.1-2.42-1.69-3.63-.49,1.17-1.4,2.34-1.41,3.52q-.14,24.16,0,48.32c0,1.16,1,2.31,1.49,3.47.56-1.24,1.59-2.47,1.61-3.71C61.09,91,61,83.11,61,75.23Zm10.27-.37q0-11.45,0-22.89a9.92,9.92,0,0,0-.15-2.8c-.2-.67-.91-1.2-1.4-1.79a11.9,11.9,0,0,0-1.61,2,4.08,4.08,0,0,0-.07,1.74c0,15.85,0,31.7.07,47.55,0,1.24,1.07,2.47,1.64,3.71.51-1.29,1.43-2.58,1.45-3.88C71.36,90.6,71.29,82.73,71.29,74.87Zm28.13-.35c0,7.76-.06,15.51.06,23.27,0,1.07.9,2.13,1.38,3.2.6-1.07,1.71-2.13,1.72-3.2q.17-22.91,0-45.83c0-1.07-1.13-2.13-1.74-3.19-.47,1.06-1.34,2.12-1.36,3.2C99.37,59.47,99.43,67,99.43,74.52Zm10.28,0c0,7.63-.07,15.26.07,22.89,0,1.16,1,2.29,1.54,3.44.54-1.15,1.54-2.29,1.54-3.45q.16-22.54,0-45.08c0-1.15-1-2.29-1.55-3.44-.54,1.15-1.51,2.29-1.54,3.44C109.64,59.73,109.71,67.13,109.71,74.52Zm-28.13.33c0-7.86.05-15.72-.06-23.57,0-1.07-.86-2.13-1.32-3.2-.55,1.09-1.56,2.17-1.57,3.26q-.15,23.75,0,47.5c0,1.07.85,2.13,1.3,3.2.55-1.09,1.57-2.17,1.59-3.26C81.65,90.8,81.58,82.83,81.58,74.85Zm10.53.33c0-7.75.06-15.5-.07-23.24,0-1.12-1-2.22-1.55-3.33-.48,1-1.39,2-1.39,3.06q-.13,23.24,0,46.49c0,1,1,2,1.49,3,.5-1,1.43-2,1.44-3.06C92.17,90.44,92.11,82.81,92.11,75.18Z"/><path class="cls-1" d="M37.48,107.5l-17.66-1.65V43.06l17.66-.89Z"/><path class="cls-1" d="M17.53,43v62.6c-5-.42-10.15-.91-15.26-1.24C-.26,104.25,0,102.57,0,100.92Q0,80.31,0,59.71C0,54.57,0,49.44,0,44Z"/><path class="cls-1" d="M52.21,18.39,2.59,42.33l-.83-1.41a22.73,22.73,0,0,1,3-2.08c15.51-7.54,31.07-15,46.55-22.61,1.43-.7,2.42-2.31,3.91-3.79l2.1,2.63c3.43-2.67-.28-4.09-.87-5.8-1-3-2.53-5.79-4.11-9.28H63l-3,10a21.18,21.18,0,0,0,1.29,4.23,6.22,6.22,0,0,0,2.69,2.62c17,8,34,16,50.94,24a20.89,20.89,0,0,1,2.94,2l-.62,1.1c-1.23-.45-2.5-.8-3.67-1.35-17-8-34-15.91-50.92-24.07C59.14,16.91,57,17,54.48,20.15,49.66,26.22,44.43,32,39.35,37.84c-.73.85-1.53,1.63-2.3,2.44l-1.15-.7a15.84,15.84,0,0,1,1.59-2.94c5-5.91,10.09-11.76,15.15-17.63Z"/></svg>