<svg id="Layer_1" data-name="Layer 1" xmlns="http://www.w3.org/2000/svg" viewBox="0 0 104.54 96"><defs><style>.cls-1{fill:#265f79;}</style></defs><title>icon</title><path class="cls-1" d="M76,55.49Q76,75.74,76,96H94.38q0-37.88,0-75.76a.94.94,0,0,0-.54-1c-.72.76-1.45,1.55-2.2,2.33Q85.06,28.39,78.46,35.2c-.67.69-1.38,1.33-2.09,2A1,1,0,0,0,76,38Q76,46.73,76,55.49Z"/><path class="cls-1" d="M51.63,96H70q0-26.17,0-52.34V43L67.15,45.3q-7.26,6.07-15.06,11.41a.93.93,0,0,0-.45.89Q51.65,76.8,51.63,96Z"/><path class="cls-1" d="M45.57,96q0-17.08,0-34.15V61c-.2.11-.34.17-.46.24a149.65,149.65,0,0,1-17.43,9.2.57.57,0,0,0-.41.61q0,12.47,0,24.94Z"/><path class="cls-1" d="M2.84,86.91c0,3,0,6.06,0,9.09H21.14c0-7.37,0-14.74,0-22.11v-.75c-.9.33-1.73.65-2.58.94a128.38,128.38,0,0,1-12.8,3.73,19.6,19.6,0,0,1-2.42.36c-.38,0-.5.14-.49.53C2.85,81.44,2.84,84.18,2.84,86.91Z"/><path class="cls-1" d="M104.54,2.09c-.28,1.36-.57,2.72-.83,4.08-.78,4-1.55,8.09-2.33,12.13a1.68,1.68,0,0,1-2.93,1C97,18,95.5,16.75,94,15.47L93.45,15c-2.12,2.39-4.19,4.77-6.31,7.09A206,206,0,0,1,47.26,56.4,141,141,0,0,1,15.56,72.06,83.26,83.26,0,0,1,3,75.33l-.88.13c-1,.12-1.53-.18-2.09-1.24v-.84a2.28,2.28,0,0,1,2.05-1.32,80.49,80.49,0,0,0,16.67-4.69A149.26,149.26,0,0,0,52,49.12,203.78,203.78,0,0,0,82.31,22.36c2.82-3,5.52-6.14,8.27-9.22.1-.11.19-.24.31-.4l-2.8-2.44c-.66-.57-1.32-1.14-2-1.71a1.69,1.69,0,0,1,.58-3L102,.21a4.79,4.79,0,0,0,.46-.21h.84a2.35,2.35,0,0,1,1.25,1.25Z"/><path class="cls-1" d="M104.54,1.25A2.35,2.35,0,0,0,103.28,0h1.25Z"/><path class="cls-1" d="M26.68,12.27c0-1.1,0-2.2,0-3.29a1.45,1.45,0,0,1,2-1.44,1.39,1.39,0,0,1,.89,1.35c0,.94,0,1.88,0,2.82,0,.19,0,.38,0,.52,1.19.26,2.35.41,3.45.76a9.24,9.24,0,0,1,6.38,6.79,3,3,0,0,1-5.76,1.69c-.12-.34-.21-.7-.33-1a5.32,5.32,0,0,0-3.49-3.33,1.48,1.48,0,0,0-.25,0c0,.2,0,.37,0,.54,0,2.93,0,5.85,0,8.78a.61.61,0,0,0,.53.71,45,45,0,0,1,4.79,1.58,9.42,9.42,0,0,1,5.68,10c-.46,4.35-3.33,8.09-8.73,9.25a19,19,0,0,1-1.9.31c-.3,0-.37.15-.37.43,0,1,0,2,0,2.93a1.47,1.47,0,1,1-2.92,0c0-1.08,0-2.16,0-3.22-1.05-.22-2.09-.36-3.08-.66a11,11,0,0,1-7.54-6.86,6.22,6.22,0,0,1-.41-2.87,3.09,3.09,0,0,1,2.85-2.66,2.87,2.87,0,0,1,3.11,2c.34,1,.65,1.95,1.08,2.87a6,6,0,0,0,4,3.27c0-.23,0-.41,0-.58,0-3.34,0-6.69,0-10,0-.4-.11-.57-.5-.68A21.32,21.32,0,0,1,20.78,30,8.24,8.24,0,0,1,16.6,23.2a10.69,10.69,0,0,1,.71-5.11,9,9,0,0,1,6.45-5.22C24.69,12.62,25.66,12.48,26.68,12.27Zm3,20.76V43.62c2.15-.43,3.89-1.36,4.75-3.44a4.42,4.42,0,0,0-1.93-5.84C31.58,33.88,30.65,33.5,29.64,33ZM26.66,17c-2.44.56-4.29,2.08-4.2,4.55A4.78,4.78,0,0,0,26.66,26Z"/></svg>