<svg id="Layer_1" data-name="Layer 1" xmlns="http://www.w3.org/2000/svg" viewBox="0 0 117 117"><defs><style>.cls-1{fill:#265f79;}</style></defs><title>icon</title><path class="cls-1" d="M72,19c0,1.22-.1,2.4,0,3.55.25,2.52.63,5,.91,7.55a2,2,0,0,1-.21,1.13,9.59,9.59,0,0,0,5.93,14,9.47,9.47,0,0,0,8.14-16.63,1.52,1.52,0,0,1-.51-.86c-.3-2.18-.56-4.36-.8-6.55A6.19,6.19,0,0,1,85.56,20c1,.12,2,.22,3,.35,1.49.21,3,.41,4.47.66a3.41,3.41,0,0,1,3,3.12c.37,2.51.72,5,1,7.54.37,3.33.7,6.67,1,10s.51,6.69.62,10c.1,3,0,6,0,9A8.64,8.64,0,0,1,98.25,63a3.55,3.55,0,0,1-.83,1.46q-8.08,8.14-16.2,16.23L61.1,100.84q-6.84,6.84-13.68,13.67a8,8,0,0,1-11.57,0Q20.16,98.84,4.48,83.15C3.76,82.42,3,81.71,2.3,81a8,8,0,0,1,.11-11.3L28.79,43.28Q40.56,31.52,52.31,19.73a2.9,2.9,0,0,1,2.12-.85c2.49-.07,5-.18,7.47-.17,3,0,6,.13,9.05.21C71.29,18.92,71.61,19,72,19Zm-39,61.92-4.19,4L33,89.33l4.29-4.42c1.15.6,2.22,1.24,3.36,1.72,3.77,1.59,7.51,1.59,10.94-.81,3.65-2.56,5.42-6,4.57-10.6A26.41,26.41,0,0,0,54,68.89a22,22,0,0,1-2.15-6.14,2.81,2.81,0,0,1,3.61-3.28,7.79,7.79,0,0,1,2.83,1.61,18.35,18.35,0,0,1,5.15,7.76c0,.13.11.25.19.43l6.15-3.51a23.09,23.09,0,0,0-5-8.06L68.45,54l-4.2-4.25-4,4-.67-.4a13.63,13.63,0,0,0-7.68-2.2,10.21,10.21,0,0,0-9.39,8,12.53,12.53,0,0,0,.81,6.83c.79,2.05,1.74,4,2.6,6.06a9.1,9.1,0,0,1,.94,4.38,3.23,3.23,0,0,1-2.91,3,4.75,4.75,0,0,1-3.05-.86A14.4,14.4,0,0,1,36,73.24c-.92-1.69-1.65-3.48-2.48-5.27-2,1.14-4,2.33-6,3.55a.7.7,0,0,0-.15.64,22.78,22.78,0,0,0,.95,2.24A27.73,27.73,0,0,0,32.92,80.92Z"/><path class="cls-1" d="M116.81,23.24a66.5,66.5,0,0,1-7.25,29.05,10.49,10.49,0,0,1-1.05,1.79,3.49,3.49,0,0,1-5.78-3.85c1-2,2-4,2.86-6a54.41,54.41,0,0,0,4-16.1,53.93,53.93,0,0,0,.24-7.17,14.74,14.74,0,0,0-5-11,13,13,0,0,0-9.49-3,13.77,13.77,0,0,0-12.43,9.73,16.48,16.48,0,0,0-.37,7.61c.59,3.73,1.26,7.45,1.9,11.17a3.47,3.47,0,0,1-2.83,4.14A3.33,3.33,0,0,1,77.59,37c-1-5-2.18-10-2.4-15.08a20.12,20.12,0,0,1,8.07-17.4,20.2,20.2,0,0,1,24.11-.95,21,21,0,0,1,8.75,13.22c.48,2.11.6,4.3.88,6.45Z"/></svg>