<?xml version="1.0" encoding="utf-8"?>
<!-- Generator: Adobe Illustrator 16.0.0, SVG Export Plug-In . SVG Version: 6.00 Build 0)  -->
<!DOCTYPE svg PUBLIC "-//W3C//DTD SVG 1.1//EN" "http://www.w3.org/Graphics/SVG/1.1/DTD/svg11.dtd">
<svg version="1.1" id="Layer_1" xmlns="http://www.w3.org/2000/svg" xmlns:xlink="http://www.w3.org/1999/xlink" x="0px" y="0px"
	 width="500px" height="500px" viewBox="0 0 500 500" enable-background="new 0 0 500 500" xml:space="preserve">
<path fill="#275E79" d="M57.091,201.306v-26.181c0-0.682,0-1.363,0.314-2.096c0.366-7.592,0.523-15.131,1.047-22.725
	c0.733-10.787,1.675-21.626,2.67-32.413c0.305-5.781,4.232-10.738,9.792-12.357L224.075,49.82l21.887-8.012h5.237l2.932,1.152
	l46.079,16.704l126.299,45.817c5.428,1.57,9.271,6.4,9.583,12.043c1.151,13.354,2.146,26.705,3.141,40.058
	c0.366,5.236,0.576,10.733,0.838,16.127v28.904c0,0.786,0,1.519-0.313,2.305c-1.047,14.138-1.729,28.275-3.143,42.361
	c-2.041,20.082-5.897,39.938-11.519,59.326c-8.985,33.349-24.684,64.512-46.132,91.582c-27.745,35.04-66.479,59.721-109.962,70.061
	c-10.374,2.991-21.281,3.653-31.941,1.938c-39.965-7.631-76.607-27.396-104.934-56.604c-23.279-24.056-41.134-52.819-52.363-84.355
	c-12.944-36.003-20.308-73.775-21.835-112.004L57.091,201.306z M83.953,178.896c-0.166,21.983,0.936,43.96,3.299,65.818
	c2.32,20.408,6.492,40.563,12.462,60.217c8.392,28.696,22.478,55.409,41.418,78.545c24.442,29.991,58.302,50.843,96.085,59.169
	c4.084,1.155,8.324,1.668,12.567,1.519c14.226-1.692,28.098-5.616,41.103-11.624c34.485-15.162,63.308-40.815,82.367-73.308
	c13.221-22.151,22.951-46.206,28.852-71.317c7.325-30.991,11.033-62.725,11.049-94.568c0.134-21.258-0.811-42.51-2.828-63.673
	c-0.005-0.991-0.704-1.844-1.675-2.041l-12.568-4.556L250.832,70.294c-1.446-0.576-3.057-0.576-4.503,0l-97.395,35.345
	l-59.85,21.783c-1.1,0.42-2.146,0.682-2.252,2.304c-1.047,19.269-2.251,38.487-2.879,49.221V178.896z M193.233,223.037
	c0-1.677,0-2.986,0-4.348c0-11.833,0-23.668,0-35.501c-0.529-20.589,14.817-38.146,35.292-40.372
	c5.679-0.439,11.38-0.527,17.07-0.262h17.437c20.252-0.434,37.572,14.471,40.163,34.559c0.521,5.938,0.66,11.902,0.418,17.856
	c0,8.482,0,17.018,0,25.501c0,0.785,0,1.518,0,2.408c3.09,0,5.97,0,8.798,0.523c9.036,1.402,15.891,8.888,16.494,18.014
	c0.314,7.276,0,14.608,0,21.887c0,20.003,0,40.005,0,59.955c0.452,10.922-8.034,20.144-18.957,20.596
	c-0.662,0.027-1.326,0.021-1.988-0.017H189.044c-10.942,0.624-20.32-7.739-20.945-18.682c-0.043-0.755-0.043-1.511,0-2.264
	c0-26.601,0-53.183,0-79.749c-0.177-10.987,8.586-20.039,19.574-20.215c0.283-0.006,0.565-0.004,0.848,0.003L193.233,223.037z
	 M276.28,223.037c0-0.733,0-1.311,0-1.886c0-12.707,0-25.396,0-38.069c0.386-7.131-5.082-13.227-12.215-13.613
	c-0.467-0.025-0.933-0.025-1.399,0h-28.171c-7.172-0.637-13.504,4.66-14.142,11.832c-0.07,0.783-0.068,1.574,0.004,2.359
	c0,12.462,0,24.941,0,37.438c0,0.628,0,1.205,0,1.938H276.28z M240.36,297.496L240.36,297.496c0,4.868,0,9.791,0,14.66
	c-0.276,2.414,1.457,4.595,3.87,4.871c0.333,0.038,0.667,0.038,1,0h6.127c4.188,0,5.603-1.467,5.603-5.656
	c0-9.425,0-18.851,0-28.275c-0.13-1.114,0.375-2.206,1.309-2.827c5.896-4.159,8.418-11.66,6.231-18.536
	c-2.751-8.807-12.117-13.716-20.923-10.966c-5.233,1.633-9.331,5.732-10.965,10.966c-2.25,6.896,0.255,14.452,6.178,18.641
	c0.955,0.587,1.501,1.659,1.415,2.775C240.098,287.914,240.36,292.679,240.36,297.496z"/>
</svg>
