<?xml version="1.0" encoding="utf-8"?>
<!-- Generator: Adobe Illustrator 16.0.0, SVG Export Plug-In . SVG Version: 6.00 Build 0)  -->
<!DOCTYPE svg PUBLIC "-//W3C//DTD SVG 1.1//EN" "http://www.w3.org/Graphics/SVG/1.1/DTD/svg11.dtd">
<svg version="1.1" id="Layer_1" xmlns="http://www.w3.org/2000/svg" xmlns:xlink="http://www.w3.org/1999/xlink" x="0px" y="0px"
	 width="500px" height="500px" viewBox="0 0 500 500" enable-background="new 0 0 500 500" xml:space="preserve">
<g>
	<path fill="#275E79" d="M272.983,284.205c14.785-19.811,28.604-38.653,42.519-56.917c11.741-15.605,20.148-15.123,30.246,1.691
		c37.14,62.231,74.183,124.512,111.128,186.84c10.436,17.539,5.121,26.96-15.316,27.009c-127.717,0-255.433-0.097-383.149-0.29
		c-6.716,0-16.476-2.898-19.327-7.683c-2.851-4.782,0-14.495,3.383-20.243c45.417-76.583,91.367-152.875,137.218-229.215
		c11.693-19.327,20.39-19.327,32.517,0.29C232.301,218.011,252.11,250.286,272.983,284.205z M315.985,413.016L195.967,212.793
		L76.819,413.016H315.985z M329.997,256.375c-13.722,18.166-26.333,34.304-38.073,51.069c-1.357,3.889-0.896,8.182,1.255,11.693
		c17.168,29.344,34.644,58.511,52.424,87.5c1.884,3.046,5.557,7.007,8.504,7.104c22.226,0.58,44.499,0.338,69.817,0.338
		L329.997,256.375z"/>
	<path fill="#275E79" d="M287.382,156.939c17.184,0.161,30.983,14.224,30.821,31.406c-0.161,17.185-14.223,30.985-31.407,30.821
		c-16.9-0.158-30.583-13.778-30.82-30.678c-0.268-17.154,13.422-31.281,30.579-31.549
		C286.83,156.937,287.107,156.937,287.382,156.939z"/>
</g>
</svg>
