<?xml version="1.0" encoding="utf-8"?>
<!-- Generator: Adobe Illustrator 16.0.0, SVG Export Plug-In . SVG Version: 6.00 Build 0)  -->
<!DOCTYPE svg PUBLIC "-//W3C//DTD SVG 1.1//EN" "http://www.w3.org/Graphics/SVG/1.1/DTD/svg11.dtd">
<svg version="1.1" id="Layer_1" xmlns="http://www.w3.org/2000/svg" xmlns:xlink="http://www.w3.org/1999/xlink" x="0px" y="0px"
	 width="500px" height="500px" viewBox="0 0 500 500" enable-background="new 0 0 500 500" xml:space="preserve">
<path fill="#275E79" d="M88.337,88.51v128.037H57c0-0.725,0-1.448,0-2.174c0-15.248,0-30.498,0-45.747c0-36.18,0-72.53,0-109.054
	c0-1.886,0.4-2.4,2.345-2.4h380.795c2.859,0,2.859,0,2.859,2.859c0,43.078,0,86.14,0,129.181c0,40.259,0,80.536,0,120.832
	c0,43.689,0,87.361,0,131.012c0,0.572,0,1.087,0,1.772H283.51v-31.107h128.038v-2.632c0-42.735,0-85.491,0-128.267
	c0-46.701,0-93.402,0-140.104c0-16.965,0-33.929,0-50.895c0-1.601-0.857-1.43-1.887-1.43H88.337V88.51z M111.04,411.721h64.048
	v31.107H57V325.026h31.223v63.819l156.745-156.573h-63.991V201.05h118.088v117.973h-31.167v-64.104L111.04,411.721z"/>
</svg>
