<?xml version="1.0" encoding="utf-8"?>
<!-- Generator: Adobe Illustrator 16.0.0, SVG Export Plug-In . SVG Version: 6.00 Build 0)  -->
<!DOCTYPE svg PUBLIC "-//W3C//DTD SVG 1.1//EN" "http://www.w3.org/Graphics/SVG/1.1/DTD/svg11.dtd">
<svg version="1.1" id="Layer_1" xmlns="http://www.w3.org/2000/svg" xmlns:xlink="http://www.w3.org/1999/xlink" x="0px" y="0px"
	 width="500px" height="500px" viewBox="0 0 500 500" enable-background="new 0 0 500 500" xml:space="preserve">
<path fill="#78C8A8" d="M238.724,437.311c-103.447,0-187.311-83.861-187.311-187.311c0-103.447,83.863-187.311,187.311-187.311
	c103.449,0,187.31,83.863,187.31,187.311l0,0C425.915,353.399,342.123,437.191,238.724,437.311z M238.724,75.885
	c-96.161,0-174.115,77.956-174.115,174.115c0,96.161,77.954,174.115,174.115,174.115c96.162,0,174.114-77.954,174.114-174.115
	C412.72,153.889,334.837,76.005,238.724,75.885z M346.041,176.353l-20.978,12.227c-3.765-4.265-7.171-8.533-11.042-12.37
	c-17.515-17.906-40.875-28.926-65.832-31.05c-57.991-5.151-109.18,37.683-114.331,95.674
	c-5.151,57.99,37.685,109.178,95.674,114.329c55.599,4.94,105.41-34.316,113.604-89.528c2.895-18.158,0.751-36.761-6.203-53.783
	c-1.327-3.372-1.004-5.095,2.33-6.813c5.845-2.978,11.438-6.491,17.139-9.755c22.769,42.454,18.107,116.244-39.655,159.235
	c-57.74,43.018-139.419,31.083-182.435-26.656c-43.019-57.738-31.084-139.417,26.656-182.435c3.959-2.95,8.085-5.676,12.355-8.158
	C235.462,100.771,311.654,123.645,346.041,176.353z M301.398,202.276c-7.387,4.269-14.664,8.713-22.194,12.586
	c-1.147,0.573-3.979-1.04-5.414-2.331c-12.857-12.365-31.313-16.982-48.478-12.12c-27.334,7.322-43.557,35.416-36.237,62.75
	c5.142,19.191,20.914,33.682,40.469,37.181c27.711,5.222,54.41-13.008,59.632-40.72c1.291-6.841,1.166-13.873-0.361-20.665
	c-1.018-2.494,0.18-5.34,2.674-6.357c0.052-0.021,0.105-0.042,0.157-0.062c6.742-3.585,13.374-7.636,20.079-11.473
	c13.125,27.321,6.635,72.859-31.408,96.272c-36.979,23.034-85.628,11.731-108.662-25.247c-0.588-0.943-1.155-1.896-1.703-2.864
	c-21.513-36.431-8.247-86.054,28.184-107.316C238.258,158.389,282.935,175.203,301.398,202.276z M254.249,229.347
	c-5.881,3.587-11.653,6.956-17.354,10.507c-4.927,2.988-6.499,9.405-3.51,14.331c1.51,2.49,3.99,4.236,6.844,4.816
	c3.147,0.188,6.288-0.454,9.108-1.866c4.876-2.295,9.431-5.307,14.341-8.138c0.919,11.227-5.996,21.612-16.708,25.1
	c-13.53,4.738-28.342-2.386-33.082-15.919c-3.556-10.154-0.481-21.449,7.733-28.399
	C230.994,221.853,244.668,221.671,254.249,229.347z M433.133,133.361c-1.184,6.634-2.116,12.334-3.227,17.93
	c-0.61,3.189,0,5.054,3.585,5.737c4.878,0.859,9.646,2.508,15.096,3.977c-1.033,0.857-2.111,1.661-3.227,2.404
	c-11.439,6.633-22.696,13.625-34.423,19.65c-3.695,1.255-7.705,1.255-11.401,0c-3.613-1.147-7.544-0.649-10.757,1.36
	c-40.973,23.903-81.99,47.641-123.057,71.21c-6.312,3.585-9.646,3.585-11.761-0.252c-2.115-3.835-0.645-6.239,5.413-9.824
	c41.068-23.905,82.123-47.65,123.166-71.245c3.718-1.641,6.303-5.11,6.813-9.143c0.595-5.332,4.043-9.921,8.999-11.975
	C409.97,147.06,420.977,140.319,433.133,133.361z"/>
</svg>
