<?xml version="1.0" encoding="utf-8"?>
<!-- Generator: Adobe Illustrator 16.0.0, SVG Export Plug-In . SVG Version: 6.00 Build 0)  -->
<!DOCTYPE svg PUBLIC "-//W3C//DTD SVG 1.1//EN" "http://www.w3.org/Graphics/SVG/1.1/DTD/svg11.dtd">
<svg version="1.1" id="Layer_1" xmlns="http://www.w3.org/2000/svg" xmlns:xlink="http://www.w3.org/1999/xlink" x="0px" y="0px"
	 width="500px" height="500px" viewBox="0 0 500 500" enable-background="new 0 0 500 500" xml:space="preserve">
<path fill="#78C8A8" d="M248.977,442.909c-103.483,0-187.373-83.89-187.373-187.372c0-103.484,83.89-187.373,187.373-187.373
	c103.482,0,187.372,83.889,187.372,187.373C436.23,358.97,352.409,442.791,248.977,442.909z M248.977,81.325
	c-96.194,0-174.175,77.98-174.175,174.175s77.98,174.175,174.175,174.175c96.193,0,174.174-77.98,174.174-174.175l0,0
	C423.033,159.355,345.122,81.443,248.977,81.325z M377.944,262.402c0.298,18.8-3.664,37.422-11.588,54.471
	c-1.202,1.851-0.746,4.316,1.037,5.616c17.096,17.523,34.12,35.12,51.073,52.788c15.211,16.469,14.19,42.15-2.276,57.362
	c-15.99,14.768-40.782,14.298-56.2-1.068c-17.131-17.489-34.083-35.157-51.036-52.825c-1.203-1.717-3.527-2.216-5.329-1.145
	c-62.161,26.548-134.075-2.324-160.621-64.484c-26.547-62.162,2.324-134.075,64.485-160.622
	c62.162-26.546,134.073,2.325,160.622,64.485c2.431,5.695,4.427,11.566,5.971,17.562c1.164,4.569,2.061,9.203,2.682,13.877
	C377.479,254.105,377.729,259.542,377.944,262.402z M255.271,368.554c57.247-2.017,102.021-50.058,100.003-107.305
	c-1.89-53.675-44.442-97.028-98.071-99.917c-57.51-0.216-105.041,45.707-105.436,102.287
	c-0.869,57.077,44.698,104.053,101.775,104.922C254.117,368.551,254.694,368.555,255.271,368.554z M254.091,325.923
	c-22.747,0-42.024-9.05-58.869-23.784c-9.675-8.624-18.102-18.556-25.035-29.507c-2.47-3.215-2.671-7.628-0.501-11.051
	c12.089-18.993,26.931-35.372,47.531-45.279c32.188-15.486,62.481-10.908,90.664,10.193c12.224,9.517,22.59,21.204,30.579,34.477
	c2.293,3.084,2.464,7.255,0.429,10.516c-13.805,21.459-30.973,39.343-55.364,48.927
	C274.162,324.137,264.167,326.008,254.091,325.923z M319.684,266.731c-6.647-9.704-14.797-18.288-24.142-25.43
	c-18.312-13.626-38.411-18.777-60.8-11.694c-19.492,6.222-33.512,19.599-45.1,35.764c-0.376,0.928-0.283,1.979,0.25,2.826
	c8.32,11.994,19.112,22.067,31.651,29.541c13.46,8.159,29.515,10.906,44.922,7.69C289.928,300.601,306.057,285.578,319.684,266.731z
	 M283.632,266.338c-0.098,16.255-13.356,29.354-29.612,29.254c-16.257-0.1-29.354-13.357-29.254-29.613
	c0.099-16.255,13.355-29.353,29.61-29.255c16.177,0.02,29.276,13.148,29.259,29.326
	C283.634,266.146,283.634,266.241,283.632,266.338z M264.963,266.087c0-5.926-4.804-10.729-10.729-10.729
	c-5.927,0.059-10.682,4.911-10.622,10.836c0.059,5.926,4.911,10.683,10.836,10.623c5.827-0.136,10.481-4.9,10.479-10.729H264.963z"
	/>
</svg>
