<?xml version="1.0" encoding="utf-8"?>
<!-- Generator: Adobe Illustrator 16.0.0, SVG Export Plug-In . SVG Version: 6.00 Build 0)  -->
<!DOCTYPE svg PUBLIC "-//W3C//DTD SVG 1.1//EN" "http://www.w3.org/Graphics/SVG/1.1/DTD/svg11.dtd">
<svg version="1.1" id="Layer_1" xmlns="http://www.w3.org/2000/svg" xmlns:xlink="http://www.w3.org/1999/xlink" x="0px" y="0px"
	 width="500px" height="500px" viewBox="0 0 500 500" enable-background="new 0 0 500 500" xml:space="preserve">
<path fill="#78C8A8" d="M385.479,433.1c0,5.717,0.144,10.646-0.029,15.559c-0.428,12.322-6.266,18.287-18.563,18.295
	c-104.379,0.081-208.766,0.081-313.152,0.007c-12.492-0.007-19.081-6.52-19.094-19.124c-0.09-97.261-0.09-194.521,0-291.772
	c0.013-12.275,6.167-18.407,18.312-18.548c18.878-0.219,37.76-0.079,56.647-0.079c16.154-0.008,16.901,0.598,21.129,17.345
	c-15.792,0-31.457-0.398-47.08,0.318c-3.392,0.152-8.971,3.937-9.432,6.731c-1.298,7.846-0.458,16.044-0.458,24.8h14.269H352.02
	c27.441,0,32.779,5.025,34.571,32.471c0.037,0.56,0.744,1.064,1.152,1.584c9.469-0.015,18.935-0.015,28.709-0.015
	c2.107-19.556,0.173-37.128-13.9-52.01c-3.936-4.161-6.986-10.426-7.743-16.091c-3.926-29.219-22.735-46.367-52.479-46.627
	c-7.675-0.063-15.361-0.005-22.889-0.005c-3.385-43.267-14.417-68.464-42.171-86.958c-13.763-9.172-30.674-13.606-46.15-20.18
	h-25.664c-6.428,1.739-12.973,3.166-19.296,5.265c-39.974,13.257-66.675,48.358-69.161,90.682
	c-0.206,3.473-0.362,6.943-0.601,11.469c-23.662,0-46.701-0.151-69.759,0.048c-22.576,0.193-40.011,12.879-45.277,33.218
	c-1.394,5.391-1.305,11.252-1.311,16.894c-0.07,96.416-0.046,192.827-0.046,289.25c0,33.27,6.803,43.593,36.568,55.574H380.76
	c39.446-14.56,39.18-32.016,34.945-68.1H385.479z M327.938,136.898c9.462,1.167,19.19,0.111,28.789,0.418
	c10.126,0.317,15.366,5.811,16.176,16.736h-68.335C307.174,140.224,314.718,135.271,327.938,136.898 M159.066,100.396
	c7-6.942,13.39-18.254,21.255-19.401c6.465-0.949,14.697,10.189,21.921,15.793c12.569-12.095,25.666-23.997,37.893-36.744
	c6.369-6.65,10.572-7.234,17.104-0.174c16.708,18.07,18.471,14.301-0.501,32.123c-16.051,15.096-32.015,30.297-47.943,45.531
	c-3.501,3.357-6.403,6.696-11.461,1.832c-12.792-12.307-25.855-24.316-38.766-36.397
	C158.924,101.061,158.867,100.596,159.066,100.396 M453.555,267.581c-0.083-12.904-7.673-21.857-20.255-25.391
	c-2.049-0.571-4.133-1.474-6.2-1.454c-42.309,0.412-84.754-1.055-126.886,1.999c-40.811,2.966-72.268,40.697-72.813,81.554
	c-0.55,41.516,28.949,79.438,69.278,84.647c23.043,2.974,46.778,0.538,70.203,0.538c0.006,0.631,0.006,1.261,0.006,1.892
	c19.224,0,38.438,0.182,57.655-0.052c16.771-0.206,28.848-10.853,28.972-26.3C453.847,345.877,453.781,306.726,453.555,267.581
	 M417.298,378.629c-0.783,0.584-1.341,1.354-1.882,1.346c-35.21-0.111-70.482,1.002-105.604-0.85
	c-28.719-1.52-47.528-26.372-46.712-57.171c0.674-25.347,23.296-48.869,49.553-49.499c34.455-0.824,68.945-0.209,104.645-0.209
	V378.629z M341.453,308.729c10.583-0.146,18.032,7.084,18.175,17.617c0.143,10.316-7.531,18.445-17.584,18.64
	c-9.549,0.187-18.408-8.323-18.766-18.028C322.929,317.577,331.631,308.857,341.453,308.729"/>
</svg>
