<?xml version="1.0" encoding="utf-8"?>
<!-- Generator: Adobe Illustrator 16.0.0, SVG Export Plug-In . SVG Version: 6.00 Build 0)  -->
<!DOCTYPE svg PUBLIC "-//W3C//DTD SVG 1.1//EN" "http://www.w3.org/Graphics/SVG/1.1/DTD/svg11.dtd">
<svg version="1.1" id="Layer_1" xmlns="http://www.w3.org/2000/svg" xmlns:xlink="http://www.w3.org/1999/xlink" x="0px" y="0px"
	 width="500px" height="500px" viewBox="0 0 500 500" enable-background="new 0 0 500 500" xml:space="preserve">
<path fill="#78C8A8" d="M314.828,435.074c-9.96,2.999-18.068,6.286-26.489,7.71c-7.042,1.186-8.796,4.817-9.212,10.937
	c-0.727,10.567-1.844,21.112-2.856,32.408c-19.575,1.056-38.496,2.079-58.285,3.149c-2.865-12.808-5.946-24.917-8.157-37.188
	c-0.971-5.381-3.154-7.702-8.483-8.575c-8.143-1.334-17.274-6.722-23.871-4.4c-6.281,2.214-9.842,12.109-14.576,18.641
	c-3.016,4.171-5.984,8.366-9.303,13.017c-16.184-8.265-32.078-16.138-47.608-24.666c-1.797-0.987-2.766-5.975-2.061-8.541
	c2.92-10.566,7.002-20.808,9.807-31.394c0.778-2.93-0.398-7.458-2.376-9.828c-5.164-6.159-11.263-11.533-17.695-17.924
	c-12.614,5.438-25.504,10.994-38.938,16.781c-10.487-16.327-20.765-32.329-31.71-49.345c9.899-8.786,19.543-17.659,29.569-26.093
	c4.214-3.54,5.411-6.666,3.763-12.339c-6.681-22.893-6.428-22.92-30.739-24.856c-5.754-0.459-11.469-1.393-18.215-2.239
	c-1.091-17.842-2.349-35.494-2.975-53.167c-0.075-1.991,3.12-5.368,5.368-5.969c11.226-2.96,22.758-4.794,33.917-7.969
	c3.161-0.894,7.002-4.533,7.841-7.634c6.238-23.108,6.021-23.156-13.842-37.235c-4.742-3.357-9.412-6.796-15.11-10.919
	c8.714-17.239,17.361-34.357,26.471-52.39c12.343,3.914,24.375,7.318,36.081,11.596c5.635,2.06,9.138,1.578,13.392-3.059
	c16.309-17.769,16.502-17.592,6.369-40.044c-2.119-4.698-4.167-9.422-6.786-15.364c16.129-10.479,32.223-20.944,48.914-31.786
	c9.086,9.902,17.971,19.235,26.401,28.943c3.685,4.257,7.069,4.079,12.509,3.58c19.588-1.835,28.363-11.222,26.255-31.055
	c-0.523-4.981,1.076-10.188,1.845-16.551c19.152-1.158,38.3-2.313,58.021-3.504c2.89,13.029,5.238,25.354,8.552,37.408
	c0.88,3.21,4.241,6.993,7.328,8.091c7.831,2.794,16.157,4.216,24.994,6.361c7.783-10.729,15.706-21.646,24.007-33.086
	c16.151,8.204,32.036,16.008,47.563,24.496c1.834,1.003,2.903,6.066,2.19,8.665c-2.809,10.255-6.836,20.176-9.594,30.445
	c-0.816,3.052-0.034,7.675,1.884,10.111c5.159,6.565,11.322,12.339,17.207,18.54c13.533-6.072,26.15-11.736,39.505-17.735
	c10.528,16.138,20.898,32.037,31.813,48.774c-9.995,8.917-19.592,17.925-29.711,26.305c-4.423,3.67-5.144,6.999-3.591,12.4
	c6.583,22.945,6.404,22.945,30.878,24.754c5.774,0.426,11.504,1.332,18.242,2.13c0.859,18.298,1.865,36.275,2.301,54.28
	c0.035,1.658-3.312,4.432-5.496,4.96c-10.363,2.472-20.82,4.55-31.322,6.343c-6.363,1.104-10.126,3.499-11.103,10.681
	c-1.04,7.534-3.863,14.822-6.516,24.456c-9.331-8.998-16.857-17.301-25.437-24.314c-15.832-12.915-23.159-26.844-23.399-49.437
	c-0.751-67.795-48.152-120.665-113.673-132.979c-75.375-14.188-150.382,40.125-160.521,116.226
	c-10.106,75.834,35.396,143.257,108.47,158.894c14.557,3.114,30.131,1.362,45.205,2.173c3.513,0.189,8.089,0.582,10.245,2.777
	C286.092,403.837,299.564,418.673,314.828,435.074 M155.914,210.997c-24.009,59.496,20.065,126.975,85.15,128.487
	c24.451-7.911,37.799,8.185,51.394,23.754c0.849,0.975,1.767,1.896,2.667,2.822c39.57,40.91,79.167,81.786,118.675,122.757
	c7.639,7.925,16.383,13.002,27.592,10.571c24.642-5.348,42.647-19.445,53.077-42.532c9.402-20.815,7.114-30.961-9.148-46.657
	c-47.448-45.817-94.9-91.648-142.061-137.777c-2.826-2.762-4.748-8.338-4.295-12.284c3.991-34.921-5.912-64.473-32.384-88.066
	c-25.846-23.048-67.506-29.472-95.377-15.204c2.209,2.444,4.227,4.869,6.437,7.08c14.133,14.221,28.426,28.287,42.432,42.63
	c8.036,8.224,7.978,13.408,0.014,21.566c-9.93,10.186-20.073,20.176-30.171,30.193c-10.827,10.742-14.989,10.742-25.782,0.123
	C188.261,242.843,172.395,227.222,155.914,210.997"/>
</svg>
