<?xml version="1.0" encoding="utf-8"?>
<!-- Generator: Adobe Illustrator 16.0.0, SVG Export Plug-In . SVG Version: 6.00 Build 0)  -->
<!DOCTYPE svg PUBLIC "-//W3C//DTD SVG 1.1//EN" "http://www.w3.org/Graphics/SVG/1.1/DTD/svg11.dtd">
<svg version="1.1" id="Layer_1" xmlns="http://www.w3.org/2000/svg" xmlns:xlink="http://www.w3.org/1999/xlink" x="0px" y="0px"
	 width="500px" height="500px" viewBox="0 0 500 500" enable-background="new 0 0 500 500" xml:space="preserve">
<g>
	<path fill="#78C8A8" d="M228.664,273.625h8.228h173.094c7.761,0,7.765,0.016,7.765,7.754c0,51.787,0.05,103.574-0.021,155.363
		c-0.033,27.256-15.965,48.223-41.171,54.036c-4.93,1.137-10.132,1.502-15.217,1.502c-98.26,0.085-196.522,0.085-294.775,0.058
		c-28.022-0.016-48.931-15.471-54.956-40.78c-1.136-4.73-1.593-9.73-1.593-14.609c-0.09-98.657-0.099-197.303-0.05-295.965
		c0.016-27.922,15.63-48.854,40.963-54.793c5.118-1.192,10.53-1.571,15.811-1.581c51.578-0.111,103.182,0.014,154.767-0.197
		c5.73-0.021,7.295,1.639,7.274,7.31c-0.19,58.097-0.12,116.182-0.12,174.274V273.625z M198.704,114.521
		c-2.324-0.134-4.232-0.338-6.15-0.338c-42.331-0.014-84.654-0.034-126.985,0c-17.377,0.016-25.964,8.685-25.978,26.196
		c-0.036,42.132-0.014,84.261,0,126.396c0,2.092,0.19,4.183,0.295,6.445h158.818V114.521z M39.577,303.579v6.572
		c0,42.331-0.021,84.654,0.014,126.983c0.014,16.67,8.833,25.551,25.41,25.566c42.534,0.034,85.054-0.077,127.581,0.132
		c5.204,0.027,6.594-1.347,6.573-6.563c-0.204-48.827-0.12-97.652-0.133-146.476c0-2.065-0.212-4.132-0.323-6.216H39.577z
		 M229,462.371c2.332,0.131,4.241,0.33,6.151,0.33c42.535,0.012,85.053,0.034,127.583,0c16.549-0.016,25.368-8.932,25.374-25.606
		c0.034-42.324,0.021-84.655,0-126.979c0-2.093-0.174-4.185-0.282-6.444H229V462.371z"/>
	<path fill="#78C8A8" d="M274.666,118.283c0-34.248,0.099-68.505-0.104-102.754c-0.027-5.12,1.335-6.754,6.62-6.734
		c52.357,0.184,104.721,0.029,157.083,0.14c32.067,0.073,54.872,22.419,55.042,54.472c0.278,52.758,0.027,105.514,0.166,158.263
		c0.016,4.713-1.545,6.041-6.129,6.033c-68.897-0.112-137.797-0.12-206.693,0.008c-4.649,0.005-6.089-1.421-6.075-6.081
		C274.744,187.181,274.674,152.736,274.666,118.283 M463.457,197.616c0.113-2.45,0.289-4.563,0.289-6.67
		c0.015-42.136-0.377-84.269,0.219-126.396c0.21-15.081-10.295-26.464-26.395-26.223c-42.114,0.623-84.244,0.201-126.381,0.225
		c-2.091,0-4.19,0.174-6.486,0.28v158.783H463.457z"/>
	<g>
		<path fill="none" d="M280.612,227.71l0.021-6.656c-0.006-0.007-0.016-0.015-0.021-0.022V227.71z"/>
		<path fill="none" d="M236.19,455.51l74.909,0.023l51.627-0.023c12.573-0.013,18.185-5.693,18.191-18.415
			c0.036-42.077,0.022-84.164,0-126.234H236.19V455.51z"/>
		<path fill="none" d="M410.561,280.816c-0.183,0-0.377,0-0.575,0H221.475l-0.008-51.888c-0.014-45.741-0.021-91.484,0.126-137.228
			c0-0.034,0-0.07,0-0.098c-51.71,0.217-103.268,0.076-154.838,0.195c-5.567,0.009-10.208,0.465-14.189,1.393
			c-22.159,5.194-35.394,23.062-35.408,47.798c-0.049,98.656-0.042,197.302,0.049,295.948c0,4.742,0.471,9.087,1.397,12.942
			c5.252,22.075,23.185,35.253,47.969,35.266l107.915,0.017c62.277,0,124.571-0.017,186.847-0.071c5.315,0,9.761-0.43,13.606-1.32
			c21.928-5.055,35.57-23.079,35.599-47.034c0.048-36.687,0.044-73.363,0.029-110.05l-0.009-45.308
			C410.561,281.182,410.561,280.998,410.561,280.816z M32.401,140.371c0.013-21.504,11.795-33.363,33.16-33.377l51.374-0.02
			l75.619,0.02c1.453,0,2.9,0.097,4.494,0.209l8.847,0.526v172.68H33.026l-0.442-8.959c-0.092-1.595-0.183-3.14-0.183-4.675
			l-0.008-14.093C32.38,215.246,32.374,177.809,32.401,140.371z M202.931,466.583c-3.04,3.046-7.042,3.439-10.195,3.439
			c-22.847-0.11-45.49-0.135-68.139-0.135l-39.186,0.011l-20.418-0.011c-20.389-0.013-32.579-12.256-32.591-32.745
			c-0.028-30.787-0.021-61.566-0.015-92.35V296.39h173.122l0.491,8.701c0.105,1.57,0.211,3.137,0.211,4.704v37.279
			c-0.007,36.394-0.021,72.778,0.133,109.165C206.357,459.45,205.978,463.523,202.931,466.583z M395.295,437.102
			c-0.004,20.516-12.18,32.773-32.556,32.786l-51.64,0.024l-75.949-0.024c-1.46,0-2.921-0.098-4.528-0.21l-8.812-0.519V296.482
			h172.876l0.428,8.853c0.1,1.636,0.18,3.208,0.18,4.78C395.317,352.439,395.333,394.771,395.295,437.102z"/>
		<path fill="none" d="M191.831,310.771H46.766v34.021c-0.006,30.783-0.014,61.556,0.015,92.336
			c0.013,12.7,5.63,18.368,18.226,18.381l39.992,0.008l19.598-0.008c22.453,0,44.906,0.023,67.367,0.135
			c-0.155-36.194-0.14-72.383-0.132-108.576V310.771z"/>
		<path fill="none" d="M191.515,266.028V121.375l-74.58-0.024l-51.359,0.024c-13.34,0.013-18.782,5.517-18.795,19.01
			c-0.028,37.433-0.021,74.861-0.008,112.29l0.008,13.354H191.515z"/>
		<path fill="none" d="M486.115,63.44c-0.145-27.796-19.828-47.253-47.863-47.314c-18.113-0.041-36.221-0.051-54.331-0.051
			l-30.147,0.01c-24.005,0-48.019-0.016-72.021-0.1c0.153,25.69,0.132,51.38,0.118,77.07l-0.014,25.228l0.007,21.645
			c0.021,26.865,0.033,53.727-0.093,80.59c68.157-0.132,136.316-0.125,204.512-0.004c-0.053-21.997-0.047-43.989-0.032-65.979
			C486.263,124.167,486.278,93.809,486.115,63.44z M470.881,154.084c0.025,12.288,0.063,24.575,0.056,36.862
			c0,1.567-0.084,3.131-0.183,4.817l-0.429,9.041H297.514V31.965l8.908-0.427c1.638-0.093,3.203-0.175,4.768-0.175h3.141
			c11.479,0,22.956,0.026,34.438,0.054c29.58,0.095,59.146,0.156,88.698-0.279c0.007,0,0.016,0,0.02,0
			c9.979,0,18.462,3.362,24.478,9.465c6.06,6.141,9.324,14.687,9.19,24.046C470.731,94.439,470.81,124.764,470.881,154.084z"/>
		<path fill="none" d="M451.726,50.696c-3.349-3.388-8.073-5.188-13.656-5.188c-30.282,0.449-59.684,0.381-89.336,0.289
			C337.27,45.768,325.8,45.74,314.33,45.74h-2.438v144.688h144.663c0-12.104-0.026-24.209-0.052-36.309
			c-0.073-29.383-0.149-59.765,0.272-89.674C456.851,58.961,455.054,54.081,451.726,50.696z"/>
		<path fill="#78C8A8" d="M32.584,271.45l0.442,8.959h172.869v-172.68l-8.847-0.526c-1.593-0.112-3.041-0.209-4.494-0.209
			l-75.619-0.02l-51.374,0.02c-21.365,0.014-33.147,11.873-33.16,33.377c-0.028,37.438-0.021,74.875-0.008,112.312l0.008,14.093
			C32.401,268.311,32.492,269.855,32.584,271.45z M46.781,140.385c0.013-13.493,5.456-18.997,18.795-19.01l51.359-0.024l74.58,0.024
			v144.653H46.781l-0.008-13.354C46.76,215.246,46.752,177.817,46.781,140.385z"/>
		<path fill="#78C8A8" d="M206.21,309.795c0-1.567-0.105-3.134-0.211-4.704l-0.491-8.701H32.387v48.403
			c-0.007,30.783-0.013,61.563,0.015,92.35c0.013,20.489,12.203,32.732,32.591,32.745l20.418,0.011l39.186-0.011
			c22.649,0,45.292,0.024,68.139,0.135c3.152,0,7.155-0.394,10.195-3.439c3.047-3.06,3.427-7.133,3.413-10.344
			c-0.155-36.387-0.14-72.771-0.133-109.165V309.795z M124.597,455.51l-19.598,0.008l-39.992-0.008
			c-12.596-0.013-18.213-5.681-18.226-18.381c-0.028-30.78-0.021-61.553-0.015-92.336v-34.021h145.065v36.297
			c-0.008,36.193-0.022,72.382,0.132,108.576C169.503,455.533,147.05,455.51,124.597,455.51z"/>
		<path fill="#78C8A8" d="M409.985,266.436H235.854l-0.006-37.507c-0.015-45.727-0.022-91.457,0.125-137.18
			c0.015-3.389-0.385-7.686-3.588-10.903c-3.201-3.208-7.436-3.622-10.903-3.622c-51.585,0.22-103.205,0.071-154.747,0.197
			c-6.669,0.007-12.378,0.591-17.448,1.769C20.62,85.917,2.792,109.592,2.778,140.976c-0.048,98.67-0.042,197.315,0.05,295.973
			c0,5.86,0.603,11.336,1.79,16.274c6.79,28.547,30.528,46.291,61.948,46.305l107.922,0.013c62.285,0,124.577-0.013,186.854-0.07
			c6.412,0,11.917-0.554,16.831-1.685c28.359-6.545,46.703-30.501,46.749-61.036c0.047-36.684,0.04-73.376,0.025-110.063
			l-0.009-45.308C424.938,269.646,421.725,266.436,409.985,266.436z M410.54,436.736c-0.028,23.955-13.671,41.979-35.599,47.034
			c-3.846,0.891-8.291,1.32-13.606,1.32c-62.275,0.055-124.569,0.071-186.847,0.071l-107.915-0.017
			c-24.785-0.013-42.717-13.19-47.969-35.266c-0.927-3.855-1.397-8.2-1.397-12.942c-0.091-98.646-0.098-197.292-0.049-295.948
			c0.014-24.736,13.249-42.604,35.408-47.798c3.981-0.928,8.623-1.384,14.189-1.393c51.571-0.119,103.128,0.021,154.838-0.195
			c0,0.027,0,0.063,0,0.098c-0.147,45.743-0.14,91.486-0.126,137.228l0.008,51.888h188.511c0.198,0,0.393,0,0.575,0
			c0,0.182,0,0.365,0,0.563l0.009,45.308C410.584,363.373,410.588,400.05,410.54,436.736z"/>
		<path fill="#78C8A8" d="M394.688,296.482H221.811v172.677l8.812,0.519c1.606,0.112,3.067,0.21,4.528,0.21l75.949,0.024
			l51.64-0.024c20.376-0.013,32.552-12.271,32.556-32.786c0.038-42.331,0.022-84.662,0-126.986c0-1.572-0.08-3.145-0.18-4.78
			L394.688,296.482z M380.918,437.095c-0.007,12.722-5.618,18.402-18.191,18.415l-51.627,0.023l-74.909-0.023V310.86h144.728
			C380.94,352.931,380.954,395.018,380.918,437.095z"/>
		<path fill="#78C8A8" d="M500.631,154.54c0.014-30.396,0.026-60.78-0.135-91.168c-0.191-35.633-26.353-61.55-62.215-61.626
			c-18.123-0.04-36.237-0.048-54.36-0.048l-30.147,0.008c-24.187,0-48.382-0.016-72.69-0.1c-2.906,0-7.126,0.365-10.249,3.513
			c-3.104,3.114-3.484,7.225-3.462,10.451c0.155,25.824,0.133,51.649,0.117,77.472l-0.013,25.241l0.007,21.654
			c0.021,27.221,0.036,54.443-0.099,81.67c-0.006,2.78,0.33,6.824,3.385,9.887c3.04,3.052,7.078,3.403,9.843,3.403h0.051
			c68.884-0.127,137.72-0.118,206.717-0.006c2.787,0,6.854-0.352,9.898-3.412c3.048-3.062,3.392-7.076,3.386-9.829
			C500.606,199.282,500.615,176.911,500.631,154.54z M280.612,227.71v-6.679c0.006,0.008,0.016,0.016,0.021,0.022L280.612,227.71z
			 M281.771,220.518c0.126-26.863,0.113-53.725,0.093-80.59l-0.007-21.645l0.014-25.228c0.014-25.69,0.035-51.38-0.118-77.07
			c24.003,0.084,48.017,0.1,72.021,0.1l30.147-0.01c18.11,0,36.218,0.01,54.331,0.051c28.035,0.062,47.719,19.519,47.863,47.314
			c0.163,30.368,0.147,60.727,0.135,91.094c-0.015,21.99-0.021,43.982,0.032,65.979
			C418.087,220.393,349.928,220.386,281.771,220.518z"/>
		<path fill="#78C8A8" d="M461.963,40.603c-6.016-6.103-14.499-9.465-24.478-9.465c-0.004,0-0.013,0-0.02,0
			c-29.552,0.436-59.118,0.374-88.698,0.279c-11.481-0.027-22.959-0.054-34.438-0.054h-3.141c-1.564,0-3.13,0.082-4.768,0.175
			l-8.908,0.427v172.84h172.812l0.429-9.041c0.099-1.687,0.183-3.25,0.183-4.817c0.007-12.287-0.03-24.574-0.056-36.862
			c-0.071-29.32-0.149-59.645,0.272-89.436C471.287,55.289,468.022,46.743,461.963,40.603z M456.503,154.119
			c0.025,12.1,0.052,24.204,0.052,36.309H311.892V45.74h2.438c11.47,0,22.939,0.027,34.403,0.057
			c29.652,0.092,59.054,0.16,89.336-0.289c5.583,0,10.308,1.801,13.656,5.188c3.328,3.385,5.125,8.265,5.05,13.749
			C456.354,94.354,456.43,124.736,456.503,154.119z"/>
	</g>
</g>
</svg>
