<?xml version="1.0" encoding="utf-8"?>
<!-- Generator: Adobe Illustrator 16.0.0, SVG Export Plug-In . SVG Version: 6.00 Build 0)  -->
<!DOCTYPE svg PUBLIC "-//W3C//DTD SVG 1.1//EN" "http://www.w3.org/Graphics/SVG/1.1/DTD/svg11.dtd">
<svg version="1.1" id="Layer_1" xmlns="http://www.w3.org/2000/svg" xmlns:xlink="http://www.w3.org/1999/xlink" x="0px" y="0px"
	 width="500px" height="500px" viewBox="0 0 500 500" enable-background="new 0 0 500 500" xml:space="preserve">
<g>
	<path fill="#275E79" d="M458.513,432.582h-167.84c-4.882-22.179,2.795-36.61,23.416-43.473c8.349-2.794,16.837-5.128,25.185-7.923
		c15.918-5.341,19.667-19.172,9.126-32.046c-16.129-19.667-21.222-42.729-18.216-67.207c2.864-22.284,24.017-38.095,47.009-36.927
		c23.35,1.166,41.815,20.203,42.27,43.578c0.354,22.709-4.775,44.108-20.268,61.971c-6.978,7.356-6.669,18.976,0.688,25.953
		c2.107,2,4.661,3.469,7.447,4.29c8.701,3.078,17.687,5.412,26.387,8.313C454.479,395.937,462.12,408.989,458.513,432.582z"/>
	<path fill="#275E79" d="M56.301,432.335c-2.37-26,4.704-36.611,28.297-44.215c7.074-2.299,14.396-4.564,21.506-7.075
		c15.846-5.376,19.313-19.065,8.913-32.188c-16.111-19.367-22.612-44.976-17.686-69.683c4.528-21.965,25.007-36.115,47.788-34.275
		c21.353,1.855,38.378,18.614,40.572,39.935c1.768,24.229-3.538,46.69-19.738,65.72c-6.861,7.596-6.265,19.317,1.332,26.178
		c1.681,1.519,3.629,2.717,5.743,3.534c8.63,3.254,17.686,5.518,26.387,8.312c22.037,7.075,29.5,19.525,25.714,43.756H56.301z"/>
	<path fill="#275E79" d="M326.61,165.631l8.914,24.194c-0.778,0-1.662,0.283-2.122,0c-16.968-12.711-37.275-20.198-58.435-21.541
		c-13.476-0.955-28.085-9.056-38.907-17.686c-23.806-19.03-23.064-50.723-0.497-71.273c29.358-27.272,84.08-26.813,113.19,0.53
		c21.717,20.374,21.506,51.006-0.885,70.743C341.058,155.987,333.961,161.005,326.61,165.631z"/>
	<path fill="#275E79" d="M189.086,203.762c-24.761-13.052-42.446-29.358-37.707-58.787c3.537-22.179,25.998-39.864,54.33-44.675
		c-3.713,55.109,31.022,75.235,78.879,84.184c-13.008,15.134-31.899,23.937-51.854,24.159c-14.593-0.449-28.855,4.401-40.147,13.654
		c-4.235,2.95-8.668,5.609-13.264,7.958L189.086,203.762z"/>
</g>
</svg>
