<?xml version="1.0" encoding="utf-8"?>
<!-- Generator: Adobe Illustrator 16.0.0, SVG Export Plug-In . SVG Version: 6.00 Build 0)  -->
<!DOCTYPE svg PUBLIC "-//W3C//DTD SVG 1.1//EN" "http://www.w3.org/Graphics/SVG/1.1/DTD/svg11.dtd">
<svg version="1.1" id="Layer_1" xmlns="http://www.w3.org/2000/svg" xmlns:xlink="http://www.w3.org/1999/xlink" x="0px" y="0px"
	 width="500px" height="500px" viewBox="0 0 500 500" enable-background="new 0 0 500 500" xml:space="preserve">
<g>
	<path fill="#275E79" d="M298.912,322.852c-64.266,47.004-150.37,28.009-192.568-29.973
		c-44.767-61.623-31.101-147.871,30.523-192.638c50.454-36.651,119.225-34.887,167.732,4.307
		c56.54,46.437,67.19,128.848,24.313,188.132c3.384,2.844,6.796,5.688,10.237,8.53c25.365,21.186,50.843,42.256,76.066,63.64
		c9.663,7.753,13.369,20.767,9.241,32.447c-3.06,11.85-13.116,20.584-25.279,21.951c-12.284,1.906-22.095-2.645-30.028-12.256
		c-22.379-27.1-44.986-54.028-67.479-81.041C300.817,324.954,299.908,323.96,298.912,322.852z M328.855,211.325
		c-0.341-62.702-50.161-111.526-113.459-111.186c-60.199,0.313-109.507,51.186-109.137,112.606
		c0.384,61.469,50.526,110.986,111.995,110.603c61.469-0.385,110.986-50.526,110.602-111.996V211.325z"/>
	<path fill="#275E79" d="M215.936,216.813l-29.886-31.507l-19.678,17.062c-5.004,4.322-9.981,8.73-15.071,12.995
		c-2.647,2.457-6.784,2.305-9.241-0.341c-2.404-2.611-2.235-6.678,0.377-9.081c0.125-0.115,0.256-0.226,0.391-0.33
		c14.427-12.551,28.881-25.063,43.365-37.537c0.28-0.177,0.574-0.33,0.881-0.455l30.142,31.735l25.592-20.076
		c9.574-7.487,19.147-14.977,28.721-22.465c2.072-2.112,5.248-2.692,7.934-1.45c3.208,1.556,4.547,5.418,2.991,8.626
		c-0.516,1.063-1.314,1.965-2.308,2.606c-5.943,4.777-12,9.412-18,14.218L215.936,216.813z"/>
	<path fill="#275E79" d="M286.201,230.121c0,10.492,0,21.014,0,31.507c0.011,4.496-3.264,8.325-7.706,9.014
		c-4.398,0.89-8.8-1.509-10.436-5.688c-0.484-1.35-0.725-2.774-0.711-4.207c0-20.455,0-40.911,0-61.364
		c-0.328-5.221,3.637-9.719,8.856-10.046c5.219-0.328,9.716,3.637,10.044,8.856c0.031,0.481,0.023,0.965-0.019,1.444
		c0,10.18,0,20.331,0,30.513L286.201,230.121z"/>
	<path fill="#275E79" d="M195.945,241.268c0,6.513,0,13.053,0,19.565c0.063,5.213-4.113,9.491-9.327,9.554
		c-5.214,0.063-9.492-4.114-9.555-9.327c-0.094-13.271-0.094-26.541,0-39.811c-0.405-5.214,3.494-9.769,8.708-10.174
		c5.215-0.404,9.769,3.494,10.174,8.707c0.038,0.488,0.038,0.979,0,1.467c0,6.626,0,13.251,0,19.905V241.268z"/>
	<path fill="#275E79" d="M237.092,241.751c0-6.198,0-12.369,0-18.568c0-6.198,3.839-10.379,9.555-10.379
		c5.715,0,9.611,4.065,9.611,10.352c0,12.378,0,24.748,0,37.107c0,6.285-3.839,10.409-9.526,10.409s-9.526-4.124-9.583-10.38
		C237.092,254.035,237.092,247.922,237.092,241.751z"/>
	<path fill="#275E79" d="M226.173,250.852c0,3.297,0,6.625,0,9.925c0.198,5.256-3.904,9.679-9.161,9.876
		c-5.257,0.198-9.681-3.903-9.878-9.16c-0.013-0.334-0.008-0.668,0.015-1.002c0-6.625,0-13.251,0-19.905
		c-0.288-5.253,3.738-9.744,8.991-10.032c5.253-0.286,9.745,3.738,10.032,8.991c0.019,0.348,0.019,0.695,0,1.041
		C226.173,243.998,226.173,247.438,226.173,250.852z"/>
	<path fill="#275E79" d="M165.945,251.705c0,3.212,0,6.396,0,9.609c0.017,5.119-4.094,9.293-9.213,9.357
		c-5.046,0.333-9.407-3.487-9.741-8.532c-0.005-0.076-0.009-0.151-0.012-0.228c-0.313-6.824-0.285-13.706,0-20.531
		c0.256-5.065,4.572-8.964,9.637-8.707c0.039,0.003,0.077,0.004,0.116,0.006c5.119,0.094,9.205,4.295,9.156,9.412
		C166.031,245.306,165.945,248.52,165.945,251.705z"/>
</g>
</svg>
