<?xml version="1.0" encoding="utf-8"?>
<!-- Generator: Adobe Illustrator 16.0.0, SVG Export Plug-In . SVG Version: 6.00 Build 0)  -->
<!DOCTYPE svg PUBLIC "-//W3C//DTD SVG 1.1//EN" "http://www.w3.org/Graphics/SVG/1.1/DTD/svg11.dtd">
<svg version="1.1" id="Layer_1" xmlns="http://www.w3.org/2000/svg" xmlns:xlink="http://www.w3.org/1999/xlink" x="0px" y="0px"
	 width="500px" height="500px" viewBox="0 0 500 500" enable-background="new 0 0 500 500" xml:space="preserve">
<g>
	<path fill="#275E79" d="M340.926,273.596c0,52.038,0,104.09,0,156.154h70.85c0-97.345,0-194.689,0-292.034
		c0.25-1.606-0.602-3.183-2.082-3.855c-2.775,2.93-5.589,5.975-8.479,8.982c-16.91,17.525-33.846,35.04-50.807,52.54
		c-2.582,2.66-5.318,5.127-8.055,7.709c-0.928,0.752-1.454,1.89-1.427,3.083C340.926,228.61,340.926,251.084,340.926,273.596z"/>
	<path fill="#275E79" d="M246.985,429.75h70.813c0-67.252,0-134.503,0-201.756v-2.544l-10.986,8.866
		c-18.656,15.599-38.007,30.259-58.051,43.982c-1.195,0.71-1.872,2.047-1.735,3.43C247.05,331.068,247.038,380.41,246.985,429.75z"
		/>
	<path fill="#275E79" d="M223.627,429.75c0-43.892,0-87.772,0-131.638v-3.278c-0.772,0.424-1.312,0.655-1.774,0.926
		c-21.592,13.285-44.037,25.131-67.188,35.463c-1.029,0.295-1.696,1.288-1.581,2.352c0,32.045,0,64.092,0,96.136L223.627,429.75z"/>
	<path fill="#275E79" d="M58.913,394.711c0,11.565,0,23.359,0,35.039h70.542c0-28.409,0-56.818,0-85.228v-2.892
		c-3.468,1.272-6.668,2.506-9.944,3.624c-16.188,5.644-32.657,10.442-49.34,14.378c-3.079,0.657-6.194,1.119-9.33,1.388
		c-1.464,0-1.928,0.539-1.889,2.043C58.953,373.625,58.913,384.188,58.913,394.711z"/>
	<path fill="#275E79" d="M450.939,67.753c-1.079,5.242-2.196,10.484-3.199,15.728c-3.007,15.419-5.976,31.185-8.982,46.758
		c-0.25,3.568-3.347,6.256-6.914,6.006c-1.685-0.119-3.256-0.891-4.38-2.152c-5.589-5.011-11.372-9.829-17.153-14.764l-2.121-1.811
		c-8.172,9.213-16.151,18.387-24.324,27.33c-45.378,50.473-97.042,94.921-153.726,132.255
		c-38.039,25.169-79.093,45.451-122.195,60.365c-15.785,5.456-31.974,9.669-48.415,12.606l-3.392,0.499
		c-3.855,0.464-5.898-0.692-8.057-4.778v-3.238c1.429-3.08,4.506-5.062,7.901-5.089c22.008-3.698,43.551-9.758,64.259-18.079
		c45.541-17.904,88.611-41.544,128.169-70.348c42.27-30.427,81.407-64.98,116.837-103.152
		c10.872-11.564,21.279-23.668,31.879-35.541c0.386-0.424,0.731-0.925,1.195-1.543L387.529,99.4
		c-2.544-2.197-5.088-4.395-7.708-6.591c-2.902-2.128-3.529-6.205-1.402-9.106c0.892-1.216,2.177-2.084,3.637-2.458l59.093-20.739
		c0.605-0.238,1.197-0.509,1.773-0.809h3.238c2.172,0.917,3.901,2.646,4.818,4.818L450.939,67.753z"/>
	<path fill="#275E79" d="M450.939,64.515c-0.926-2.179-2.67-3.909-4.857-4.818h4.818L450.939,64.515z"/>
	<path fill="#275E79" d="M150.81,106.995c0-4.241,0-8.481,0-12.682c-0.211-3.08,2.113-5.749,5.192-5.961
		c0.86-0.059,1.723,0.081,2.519,0.411c2.139,0.822,3.517,2.914,3.43,5.204c0,3.623,0,7.246,0,10.87c0,0.732,0,1.465,0,2.004
		c4.586,1.002,9.059,1.581,13.298,2.93c12.319,3.65,21.717,13.652,24.594,26.174c1.799,6.13-1.712,12.559-7.844,14.358
		c-6.131,1.799-12.561-1.713-14.359-7.844c-0.462-1.311-0.809-2.699-1.272-3.854c-2.175-6.183-7.175-10.954-13.453-12.837
		c-0.32-0.027-0.644-0.027-0.964,0c0,0.771,0,1.427,0,2.082c0,11.294,0,22.55,0,33.844c-0.221,1.28,0.636,2.497,1.916,2.718
		c0.042,0.008,0.084,0.014,0.127,0.019c6.263,1.684,12.428,3.716,18.464,6.091c15.205,6.386,24.197,22.217,21.895,38.547
		c-1.772,16.768-12.835,31.185-33.651,35.656c-2.42,0.521-4.864,0.92-7.325,1.195c-1.156,0-1.426,0.578-1.426,1.657
		c0,3.855,0,7.709,0,11.295c0.365,3.108-1.859,5.923-4.968,6.287c-3.108,0.366-5.924-1.86-6.289-4.968
		c-0.051-0.438-0.051-0.882,0-1.319c0-4.164,0-8.327,0-12.412c-4.046-0.848-8.055-1.388-11.873-2.545
		c-13.433-3.521-24.292-13.4-29.064-26.443c-1.391-3.511-1.932-7.303-1.581-11.063c0.772-5.588,5.358-9.868,10.986-10.254
		c5.34-0.689,10.401,2.567,11.988,7.711c1.311,3.855,2.506,7.517,4.164,11.062c2.975,6.313,8.64,10.945,15.418,12.606
		c0-0.887,0-1.58,0-2.235c0-12.876,0-25.789,0-38.548c0-1.541-0.423-2.196-1.927-2.621c-7.283-1.965-14.263-4.921-20.74-8.789
		c-9.526-5.38-15.614-15.283-16.112-26.212c-0.71-6.691,0.229-13.454,2.736-19.698c4.518-10.355,13.793-17.863,24.864-20.121
		C143.14,108.343,146.878,107.804,150.81,106.995z M162.375,187.018v40.822c8.287-1.657,14.995-5.243,18.309-13.261
		c4.004-8.282,0.711-18.247-7.44-22.512c-3.546-1.773-7.13-3.238-11.024-5.165L162.375,187.018z M150.734,125.228
		c-9.406,2.158-16.537,8.017-16.19,17.538c0.55,8.876,7.361,16.091,16.19,17.154V125.228z"/>
</g>
</svg>
