<?xml version="1.0" encoding="utf-8"?>
<!-- Generator: Adobe Illustrator 16.0.0, SVG Export Plug-In . SVG Version: 6.00 Build 0)  -->
<!DOCTYPE svg PUBLIC "-//W3C//DTD SVG 1.1//EN" "http://www.w3.org/Graphics/SVG/1.1/DTD/svg11.dtd">
<svg version="1.1" id="Layer_1" xmlns="http://www.w3.org/2000/svg" xmlns:xlink="http://www.w3.org/1999/xlink" x="0px" y="0px"
	 width="500px" height="500px" viewBox="0 0 500 500" enable-background="new 0 0 500 500" xml:space="preserve">
<g>
	<path fill="#275E79" d="M272.028,60.775c15.562,3.375,31.662,5.604,46.649,10.869c53.163,18.7,90.226,54.885,111.796,106.936
		c1.012,2.396,1.653,4.962,2.7,8.067l-20.659,7.224C372.011,107.728,306.256,68.572,211.741,91.593
		c-65.888,16.067-104.64,73.417-112.504,120.133h23.83l-37.13,45.097l-36.691-44.321h24.573
		c5.501-28.849,17.776-55.979,35.814-79.154c32.64-41.181,74.901-65.315,127.357-71.021c2.277-0.385,4.532-0.904,6.751-1.553
		H272.028z"/>
	<path fill="#275E79" d="M76.993,293.48l22.446-6.008c14.919,49.822,45.3,86.243,92.725,107.476
		c30.716,13.721,65.014,17.27,97.889,10.126c73.113-15.189,116.994-75.003,124.893-124.116h-23.629l36.862-44.895l36.454,44.118
		h-24.168c-11.545,53.199-39.257,94.514-84.859,123.442c-31.75,20.487-69.221,30.28-106.936,27.949
		C165.026,426.677,98.292,372.568,76.993,293.48z"/>
	<path fill="#275E79" d="M297.175,177.533c1.351-1.891,2.667-5.502,5.199-6.954c3.858-2.394,8.258-3.775,12.792-4.017
		c7.526,0,26.16,18.903,25.452,26.261c-0.888,5.292-3.225,10.234-6.752,14.279c-3.375,4.05-4.691,6.751-2.734,12.252
		c1.959,5.503,5.706,4.793,9.688,4.895c10.937,0.271,16.675,5.874,17.112,16.877c0,3.375,0,6.447,0,9.688
		c0,18.126-3.373,21.333-21.702,23.257c-3.443,0.271-6.818,4.962-10.973,8.135c3.378,3.814,5.706,6.075,7.798,8.438
		c6.088,5.935,6.212,15.68,0.277,21.767c-0.091,0.093-0.184,0.185-0.277,0.275c-3.644,4.118-7.864,8-11.914,11.781
		c-8.607,8.135-15.763,8.034-24.405-0.406c-3.375-3.172-5.671-7.257-11.646-4.286c-3.892,1.166-6.438,4.895-6.108,8.945
		c0,12.961-4.996,17.755-18.058,18.159c-4.693,0-9.385,0.203-14.077,0c-11.813-0.641-16.877-5.94-16.877-17.721
		c0-5.165,0-9.046-6.178-11.646c-6.178-2.599-7.831,1.52-10.802,4.288c-7.426,6.751-15.223,6.987-22.614,0.168
		c-4.085-3.78-7.967-7.797-11.781-11.848c-7.662-8.169-7.461-15.494,0.473-23.628c3.104-3.375,7.358-5.536,4.354-11.68
		c-2.06-4.186-3.713-6.312-8.811-6.278c-13.265,0-18.328-5.401-18.497-18.734c0-2.937,0-5.874,0-8.81
		c0-16.27,4.488-21.232,20.556-21.3c5.199,0,6.752-2.531,9.048-6.312c2.801-4.759-0.305-6.751-2.903-9.552
		c-8.608-9.114-8.54-16.135,0-25.046c2.633-2.734,5.333-5.468,8.033-8.135c11.174-10.937,16.877-11.105,28.05,0
		c2.45,3.323,6.981,4.319,10.6,2.329c3.63-1.082,5.926-4.654,5.401-8.406c0-13.5,5.029-18.328,18.632-18.564
		c4.996,0,10.128-0.237,14.953,0c10.362,0.675,15.358,5.974,15.696,16.202C284.517,172.436,284.652,172.402,297.175,177.533z
		 M327.555,300.84c-14.074-7.933-16.202-17.891-7.798-31.19c3.377-5.367,5.874-8.405,12.489-8.27
		c15.189,0.27,13.502,2.228,13.704-13.333c0-12.692,0-12.961-12.994-12.658c-6.145,0-8.676-2.093-11.512-7.696
		c-6.548-12.928-5.198-22.919,6.987-31.088c0.447-0.406,0.764-0.935,0.912-1.519l-16.877-19.072
		c-7.832,8.574-13.3,16.237-27.883,9.924c-15.121-6.549-10.868-17.586-12.894-28.354c-4.052,0-7.494,0-10.937,0
		c-14.683,0.203-14.853-2.498-14.514,13.772c0,5.4-1.959,7.527-6.955,10.125c-13.029,6.751-23.393,6.211-31.898-6.548
		c-0.438-0.642-1.451-0.877-2.667-1.553l-20.253,17.181c5.976,5.064,9.52,7.696,12.625,10.802c1.52,1.52,3.377,4.355,3.038,5.806
		c-2.145,7.515-5.324,14.695-9.451,21.333c-1.856,2.599-8.642,2.463-13.13,2.194c-7.225-0.439-10.498,1.857-9.317,9.316
		c0.114,1.46,0.114,2.928,0,4.388c0,12.32,0,11.949,12.085,12.759c3.713,0.236,9.046,2.127,10.531,4.895
		c6.413,11.881,11.038,24.27-4.727,33.35c-0.878,0.506-1.281,1.823-1.923,2.768l-1.857,2.295c3.721,2.338,7.273,4.933,10.633,7.764
		c8.777,8.405,8.946,8.811,17.316-0.337c4.827-5.3,9.183-6.481,15.056-2.295c1.845,1.44,3.972,2.475,6.244,3.038
		c8.945,1.654,10.836,7.393,10.126,15.425c-0.271,3.376,0.438,9.553,1.451,9.722c7.108,1.252,14.355,1.514,21.536,0.777
		c1.553-0.203,3.375-6.751,3.141-10.464c-0.677-8.27,2.227-12.59,10.531-13.873c3.373-0.541,6.312-3.376,9.653-3.882
		c2.968-0.533,6.028,0.069,8.573,1.688c13.806,11.24,13.704,11.375,26.262-1.586c1.148-1.283,2.193-2.634,4.658-5.604H327.555z"/>
	<path fill="#275E79" d="M256.637,203.018c23.48-0.56,42.972,18.022,43.532,41.505c0.013,0.465,0.015,0.932,0.01,1.397
		c0.794,23.923-17.957,43.96-41.88,44.753c-23.925,0.793-43.96-17.958-44.754-41.881c-0.025-0.789-0.032-1.577-0.014-2.366
		c-0.506-23.465,18.105-42.897,41.571-43.403C255.613,203.012,256.125,203.011,256.637,203.018z M256.637,277.684
		c17.55,0.472,32.162-13.369,32.64-30.919c-0.231-17.813-14.527-32.242-32.337-32.641c-17.517,0.283-31.7,14.317-32.168,31.831
		c0,17.523,14.205,31.729,31.729,31.729C256.546,277.684,256.591,277.684,256.637,277.684z"/>
</g>
</svg>
