<?xml version="1.0" encoding="utf-8"?>
<!-- Generator: Adobe Illustrator 16.0.0, SVG Export Plug-In . SVG Version: 6.00 Build 0)  -->
<!DOCTYPE svg PUBLIC "-//W3C//DTD SVG 1.1//EN" "http://www.w3.org/Graphics/SVG/1.1/DTD/svg11.dtd">
<svg version="1.1" id="Layer_1" xmlns="http://www.w3.org/2000/svg" xmlns:xlink="http://www.w3.org/1999/xlink" x="0px" y="0px"
	 width="500px" height="500px" viewBox="0 0 500 500" enable-background="new 0 0 500 500" xml:space="preserve">
<g>
	<path fill="#275E79" d="M250.279,153.075c6.592-6.592,12.196-12.03,17.667-17.766c0.867-1.234,1.317-2.712,1.286-4.219
		c0.261-11.349,5.085-22.115,13.382-29.862c5.34-5.01,10.284-10.416,15.59-15.458c16.448-16.638,43.268-16.793,59.906-0.346
		s16.793,43.268,0.346,59.906c-5.735,6.131-11.799,11.998-17.798,17.864c-7.201,7.04-16.827,11.051-26.896,11.207
		c-1.641-0.002-3.238,0.53-4.549,1.516c-5.768,5.438-11.338,11.075-17.304,17.007c5.076,5.142,9.888,10.218,14.931,14.899
		c1.121,1.021,3.527,0.824,5.339,0.824H437v219.417H65.7V208.712h159.661c-1.616-1.813-2.406-2.867-3.297-3.79
		c-9.063-8.999-18.062-18.062-27.291-26.864c-1.792-1.554-4.031-2.5-6.395-2.702c-9.574-0.328-18.717-4.069-25.775-10.547
		c-6.591-6.395-13.185-12.789-19.414-19.546c-11.606-12.672-14.226-31.177-6.593-46.573c7.058-15.559,22.997-25.135,40.048-24.061
		c9.614,0.067,18.852,3.75,25.874,10.316c7.153,6.593,14.106,13.647,20.831,20.766c6.724,7.12,8.998,16.085,9.889,25.577
		c0.352,2.357,1.37,4.563,2.933,6.361C240.688,142.957,245.467,147.769,250.279,153.075z M242.632,225.588h-5.999
		c-34.412,0-68.822,0.33-103.2-0.198c-9.888,0-15.26,3.56-18.358,12.195c-0.462,1.319-1.088,2.571-1.615,3.857
		c-2.599,6.614-7.918,11.789-14.601,14.206c-3.758,1.45-7.417,3.296-11.141,4.713c-3.745,1.173-6.088,4.884-5.537,8.768
		c0.197,29.665,0,59.164,0,88.73c0,17.105,0,17.205,16.282,23.071c6.642,2.033,11.971,7.021,14.437,13.515
		c0.825,2.176,2.011,4.219,2.801,6.395c2.934,7.91,8.505,10.811,16.976,10.712c35.037-0.297,70.041,0,105.077,0
		c1.517,0,3.033,0,4.682-0.197v-8.637c-40.641-6.592-63.449-40.738-66.877-74.063c-2.538-20.904,2.389-42.031,13.909-59.657
		c11.72-18.873,31.227-31.556,53.231-34.609L242.632,225.588z M259.838,411.321h103.198c18.854,0,18.919,0,26.567-17.272
		c2.486-6.12,7.369-10.956,13.514-13.381c3.89-1.55,7.679-3.296,11.569-4.911c3.694-1.201,6.063-4.801,5.702-8.669
		c-0.231-32.203-0.263-64.438,0-96.641c0-5.702-1.944-8.932-6.955-10.415c-13.678-4.087-23.797-11.8-27.752-26.138
		c-0.131-0.276-0.284-0.541-0.462-0.791c-2.198-4.812-7.189-7.716-12.458-7.251c-14.635,0-29.269,0-43.904,0
		c-1.121,0-2.274,0.23-4.317,0.428c10.118,9.889,19.776,19.381,29.104,28.874c8.882,8.435,14.33,19.857,15.293,32.07
		c0.857,14.568,0.692,29.236,0.792,43.837c0.222,3.571-1.92,6.865-5.274,8.108c-3.424,1.512-7.433,0.616-9.888-2.208
		c-7.823-7.801-15.667-15.579-23.534-23.336c-1.12-1.12-2.307-2.176-4.252-3.988c2.338,21.309-3.054,42.749-15.194,60.416
		c-11.76,17.776-30.577,29.657-51.683,32.632L259.838,411.321z M259.838,360.66v24.227c2.043-0.396,3.724-0.626,5.339-1.088
		c10.751-2.877,20.365-8.974,27.555-17.469c15.788-18.358,20.237-39.553,16.085-63.186c-1.43-10.559-6.741-20.207-14.899-27.062
		c-6.032-5.149-11.756-10.653-17.139-16.479c-4.647-4.812-10.547-6.064-17.106-7.515v23.731h-16.942v-23.698
		c-31.411,5.273-53.33,37.411-50.265,73.073c2.636,30.554,27.06,59.526,50.528,59.329v-23.732L259.838,360.66z M352.457,310.099
		c0-4.449-0.198-7.713,0-10.942c1.022-14.536-4.483-25.939-14.833-36.257c-38.959-38.399-77.457-77.325-116.384-116.021
		c-3.341-2.861-5.034-7.2-4.516-11.569c0.866-6.445-1.174-12.941-5.57-17.733c-6.457-7.169-13.301-13.98-20.501-20.402
		c-10.138-8.815-25.502-7.742-34.316,2.396c-0.032,0.036-0.063,0.073-0.094,0.109c-9.38,9.402-9.512,24.582-0.297,34.146
		c6.031,6.592,12.394,12.69,18.821,18.854c4.523,4.71,10.928,7.132,17.436,6.592c5.129-0.633,10.23,1.376,13.547,5.34
		c47.397,47.089,94.883,94.245,142.456,141.467C349.161,307.166,350.413,308.154,352.457,310.099z M279.943,180.532
		c6.428-6.592,12.591-13.184,19.282-19.051c2.379-2.098,5.433-3.268,8.603-3.297c7.981,0.812,15.901-2.022,21.556-7.712
		c5.438-5.34,10.877-10.679,16.119-16.184c10.514-11.075,10.448-25.808,0-36.256c-10.448-10.449-24.886-10.482-36.257,0.329
		c-5.504,5.274-10.811,10.746-16.184,16.151c-5.356,4.94-8.109,12.092-7.449,19.348c0.631,5.031-1.404,10.027-5.372,13.185
		c-6,5.537-11.636,11.437-17.14,16.908L279.943,180.532z M420.025,392.731c-11.602,2.637-16.479,7.548-18.523,18.326h18.523V392.731
		z M101.066,411.222c-0.667-9.736-8.573-17.401-18.325-17.766v17.602L101.066,411.222z M101.066,225.984H82.741v17.469
		c9.411-0.958,17-8.127,18.491-17.469H101.066z M419.828,243.486v-17.403h-18.623c1.546,9.414,9.283,16.58,18.788,17.403H419.828z"
		/>
	<path fill="#275E79" d="M259.409,343.784h-16.282v-50.33h16.282V343.784z"/>
	<path fill="#275E79" d="M189.5,141.638h-1.846c-7.285,0-20.172-12.525-20.436-19.776c-0.419-5.035,2.38-9.79,6.987-11.865
		c4.173-2.504,9.479-2.066,13.184,1.087c3.891,3.338,7.527,6.963,10.877,10.844c3.133,3.464,3.79,8.507,1.648,12.657
		C198.164,138.806,194.069,141.578,189.5,141.638z"/>
	<path fill="#275E79" d="M251.334,201.857c-5.077,0.037-9.238-4.021-9.328-9.098c-0.305-5.125,3.601-9.526,8.726-9.832
		c5.124-0.306,9.526,3.601,9.832,8.725c0.022,0.369,0.022,0.738,0,1.106C260.474,197.798,256.372,201.84,251.334,201.857z"/>
	<path fill="#275E79" d="M335.351,119.521c0,9.197-13.778,23.073-21.293,22.875c-4.323,0.035-8.283-2.414-10.185-6.296
		c-2.677-4.406-2.389-10,0.725-14.107c3.355-4.089,7.122-7.822,11.24-11.141c3.684-2.879,8.769-3.167,12.756-0.725
		C332.306,111.895,334.856,115.439,335.351,119.521z"/>
</g>
</svg>
