<?xml version="1.0" encoding="utf-8"?>
<!-- Generator: Adobe Illustrator 16.0.0, SVG Export Plug-In . SVG Version: 6.00 Build 0)  -->
<!DOCTYPE svg PUBLIC "-//W3C//DTD SVG 1.1//EN" "http://www.w3.org/Graphics/SVG/1.1/DTD/svg11.dtd">
<svg version="1.1" id="Layer_1" xmlns="http://www.w3.org/2000/svg" xmlns:xlink="http://www.w3.org/1999/xlink" x="0px" y="0px"
	 width="500px" height="500px" viewBox="0 0 500 500" enable-background="new 0 0 500 500" xml:space="preserve">
<g>
	<path fill="#275E79" d="M289.306,129.547c0,3.769-0.309,7.415,0,10.968c0.773,7.786,1.946,15.448,2.813,23.327
		c0.129,1.202-0.096,2.416-0.649,3.491c-8.053,14.245-3.034,32.321,11.21,40.375c2.235,1.264,4.626,2.232,7.111,2.88
		c15.685,3.888,31.552-5.674,35.44-21.359c2.767-11.16-1.259-22.906-10.29-30.022c-0.811-0.683-1.366-1.62-1.576-2.657
		c-0.926-6.735-1.729-13.471-2.471-20.237c-0.018-1.233,0.087-2.464,0.308-3.677c3.091,0.372,6.18,0.68,9.27,1.082
		c4.604,0.649,9.269,1.267,13.81,2.04c4.995,0.589,8.877,4.625,9.27,9.64c1.144,7.754,2.225,15.448,3.09,23.296
		c1.144,10.288,2.163,20.607,3.089,30.896c0.928,10.289,1.576,20.671,1.917,30.896c0.309,9.27,0,18.538,0,27.807
		c-0.081,2.445-0.496,4.867-1.237,7.199c-0.48,1.688-1.359,3.234-2.563,4.511c-16.643,16.767-33.326,33.481-50.052,50.146
		l-62.164,62.256c-14.088,14.089-28.178,28.167-42.266,42.234c-9.429,9.871-25.075,10.231-34.947,0.802
		c-0.273-0.261-0.54-0.528-0.801-0.802c-32.316-32.276-64.624-64.573-96.92-96.89c-2.226-2.256-4.574-4.449-6.736-6.643
		c-9.531-9.742-9.379-25.359,0.34-34.913l81.505-81.629c24.243-24.222,48.466-48.476,72.667-72.76
		c1.732-1.735,4.1-2.684,6.551-2.626c7.692-0.216,15.447-0.557,23.079-0.525c9.27,0,18.539,0.402,27.961,0.649
		C287.111,129.3,288.101,129.547,289.306,129.547z M168.81,320.857l-12.945,12.358l12.945,13.625l13.255-13.655
		c3.553,1.854,6.859,3.83,10.381,5.313c11.648,4.913,23.203,4.913,33.801-2.503c11.276-7.909,16.745-18.536,14.119-32.749
		c-1.387-6.776-3.629-13.349-6.673-19.558c-3.143-5.959-5.381-12.353-6.643-18.971c-1.036-4.682,1.92-9.315,6.602-10.352
		c1.509-0.335,3.08-0.259,4.552,0.218c3.231,1.024,6.212,2.719,8.743,4.975c7.277,6.49,12.758,14.747,15.911,23.976
		c0,0.401,0.341,0.772,0.588,1.328l19.001-10.845c-3.371-9.279-8.631-17.76-15.448-24.902l11.339-11.432l-12.977-13.131
		l-12.358,12.358l-2.07-1.236c-7.053-4.585-15.317-6.952-23.728-6.797c-14.118,0.806-25.974,10.907-29.012,24.717
		c-1.15,7.131-0.283,14.44,2.503,21.103c2.44,6.334,5.375,12.358,8.033,18.724c2.08,4.198,3.079,8.85,2.904,13.532
		c-0.325,4.874-4.129,8.796-8.991,9.269c-3.353,0.22-6.679-0.719-9.423-2.657c-6.363-4.102-11.573-9.759-15.139-16.437
		c-2.842-5.222-5.098-10.751-7.663-16.282c-6.179,3.522-12.358,7.199-18.538,10.968c-0.474,0.542-0.647,1.282-0.463,1.978
		c0.854,2.357,1.834,4.668,2.934,6.921c3.742,7.365,8.528,14.15,14.212,20.145H168.81z"/>
	<path fill="#275E79" d="M427.752,142.647c-0.546,31.231-8.207,61.927-22.399,89.754c-0.895,1.945-1.982,3.798-3.243,5.53
		c-3.781,4.601-10.576,5.265-15.177,1.482c-3.962-3.255-5.082-8.848-2.683-13.377c3.09-6.18,6.181-12.359,8.837-18.539
		c6.639-15.853,10.806-32.628,12.358-49.743c0.738-7.36,0.986-14.761,0.741-22.153c-0.056-13.016-5.678-25.385-15.448-33.985
		c-8.156-6.857-18.704-10.192-29.32-9.27c-17.845,0.96-33.187,12.97-38.404,30.063c-2.213,7.64-2.604,15.693-1.144,23.511
		c1.824,11.525,3.894,23.019,5.872,34.512c1.222,5.793-2.484,11.481-8.278,12.704c-0.155,0.033-0.311,0.062-0.466,0.087
		c-5.537,1.282-11.063-2.167-12.345-7.704c-0.027-0.119-0.053-0.24-0.076-0.36c-3.09-15.448-6.735-30.896-7.415-46.592
		c-1.314-20.983,8.066-41.208,24.934-53.759c21.455-17.33,51.739-18.523,74.49-2.936c14.003,9.56,23.705,24.221,27.035,40.845
		c1.482,6.52,1.854,13.286,2.718,19.929H427.752z"/>
</g>
</svg>
