<?xml version="1.0" encoding="utf-8"?>
<!-- Generator: Adobe Illustrator 16.0.0, SVG Export Plug-In . SVG Version: 6.00 Build 0)  -->
<!DOCTYPE svg PUBLIC "-//W3C//DTD SVG 1.1//EN" "http://www.w3.org/Graphics/SVG/1.1/DTD/svg11.dtd">
<svg version="1.1" id="Layer_1" xmlns="http://www.w3.org/2000/svg" xmlns:xlink="http://www.w3.org/1999/xlink" x="0px" y="0px"
	 width="500px" height="500px" viewBox="0 0 500 500" enable-background="new 0 0 500 500" xml:space="preserve">
<g>
	<path fill="#275E79" d="M257.834,73.128l7.051,4.654l45.237,30.159c1.871,1.175,3.111,3.135,3.372,5.33
		c1.597,12.324,3.173,24.693,4.723,37.107c0.876,7.016,1.687,14.067,2.597,21.083c0.274,1.009-0.225,2.068-1.181,2.496
		c-3.846,2.43-7.522,5.128-11.401,7.793c-0.22-0.357-0.391-0.743-0.507-1.147c-1.586-12.346-3.103-24.66-4.688-37.106
		c-1.036-7.984-2.159-15.968-3.374-23.952c-0.168-0.86-0.664-1.623-1.383-2.125c-11.245-7.555-22.489-15.078-33.735-22.568
		c-0.488-0.25-0.997-0.464-1.517-0.64c-0.221,1.486-0.354,2.984-0.405,4.487c-0.168,8.906-0.236,17.811-0.439,26.684
		c-0.337,14.37-0.73,28.751-1.181,43.145c-0.27,9.548-0.606,19.126-0.911,28.674c-0.202,6.747-0.393,13.493-0.573,20.24
		c0,1.282-0.507,1.72-1.823,1.619c-3.665-0.226-7.342-0.372-11.031-0.438c-1.45,0-1.585-0.878-1.551-1.957
		c0-4.149,0.237-8.266,0.37-12.414c0.135-4.15,0.439-8.738,0.541-13.089c0.236-9.041,0.371-18.081,0.607-26.987
		c0.236-10.862,0.505-21.691,0.81-32.553c0.337-12.481,0.775-24.996,1.146-37.478c0-2.395,0-2.428-2.327-1.484l-25.773,10.83
		c-7.859,3.373-15.72,6.745-23.613,10.119c-0.934,0.503-1.616,1.37-1.889,2.394c-1.08,5.229-1.923,10.526-2.867,15.788
		c0,0.675-0.236,1.35-0.405,1.991c-0.304,1.315-0.911,1.484-2.293,1.113c-3.374-0.91-6.747-1.619-10.322-2.227
		c-1.181-0.202-1.552-0.607-1.349-1.753c1.237-6.59,2.452-13.18,3.644-19.768c0.269-1.485,0.404-3.003,0.81-4.42
		c1.011-3.541,4.282-4.418,7.116-5.667c9.75-4.25,19.566-8.434,29.35-12.583c8.636-3.677,17.271-7.287,25.873-10.963
		c3.374-1.45,6.747-3.036,10.121-4.554L257.834,73.128z"/>
	<path fill="#275E79" d="M286.002,381.588c-2.868,4.07-4.497,8.887-4.689,13.864c0,10.322,0,20.644,0.27,31.001
		c0,0.675,0,1.316,0.27,2.26c-0.883,0.138-1.773,0.227-2.665,0.27c-19.937,0-39.84,0-59.776,0c-2.091,0-2.901-0.404-2.833-2.731
		c0.27-9.815,0.336-19.6,0.472-29.416c-0.065-4.918-1.39-9.738-3.846-13.999c-0.202-0.405-0.708-0.675-1.383-1.248
		c-0.642,1.989-1.181,3.643-1.688,5.329c-1.376,4.135-2.502,8.347-3.374,12.618c-0.457,4.268-0.648,8.56-0.573,12.852
		c0,4.89-0.303,9.782-0.337,14.674c0,1.417-0.574,1.889-1.855,1.889h-36.534c-1.181,0-1.854-0.337-1.821-1.688
		c0.337-10.929,0.303-21.858,1.147-32.754c0.842-5.27,2.163-10.454,3.946-15.483c1.732-6.387,3.509-12.774,5.331-19.162
		c2.16-7.591,4.285-15.214,6.543-22.77c0.899-3.555,2.12-7.021,3.643-10.357c2.799-5.296,7.993-8.905,13.933-9.681
		c7.32-1.35,14.674-2.563,21.994-3.912c1.788-0.338,2.53,0,2.867,1.955c2.227,14.204,4.521,28.438,7.051,42.605
		c0.745,2.051,1.892,3.931,3.374,5.533c4.284,6.206,8.636,12.346,12.954,18.52c0.281,0.315,0.585,0.609,0.91,0.877l5.903-8.299
		c3.171-4.485,6.376-8.939,9.413-13.493c1.056-1.533,1.792-3.267,2.158-5.093c2.227-13.293,4.284-26.65,6.375-39.975
		c0.438-2.835,0.574-2.935,3.374-2.463c7.42,1.282,14.91,2.328,22.264,3.879c7.271,1.124,13.211,6.404,15.18,13.494
		c3.374,10.963,6.208,22.026,9.345,33.024c2.563,8.973,5.194,17.913,7.691,26.987c0.697,2.383,1.105,4.841,1.215,7.32
		c0.269,9.815,0.337,19.6,0.371,29.416c0,0.505-0.81,1.112-1.349,1.518c-0.541,0.405-0.742,0-1.114,0c-11.637,0-23.241,0-34.88,0
		c-1.99,0-2.732-0.371-2.699-2.598c0-8.063,0-16.125-0.371-24.188c-0.294-2.46-0.862-4.881-1.687-7.219
		c-1.215-4.485-2.497-8.904-3.744-13.493L286.002,381.588z"/>
	<path fill="#275E79" d="M208.65,238.422c0-0.878,0-1.822,0-2.732c0.496-11.381,1.013-22.748,1.553-34.105
		c0-2.935,0.404-5.836,0.708-8.771c0.329-1.729-0.418-3.487-1.891-4.453c-7.59-5.565-15.078-11.3-22.601-16.866
		c-0.611-0.403-1.242-0.774-1.889-1.113l-18.217,104.574c-1.214-0.81-2.193-1.519-3.374-2.093c-2.799-1.586-5.667-3.069-8.433-4.722
		c-0.661-0.438-1.075-1.165-1.114-1.956c1.958-11.571,4.015-23.142,6.039-34.746c1.315-7.558,2.497-15.181,3.812-22.737
		s2.833-15.719,4.216-23.614c0.878-4.969,1.743-9.939,2.597-14.91c0.043-0.37,0.043-0.744,0-1.113
		c-2.495,0.911-4.856,1.72-7.185,2.597l-23.614,9.041c-4.89,1.889-9.815,3.745-14.673,5.768c-0.91,0.492-1.599,1.312-1.924,2.294
		c-2.125,6.444-4.081,12.92-6.105,19.363c-2.9,9.176-5.903,18.318-8.804,27.494c-2.565,8.096-5.061,16.226-7.625,24.288
		c-2.563,8.063-5.263,15.618-7.792,23.749c-2.159,6.747-4.218,13.493-6.342,20.441c-2.462,7.826-5.026,15.619-7.488,23.412
		c-3.374,10.592-6.747,21.218-10.12,31.844c-2.902,9.108-5.904,18.148-8.805,27.257c-2.159,6.747-4.116,13.493-6.307,20.239
		c-2.496,7.624-5.163,15.215-7.658,22.839c-0.439,1.349-1.214,1.652-2.531,1.652c-2.781,0.433-5.616-0.313-7.825-2.057
		c-2.079-2.107-2.716-5.245-1.62-7.996c1.991-6.745,4.25-13.155,6.343-19.768c2.091-6.612,4.216-13.493,6.375-20.477
		c2.16-6.981,4.15-13.021,6.241-19.532c2.092-6.509,4.386-13.493,6.545-20.24c2.496-7.892,4.958-15.785,7.455-23.611
		c2.924-9.245,5.858-18.486,8.805-27.729c2.969-9.312,5.97-18.621,8.904-27.932c2.937-9.312,5.77-18.521,8.704-27.764
		c2.091-6.746,4.25-13.155,6.342-19.767c2.946-9.311,5.881-18.633,8.805-27.966c0.811-2.563,1.519-5.195,2.53-7.69
		c0.841-1.96,2.489-3.461,4.52-4.116c12.718-4.858,25.367-9.816,38.053-14.708c7.859-3.035,15.72-5.97,23.612-8.973
		c2.349-0.981,5.043-0.62,7.05,0.944c12.774,9.558,25.537,19.139,38.288,28.741c1.839,1.282,2.875,3.431,2.733,5.668
		c-0.518,11.671-1.013,23.344-1.485,35.015c-0.005,2.779-1.397,5.374-3.709,6.917C215.848,231.448,212.142,234.828,208.65,238.422z"
		/>
	<path fill="#275E79" d="M391.419,402.368c-2.482,3.996-3.844,8.588-3.947,13.29c0,3.913,0.236,7.826,0.236,11.738
		c-0.136,0.634-0.542,1.177-1.112,1.484c-0.588,0.136-1.201,0.136-1.789,0c-12.211,0-24.457,0-36.667,0
		c-2.227,0-2.767-0.674-2.767-2.833c0-10.12,0-19.901-0.472-29.853c-0.397-4.127-1.234-8.198-2.497-12.146
		c-2.934-10.829-6.039-21.59-9.041-32.384c-1.383-4.961-1.316-5.094,3.779-5.769c3.567-0.479,7.161-0.75,10.761-0.811
		c8.837,0,17.675,0,26.48,0c7.457,0.263,14.868,1.256,22.129,2.97c3.197,0.448,6.34,1.229,9.378,2.327
		c4.742,2.03,8.193,6.25,9.243,11.302l7.893,28.233c1.992,7.083,4.42,14.103,5.836,21.32c0.735,5.376,1.027,10.801,0.877,16.226
		c0,0.472-1.114,1.416-1.721,1.416c-10.121,0-19.936,0-29.888,0c-1.755,0-1.755-1.011-1.654-2.226
		c0.777-7.894-2.125-15.112-4.149-22.467C392.076,403.557,391.772,402.949,391.419,402.368z"/>
	<path fill="#275E79" d="M106.573,402.467c-1.114,3.881-2.361,7.288-3.003,10.796c-0.81,4.487-1.214,9.042-1.62,13.493
		c0,1.687-0.808,2.159-2.395,2.125c-9.67,0-19.329,0-28.976,0c-1.554,0-2.193-0.403-2.025-2.058
		c0.253-2.093,0.319-4.202,0.203-6.308c-0.091-5.514,0.811-11,2.664-16.191c2.261-7.894,4.419-15.788,6.747-23.614
		c1.991-7.018,3.744-14.134,6.04-21.05c1.93-5.83,7.032-10.039,13.123-10.827l19.564-3.374c0.898-0.076,1.801-0.076,2.699,0
		c12.212,0,24.457,0,36.669,0c2.779,0.182,5.542,0.565,8.264,1.146c1.181,0.169,1.653,0.844,1.316,2.091
		c-1.518,5.432-3.003,10.863-4.521,16.328c-2.462,8.837-5.128,17.644-7.353,26.547c-0.617,3.257-0.878,6.572-0.776,9.886
		c-0.202,8.523-0.327,17.035-0.372,25.536c0,1.72-0.539,2.227-2.191,2.227c-12.528,0-25.055,0-37.581,0
		c-1.719,0-2.395-0.472-2.328-2.328c0.294-4.425,0.294-8.864,0-13.291c-0.552-3.171-1.423-6.279-2.598-9.276
		C107.922,403.717,107.248,403.211,106.573,402.467z"/>
	<path fill="#275E79" d="M340.717,207.354c-0.063,0.819-0.063,1.642,0,2.461c1.384,8.568,2.801,17.104,4.184,25.672
		c1.552,9.512,3.07,19.061,4.622,28.571c0.236,1.483,0,2.193-1.688,2.767c-3.24,1.179-6.405,2.553-9.479,4.116
		c-1.788,0.877-2.192,0.81-2.497-1.115c-1.517-9.511-3.069-19.024-4.587-28.538c-1.653-10.557-3.374-21.117-4.891-31.708
		c-0.131-0.386-0.301-0.76-0.507-1.113c-0.877,0.54-1.72,0.945-2.429,1.485c-7.354,5.498-14.64,11.064-22.061,16.495
		c-1.178,0.867-1.807,2.292-1.653,3.745c0,9.714,0,19.463,0,29.178c0.01,0.586-0.181,1.158-0.54,1.619l-2.834-8.736
		c-2.023-6.088-5.246-11.71-9.479-16.529c-0.783-0.963-1.264-2.137-1.384-3.374c-0.202-2.767,0-5.566,0-8.366
		c-0.033-2.305,1.112-4.466,3.037-5.735c12.077-9.006,24.22-17.913,36.129-27.189c3.611-2.878,8.616-3.253,12.616-0.944
		c6.748,2.766,13.493,5.261,20.239,7.859l22.872,8.838l15.956,6.174c1.911,0.78,3.336,2.419,3.846,4.418
		c2.924,8.996,5.847,17.992,8.771,26.987c2.226,6.95,4.418,13.898,6.747,20.847c2.024,6.274,4.149,12.55,6.207,18.857
		c2.057,6.31,4.318,13.494,6.51,20.241l8.636,26.616c2.193,6.745,4.352,13.492,6.578,20.239c2.496,7.657,5.026,15.282,7.489,22.938
		c1.821,5.566,3.542,11.166,5.363,16.867c2.463,7.592,4.926,15.146,7.422,22.736c0.91,2.8,1.889,5.567,2.698,8.367
		c0.994,3.585-1.105,7.298-4.688,8.298c-1.817,0.461-3.695,0.644-5.566,0.541c-0.908-0.177-1.674-0.781-2.058-1.62
		c-3.373-9.749-6.477-19.531-9.682-29.313c-2.867-8.705-5.801-17.408-8.635-26.146c-2.833-8.736-5.87-18.316-8.837-27.459
		c-2.498-7.725-5.095-15.416-7.59-23.141c-2.498-7.726-4.926-15.484-7.422-23.208c-1.822-5.565-3.711-11.133-5.532-16.866
		c-2.429-7.523-4.791-15.046-7.22-22.568c-2.664-8.231-5.363-16.429-8.027-24.66c-0.912-2.801-1.958-5.531-2.598-8.399
		c-0.478-2.082-2.102-3.707-4.184-4.183c-8.771-3.374-17.542-6.747-26.278-10.121l-15.955-6.139
		C341.788,207.094,341.237,207.173,340.717,207.354z"/>
	<path fill="#275E79" d="M284.518,268.783c-0.096,19.562-16.032,35.342-35.593,35.244c-19.563-0.096-35.343-16.032-35.247-35.593
		c0.095-19.258,15.557-34.911,34.812-35.242c19.369-0.522,35.495,14.753,36.02,34.122
		C284.521,267.804,284.524,268.293,284.518,268.783z"/>
	<path fill="#275E79" d="M166.821,308.757c0.223,16.039-12.597,29.224-28.638,29.446c-0.179,0.003-0.361,0.004-0.543,0.003
		c-16.245,0.141-29.527-12.918-29.668-29.162c-0.14-16.246,12.917-29.529,29.163-29.669l0,0
		C153.935,278.902,167.697,293.476,166.821,308.757z"/>
	<path fill="#275E79" d="M362.139,279.441c16.212,0.666,28.817,14.35,28.15,30.563c-0.012,0.304-0.029,0.607-0.051,0.912
		c-1.317,15.46-14.27,27.327-29.786,27.289c-16.229-0.438-29.028-13.947-28.59-30.175c0.437-16.228,13.947-29.026,30.174-28.59
		H362.139z"/>
	<path fill="#275E79" d="M249.13,373.594c-3.002-4.454-5.835-8.604-8.568-12.854c-0.423-0.868-0.565-1.848-0.404-2.801
		c1.146-10.12,2.293-20.24,3.575-30.359c0.701-3.639,0.117-7.405-1.653-10.659c-0.592-1.024-0.714-2.253-0.338-3.373
		c0.747-1.48,2.395-2.271,4.015-1.925c2.226,0.449,4.521,0.449,6.747,0c1.666-0.358,3.363,0.462,4.116,1.991
		c0.314,0.903,0.188,1.9-0.338,2.698c-3.71,5.5-1.72,11.369-1.113,17.07c0.876,8.298,2.057,16.596,3.07,24.86
		c0.102,0.658-0.004,1.33-0.305,1.924c-2.597,4.149-5.228,8.229-7.893,12.346C249.778,372.904,249.472,373.265,249.13,373.594z"/>
</g>
</svg>
