<?xml version="1.0" encoding="utf-8"?>
<!-- Generator: Adobe Illustrator 16.0.0, SVG Export Plug-In . SVG Version: 6.00 Build 0)  -->
<!DOCTYPE svg PUBLIC "-//W3C//DTD SVG 1.1//EN" "http://www.w3.org/Graphics/SVG/1.1/DTD/svg11.dtd">
<svg version="1.1" id="Layer_1" xmlns="http://www.w3.org/2000/svg" xmlns:xlink="http://www.w3.org/1999/xlink" x="0px" y="0px"
	 width="500px" height="500px" viewBox="0 0 500 500" enable-background="new 0 0 500 500" xml:space="preserve">
<g>
	<path fill="#275E79" d="M363.747,362.382h11.405c0.426,7.427,0.379,14.874-0.143,22.296c-2.395,18.418-16.851,30.308-36.581,30.308
		c-81.865,0.096-163.742,0.096-245.627,0c-0.941,0-1.882,0-2.853,0c-21.412-1.084-35.525-18.021-32.986-40.801h57.45
		c0-4.705,0-8.354,0-11.976c0-80.934,0-161.869,0-242.805c0-26.174,13.543-40.059,39.489-40.059c80.631,0,161.262,0,241.893,0
		c24.548,0,39.403,15.852,37.265,40.543h-57.251v84.537l-12.717,0.771c3.479-37.95-5.303-75.784,6.045-113.677
		c-2.023,0-5.246-0.398-8.555-0.398H155.213c-20.699,0-28.91,8.183-28.91,28.739c0,80.632,0,161.263,0,241.894
		c0,3.678,0,7.384,0,12.06h188.833c6.843,23.551,13.285,31.078,26.772,29.254C366.6,399.703,363.405,379.887,363.747,362.382z
		 M69.564,386.045c3.991,12.146,10.778,17.107,23.18,17.107c71.223,0,142.435,0,213.639,0c1.738,0,3.479-0.256,5.389-0.399
		c-6.672-16.878-6.672-16.878-23.066-16.878H69.564V386.045z M420.029,107.856c-3.363-11.09-11.176-16.907-21.867-16.708
		c-10.042-0.199-18.775,6.851-20.7,16.708H420.029z"/>
	<path fill="#275E79" d="M369.193,215.917c37.288-0.109,67.605,30.029,67.714,67.317c0.108,37.287-30.03,67.604-67.317,67.712
		c-37.187,0.11-67.461-29.871-67.712-67.059c-0.237-37.303,29.812-67.734,67.114-67.97
		C369.06,215.918,369.127,215.917,369.193,215.917z M369.193,225.154c-32.168,0.254-58.042,26.538-57.787,58.707
		c0.252,32.169,26.536,58.041,58.707,57.788c32.167-0.254,58.041-26.538,57.787-58.707c-0.001-0.046-0.001-0.092-0.001-0.138
		c-0.408-32.104-26.657-57.856-58.763-57.65H369.193z"/>
	<path fill="#275E79" d="M172.833,182.557l1.996-8.21c5.081,1.367,10.287,2.219,15.539,2.537c3.164-0.113,6.017-3.052,8.867-4.733
		c-1.602-2.706-3.6-5.157-5.93-7.271c-3.593-2.309-8.126-3.107-11.861-5.245c-11.718-6.758-11.405-20.7,0.313-27.771
		c3.593-2.196,6.188-6.016,11.177-11.034l7.442,6.357l-1.112,1.142l12.003,3.336l-2.452,9.58c-4.928-0.851-9.912-1.338-14.912-1.455
		c-2.194,0-4.306,2.623-6.443,4.021c1.341,1.882,2.31,4.419,4.135,5.502c4.248,2.481,9.123,3.879,13.4,6.33
		c12.346,7.043,12.202,22.324-0.285,29.139c-3.765,2.053-8.041,2.852-7.726,8.811c0,1.34-3.963,2.851-6.102,4.361l0.597-3.678
		L172.833,182.557z"/>
	<path fill="#275E79" d="M267.834,227.292v10.663H150.11v-10.663H267.834z"/>
	<path fill="#275E79" d="M267.863,278.328v10.407H150.11l-0.541-10.407H267.863z"/>
	<path fill="#275E79" d="M267.663,339.686H150.11l-0.541-10.663h118.094V339.686z"/>
	<path fill="#275E79" d="M274.763,149.826v-10.777h70.48v10.806L274.763,149.826z"/>
	<path fill="#275E79" d="M345.357,183.527v10.493h-70.595l-0.484-10.493H345.357z"/>
	<path fill="#275E79" d="M321.237,283.347c0-26.66,21.611-48.27,48.271-48.27s48.27,21.609,48.27,48.27l0,0
		c0,26.659-21.61,48.27-48.27,48.27S321.237,310.006,321.237,283.347z M402.267,294.751v-20.329h-23.009v-22.21h-20.356v22.581
		h-22.325v20.244h22.81v22.523h20.328v-22.667L402.267,294.751z"/>
</g>
</svg>
