<?xml version="1.0" encoding="utf-8"?>
<!-- Generator: Adobe Illustrator 16.0.0, SVG Export Plug-In . SVG Version: 6.00 Build 0)  -->
<!DOCTYPE svg PUBLIC "-//W3C//DTD SVG 1.1//EN" "http://www.w3.org/Graphics/SVG/1.1/DTD/svg11.dtd">
<svg version="1.1" id="Layer_1" xmlns="http://www.w3.org/2000/svg" xmlns:xlink="http://www.w3.org/1999/xlink" x="0px" y="0px"
	 width="54.535px" height="69.973px" viewBox="0 0 54.535 69.973" enable-background="new 0 0 54.535 69.973" xml:space="preserve">
<path fill="#275F7A" d="M27.099,69.973c-1.125-1.09-2.237-2.097-3.271-3.179c-4.286-4.481-8.482-9.044-12.477-13.79
	c-3.741-4.447-6.867-9.281-9.045-14.689c-1.176-2.918-1.951-5.941-2.213-9.081c-0.395-4.748,0.473-9.271,2.543-13.554
	C6.454,7.783,12.649,2.71,21.166,0.765c8.989-2.053,17.108,0.046,24.11,6.076c4.7,4.048,7.575,9.205,8.777,15.292
	c0.948,4.807,0.446,9.489-1.063,14.121c-1.243,3.817-3.278,7.158-5.745,10.29c-4.649,5.901-9.546,11.594-14.533,17.209
	c-1.775,2-3.588,3.967-5.383,5.949C27.24,69.803,27.155,69.907,27.099,69.973 M45.698,27.295
	C45.697,17.113,37.517,8.896,27.377,8.892C17.045,8.887,8.871,17.039,8.868,27.354c-0.003,10.244,8.227,18.415,18.604,18.355
	C37.331,45.652,45.687,37.748,45.698,27.295"/>
</svg>
