<?xml version="1.0" encoding="utf-8"?>
<!-- Generator: Adobe Illustrator 16.0.0, SVG Export Plug-In . SVG Version: 6.00 Build 0)  -->
<!DOCTYPE svg PUBLIC "-//W3C//DTD SVG 1.1//EN" "http://www.w3.org/Graphics/SVG/1.1/DTD/svg11.dtd">
<svg version="1.1" id="Layer_1" xmlns="http://www.w3.org/2000/svg" xmlns:xlink="http://www.w3.org/1999/xlink" x="0px" y="0px"
	 width="501.46px" height="88.589px" viewBox="0 0 501.46 88.589" enable-background="new 0 0 501.46 88.589" xml:space="preserve">
<g>
	<polygon fill="#78C8A8" points="34.598,35.491 22.97,31.407 48.782,21.433 48.782,0 0,26.574 0,38.28 34.598,50.036 	"/>
	<polygon fill="#275F7A" points="39.506,37.434 39.506,52.154 45.111,54.1 18.328,68.079 18.328,88.589 67.11,60.002 67.11,47.521 	
		"/>
	<path fill="#275F7A" d="M92.174,76.38c0-0.732-0.256-1.297-0.772-1.695c-0.516-0.396-1.446-0.797-2.789-1.201
		c-1.345-0.405-2.415-0.857-3.21-1.352c-1.52-0.956-2.28-2.201-2.28-3.734c0-1.345,0.549-2.453,1.644-3.323
		c1.096-0.871,2.52-1.306,4.269-1.306c1.162,0,2.196,0.213,3.104,0.642c0.911,0.427,1.624,1.037,2.142,1.827
		c0.519,0.791,0.778,1.666,0.778,2.629h-2.886c0-0.871-0.272-1.552-0.819-2.044c-0.545-0.494-1.326-0.739-2.34-0.739
		c-0.95,0-1.683,0.203-2.207,0.606c-0.524,0.405-0.786,0.971-0.786,1.696c0,0.611,0.284,1.121,0.849,1.53
		c0.565,0.407,1.497,0.806,2.795,1.191c1.297,0.385,2.342,0.824,3.126,1.317c0.789,0.493,1.362,1.059,1.729,1.695
		c0.368,0.638,0.551,1.384,0.551,2.24c0,1.39-0.533,2.495-1.598,3.316c-1.067,0.821-2.512,1.232-4.337,1.232
		c-1.205,0-2.315-0.223-3.326-0.67c-1.013-0.448-1.799-1.064-2.361-1.85c-0.563-0.786-0.841-1.704-0.841-2.749h2.896
		c0,0.946,0.313,1.679,0.942,2.199c0.623,0.519,1.521,0.778,2.689,0.778c1.008,0,1.766-0.204,2.275-0.613
		C91.92,77.593,92.174,77.053,92.174,76.38"/>
	<path fill="#275F7A" d="M97.352,65.061c0-0.427,0.137-0.782,0.409-1.063c0.269-0.284,0.658-0.426,1.162-0.426
		s0.893,0.142,1.169,0.426c0.273,0.282,0.411,0.637,0.411,1.063c0,0.421-0.138,0.771-0.411,1.05
		c-0.277,0.279-0.666,0.418-1.169,0.418s-0.893-0.139-1.162-0.418C97.489,65.832,97.352,65.482,97.352,65.061 M100.31,80.677h-2.784
		V68.282h2.784V80.677z"/>
	<path fill="#275F7A" d="M105.956,68.282l0.08,1.295c0.872-1.017,2.063-1.524,3.575-1.524c1.658,0,2.791,0.634,3.403,1.901
		c0.902-1.268,2.168-1.901,3.803-1.901c1.368,0,2.385,0.379,3.052,1.135c0.668,0.755,1.01,1.87,1.025,3.344v8.145h-2.783v-8.064
		c0-0.787-0.171-1.364-0.514-1.731c-0.345-0.366-0.914-0.549-1.707-0.549c-0.635,0-1.153,0.17-1.553,0.51
		c-0.401,0.339-0.68,0.784-0.842,1.335l0.013,8.5h-2.784v-8.156c-0.039-1.46-0.785-2.188-2.235-2.188
		c-1.116,0-1.905,0.454-2.37,1.363v8.981h-2.784V68.282H105.956z"/>
	<path fill="#275F7A" d="M134.608,74.605c0,1.918-0.435,3.447-1.307,4.588c-0.869,1.143-2.039,1.713-3.505,1.713
		c-1.359,0-2.448-0.445-3.264-1.341v5.877h-2.784V68.282h2.565l0.115,1.261c0.817-0.993,1.928-1.49,3.334-1.49
		c1.512,0,2.696,0.562,3.557,1.69c0.858,1.126,1.289,2.689,1.289,4.69V74.605z M131.834,74.365c0-1.238-0.244-2.218-0.739-2.943
		c-0.492-0.728-1.195-1.089-2.113-1.089c-1.137,0-1.955,0.471-2.45,1.409v5.498c0.502,0.963,1.328,1.444,2.471,1.444
		c0.889,0,1.581-0.357,2.081-1.072C131.584,76.899,131.834,75.815,131.834,74.365"/>
	<rect x="137.139" y="63.081" fill="#275F7A" width="2.784" height="17.596"/>
	<path fill="#275F7A" d="M142.957,65.061c0-0.427,0.137-0.782,0.408-1.063c0.27-0.284,0.659-0.426,1.162-0.426
		c0.504,0,0.894,0.142,1.169,0.426c0.275,0.282,0.411,0.637,0.411,1.063c0,0.421-0.136,0.771-0.411,1.05
		c-0.276,0.279-0.666,0.418-1.169,0.418c-0.503,0-0.892-0.139-1.162-0.418C143.094,65.832,142.957,65.482,142.957,65.061
		 M145.913,80.677h-2.784V68.282h2.784V80.677z"/>
	<path fill="#275F7A" d="M149.925,80.677V70.343h-1.89v-2.062h1.89v-1.133c0-1.375,0.381-2.438,1.145-3.185
		c0.763-0.749,1.832-1.123,3.207-1.123c0.49,0,1.008,0.067,1.559,0.207l-0.069,2.175c-0.306-0.061-0.66-0.091-1.063-0.091
		c-1.332,0-1.994,0.684-1.994,2.052v1.099h2.52v2.062h-2.52v10.333H149.925z"/>
	<path fill="#275F7A" d="M161.598,76.689l2.52-8.407h2.967l-4.927,14.273c-0.754,2.085-2.037,3.126-3.848,3.126
		c-0.405,0-0.853-0.067-1.339-0.206v-2.165l0.526,0.035c0.702,0,1.232-0.126,1.588-0.382c0.354-0.255,0.635-0.686,0.841-1.288
		l0.4-1.065l-4.354-12.329h3.001L161.598,76.689z"/>
	<path fill="#275F7A" d="M168.687,65.061c0-0.427,0.137-0.782,0.408-1.063c0.27-0.284,0.657-0.426,1.162-0.426
		c0.504,0,0.894,0.142,1.17,0.426c0.274,0.282,0.41,0.637,0.41,1.063c0,0.421-0.136,0.771-0.41,1.05
		c-0.276,0.279-0.666,0.418-1.17,0.418c-0.504,0-0.892-0.139-1.162-0.418C168.824,65.832,168.687,65.482,168.687,65.061
		 M171.643,80.677h-2.784V68.282h2.784V80.677z"/>
	<path fill="#275F7A" d="M177.257,68.282l0.081,1.431c0.917-1.104,2.118-1.66,3.609-1.66c2.582,0,3.896,1.478,3.94,4.434v8.19
		h-2.784v-8.031c0-0.787-0.168-1.367-0.509-1.747c-0.34-0.379-0.895-0.566-1.668-0.566c-1.123,0-1.957,0.507-2.507,1.524v8.82
		h-2.784V68.282H177.257z"/>
	<path fill="#275F7A" d="M187.235,74.388c0-1.926,0.452-3.463,1.357-4.612c0.904-1.148,2.106-1.724,3.603-1.724
		c1.414,0,2.524,0.492,3.334,1.476l0.125-1.247h2.51v12.017c0,1.627-0.506,2.909-1.518,3.849c-1.012,0.939-2.376,1.41-4.095,1.41
		c-0.908,0-1.796-0.189-2.664-0.566c-0.867-0.379-1.525-0.876-1.977-1.485l1.317-1.672c0.856,1.014,1.909,1.523,3.164,1.523
		c0.921,0,1.654-0.25,2.187-0.75c0.535-0.501,0.802-1.234,0.802-2.206v-0.836c-0.802,0.895-1.871,1.342-3.207,1.342
		c-1.453,0-2.636-0.578-3.56-1.73C187.694,78.023,187.235,76.426,187.235,74.388 M190.006,74.628c0,1.246,0.254,2.224,0.764,2.938
		c0.506,0.714,1.212,1.071,2.113,1.071c1.122,0,1.954-0.481,2.497-1.443v-5.453c-0.525-0.939-1.353-1.409-2.475-1.409
		c-0.916,0-1.628,0.362-2.135,1.089C190.26,72.146,190.006,73.216,190.006,74.628"/>
	<polygon fill="#275F7A" points="210.032,78.363 217.604,78.363 217.604,80.678 207.133,80.678 207.133,63.997 210.032,63.997 	"/>
	<path fill="#275F7A" d="M219.035,74.366c0-1.215,0.239-2.309,0.723-3.284c0.481-0.973,1.156-1.721,2.027-2.245
		c0.87-0.522,1.871-0.784,3.002-0.784c1.672,0,3.03,0.538,4.071,1.614c1.043,1.078,1.605,2.506,1.691,4.285l0.012,0.653
		c0,1.223-0.235,2.314-0.707,3.277c-0.47,0.961-1.141,1.706-2.016,2.234c-0.874,0.527-1.884,0.791-3.031,0.791
		c-1.749,0-3.148-0.584-4.196-1.748c-1.05-1.164-1.577-2.719-1.577-4.657V74.366z M221.819,74.605c0,1.276,0.264,2.276,0.79,2.996
		c0.529,0.722,1.26,1.083,2.199,1.083c0.939,0,1.671-0.368,2.194-1.1c0.524-0.734,0.786-1.806,0.786-3.218
		c0-1.252-0.27-2.247-0.808-2.979c-0.538-0.734-1.269-1.102-2.193-1.102c-0.912,0-1.632,0.361-2.166,1.083
		C222.085,72.092,221.819,73.17,221.819,74.605"/>
	<path fill="#275F7A" d="M232.428,74.388c0-1.926,0.453-3.463,1.358-4.612c0.904-1.148,2.106-1.724,3.603-1.724
		c1.414,0,2.524,0.492,3.334,1.476l0.125-1.247h2.509v12.017c0,1.627-0.506,2.909-1.519,3.849c-1.011,0.939-2.375,1.41-4.095,1.41
		c-0.907,0-1.796-0.189-2.663-0.566c-0.866-0.379-1.524-0.876-1.977-1.485l1.318-1.672c0.855,1.014,1.909,1.523,3.163,1.523
		c0.922,0,1.654-0.25,2.188-0.75c0.535-0.501,0.801-1.234,0.801-2.206v-0.836c-0.801,0.895-1.87,1.342-3.206,1.342
		c-1.452,0-2.636-0.578-3.56-1.73C232.888,78.023,232.428,76.426,232.428,74.388 M235.199,74.628c0,1.246,0.254,2.224,0.764,2.938
		c0.506,0.714,1.213,1.071,2.112,1.071c1.123,0,1.955-0.481,2.497-1.443v-5.453c-0.524-0.939-1.352-1.409-2.474-1.409
		c-0.916,0-1.629,0.362-2.135,1.089C235.453,72.146,235.199,73.216,235.199,74.628"/>
	<path fill="#275F7A" d="M246.222,65.061c0-0.427,0.137-0.782,0.408-1.063c0.27-0.284,0.658-0.426,1.162-0.426
		s0.894,0.142,1.17,0.426c0.274,0.282,0.411,0.637,0.411,1.063c0,0.421-0.136,0.771-0.411,1.05c-0.276,0.279-0.666,0.418-1.17,0.418
		s-0.892-0.139-1.162-0.418C246.358,65.832,246.222,65.482,246.222,65.061 M249.178,80.677h-2.784V68.282h2.784V80.677z"/>
	<path fill="#275F7A" d="M259.155,77.309c0-0.496-0.205-0.875-0.614-1.134c-0.407-0.26-1.084-0.49-2.032-0.687
		c-0.946-0.198-1.739-0.452-2.373-0.757c-1.39-0.672-2.084-1.646-2.084-2.921c0-1.069,0.451-1.963,1.352-2.681
		c0.902-0.717,2.045-1.076,3.438-1.076c1.48,0,2.68,0.366,3.592,1.1c0.91,0.732,1.367,1.685,1.367,2.852h-2.784
		c0-0.535-0.198-0.979-0.595-1.334c-0.398-0.354-0.923-0.532-1.58-0.532c-0.61,0-1.111,0.141-1.497,0.423
		c-0.383,0.282-0.576,0.662-0.576,1.135c0,0.427,0.179,0.76,0.537,0.997c0.359,0.237,1.084,0.476,2.178,0.717
		c1.091,0.24,1.949,0.527,2.571,0.858c0.623,0.332,1.085,0.731,1.386,1.197c0.302,0.466,0.452,1.031,0.452,1.694
		c0,1.116-0.462,2.018-1.387,2.711c-0.923,0.69-2.134,1.037-3.63,1.037c-1.017,0-1.923-0.186-2.713-0.55
		c-0.795-0.367-1.416-0.872-1.857-1.513c-0.442-0.642-0.666-1.332-0.666-2.072h2.706c0.035,0.655,0.285,1.163,0.744,1.517
		c0.457,0.354,1.064,0.533,1.821,0.533c0.73,0,1.288-0.139,1.67-0.418C258.963,78.125,259.155,77.76,259.155,77.309"/>
	<path fill="#275F7A" d="M267.802,65.269v3.013h2.188v2.062h-2.188v6.92c0,0.473,0.093,0.814,0.28,1.025
		c0.188,0.209,0.523,0.314,1.004,0.314c0.319,0,0.646-0.037,0.974-0.114v2.154c-0.634,0.174-1.245,0.263-1.836,0.263
		c-2.136,0-3.205-1.179-3.205-3.54v-7.022h-2.04v-2.062h2.04v-3.013H267.802z"/>
	<path fill="#275F7A" d="M272.121,65.061c0-0.427,0.138-0.782,0.409-1.063c0.269-0.284,0.658-0.426,1.163-0.426
		c0.503,0,0.891,0.142,1.169,0.426c0.273,0.282,0.409,0.637,0.409,1.063c0,0.421-0.136,0.771-0.409,1.05
		c-0.278,0.279-0.666,0.418-1.169,0.418c-0.505,0-0.895-0.139-1.163-0.418C272.259,65.832,272.121,65.482,272.121,65.061
		 M275.079,80.677h-2.783V68.282h2.783V80.677z"/>
	<path fill="#275F7A" d="M283.2,78.684c0.695,0,1.271-0.203,1.729-0.608c0.458-0.404,0.704-0.904,0.734-1.5h2.621
		c-0.028,0.771-0.271,1.492-0.72,2.159c-0.451,0.67-1.063,1.197-1.832,1.587c-0.77,0.389-1.604,0.585-2.5,0.585
		c-1.732,0-3.106-0.562-4.121-1.686c-1.017-1.123-1.527-2.672-1.527-4.651v-0.287c0-1.884,0.506-3.396,1.515-4.53
		c1.007-1.135,2.382-1.701,4.123-1.701c1.475,0,2.677,0.429,3.602,1.29c0.931,0.859,1.418,1.988,1.461,3.383h-2.621
		c-0.03-0.708-0.273-1.293-0.729-1.753c-0.453-0.457-1.031-0.687-1.733-0.687c-0.903,0-1.598,0.327-2.088,0.979
		c-0.485,0.653-0.735,1.643-0.742,2.973v0.447c0,1.343,0.244,2.346,0.727,3.007C281.583,78.353,282.282,78.684,283.2,78.684"/>
	<path fill="#275F7A" d="M297.339,77.309c0-0.496-0.206-0.875-0.613-1.134c-0.41-0.26-1.088-0.49-2.034-0.687
		c-0.948-0.198-1.74-0.452-2.371-0.757c-1.39-0.672-2.086-1.646-2.086-2.921c0-1.069,0.45-1.963,1.354-2.681
		c0.899-0.717,2.045-1.076,3.437-1.076c1.48,0,2.678,0.366,3.591,1.1c0.912,0.732,1.367,1.685,1.367,2.852h-2.783
		c0-0.535-0.198-0.979-0.594-1.334c-0.401-0.354-0.926-0.532-1.581-0.532c-0.611,0-1.111,0.141-1.496,0.423
		c-0.385,0.282-0.579,0.662-0.579,1.135c0,0.427,0.179,0.76,0.54,0.997c0.359,0.237,1.082,0.476,2.178,0.717
		c1.089,0.24,1.948,0.527,2.569,0.858c0.625,0.332,1.084,0.731,1.387,1.197c0.301,0.466,0.453,1.031,0.453,1.694
		c0,1.116-0.462,2.018-1.388,2.711c-0.925,0.69-2.136,1.037-3.629,1.037c-1.02,0-1.923-0.186-2.716-0.55
		c-0.795-0.367-1.413-0.872-1.857-1.513c-0.441-0.642-0.664-1.332-0.664-2.072h2.705c0.036,0.655,0.284,1.163,0.744,1.517
		c0.457,0.354,1.064,0.533,1.82,0.533c0.731,0,1.289-0.139,1.67-0.418C297.146,78.125,297.339,77.76,297.339,77.309"/>
	<path fill="#275F7A" d="M92.845,19.059h16.63c1.85,0,2.772,0.924,2.772,2.773h8.316c0-7.392-3.696-11.088-11.088-11.088h-16.63
		c-7.39,0-11.085,3.696-11.085,11.088v1.384c0,7.393,3.696,11.088,11.085,11.088h16.63c1.85,0,2.772,0.923,2.772,2.771v1.386
		c0,1.848-0.922,2.771-2.772,2.771h-16.63c-1.846,0-2.772-0.923-2.772-2.771h-8.313c0,7.391,3.696,11.085,11.085,11.085h16.63
		c7.392,0,11.088-3.695,11.088-11.085v-1.386c0-7.39-3.696-11.087-11.088-11.087h-16.63c-1.846,0-2.772-0.923-2.772-2.772v-1.384
		C90.073,19.983,90.999,19.059,92.845,19.059"/>
	<polygon fill="#275F7A" points="156.593,25.987 134.419,25.987 134.419,10.744 126.106,10.744 126.106,49.547 134.419,49.547 
		134.419,34.302 156.593,34.302 156.593,49.547 164.909,49.547 164.909,10.744 156.593,10.744 	"/>
	<path fill="#275F7A" d="M165.824,49.546h9.589l3.217-5.543h22.449l3.187,5.543h9.618l-24.029-41.63L165.824,49.546z
		 M183.424,35.689l6.431-11.143l6.43,11.143H183.424z"/>
	<path fill="#275F7A" d="M242.515,34.302c7.393,0,11.089-3.694,11.089-11.086v-1.386c0-7.391-3.697-11.087-11.089-11.087H214.8
		v38.804h8.313V34.302h6.265l15.243,15.245h11.753l-15.243-15.245H242.515z M223.113,25.987v-6.929h19.402
		c1.849,0,2.771,0.924,2.771,2.772v1.386c0,1.849-0.922,2.771-2.771,2.771H223.113z"/>
	<path fill="#275F7A" d="M286.861,10.745h-27.715v38.803h8.313V34.303h19.402c7.393,0,11.087-3.696,11.087-11.087v-1.386
		C297.948,14.439,294.254,10.745,286.861,10.745 M289.633,23.216c0,1.849-0.922,2.772-2.771,2.772h-19.402V19.06h19.402
		c1.85,0,2.771,0.923,2.771,2.771V23.216z"/>
	<rect x="309.624" y="25.319" fill="#275F7A" width="8.316" height="24.228"/>
	<rect x="309.624" y="10.744" fill="#275F7A" width="8.314" height="9.38"/>
	<polygon fill="#275F7A" points="329.615,19.059 344.86,19.059 344.86,49.546 353.177,49.546 353.177,19.059 368.42,19.059 
		368.42,10.744 329.615,10.744 	"/>
	<polygon fill="#275F7A" points="373.963,49.546 412.767,49.546 412.767,41.233 382.277,41.233 382.277,34.303 409.995,34.303 
		409.995,25.987 382.277,25.987 382.277,19.059 412.767,19.059 412.767,10.744 373.963,10.744 	"/>
	<path fill="#275F7A" d="M432.168,19.059h11.086c3.697,0,5.544,1.848,5.544,5.543h8.315c0-9.239-4.62-13.858-13.859-13.858h-11.086
		c-9.241,0-13.859,4.62-13.859,13.858v11.087c0,9.239,4.618,13.857,13.859,13.857h11.086c9.239,0,13.859-4.618,13.859-13.857h-8.315
		c0,3.696-1.847,5.543-5.544,5.543h-11.086c-3.695,0-5.546-1.847-5.546-5.543V24.602C426.622,20.906,428.473,19.059,432.168,19.059"
		/>
	<polygon fill="#275F7A" points="493.144,10.744 493.144,25.989 470.971,25.989 470.971,10.744 462.657,10.744 462.657,49.547 
		470.971,49.547 470.971,34.303 493.144,34.303 493.144,49.547 501.46,49.547 501.46,10.744 	"/>
</g>
</svg>
