<svg id="Layer_1" data-name="Layer 1" xmlns="http://www.w3.org/2000/svg" viewBox="0 0 93.28 104"><defs><style>.cls-1{fill:#265f79;}</style></defs><title>icon</title><path class="cls-1" d="M59.41,93.39c-3.27,3.44-5.94,6.26-8.62,9.06-1.81,1.89-3.65,1.93-5.47,0L36.44,93.2c-2.67,3-5,5.83-7.46,8.43-3.08,3.2-4,3.16-7.2-.09-2.46-2.5-4.8-5.11-7.93-8.46-2.88,3.24-5.17,6.08-7.77,8.59-1,1-3,2-4.1,1.59S.1,100.74.09,99.37q-.16-42-.06-84A15.14,15.14,0,0,1,15.21,0Q47.33,0,79.46.05c6.83,0,13.56,7.43,13.76,15,.11,4.12-.07,8.24.06,12.35.1,3.06-1.34,4.28-4.23,4.26-5,0-10.09,0-15.62,0v4q0,31.24,0,62.48c0,2.08.51,4.86-2.16,5.25-1.48.22-3.5-1.29-4.84-2.5C64.07,98.75,62.06,96.27,59.41,93.39ZM47.93,96.8c3.14-3.28,5.85-6,8.49-8.87,1.83-2,3.57-2,5.42-.06C63.4,89.47,65,91,67.17,93.1c0-17.59-.21-34.18.07-50.76.2-12-1.42-24.1,1.75-36.16C67.75,6.13,66.59,6,65.44,6q-24-.13-48-.23C9.18,5.76,5.64,9.31,5.64,17.6q0,35.83,0,71.65v4.46c2.28-2.37,3.85-3.9,5.31-5.53,2.14-2.4,4.12-2.22,6.22.09,2.52,2.77,5.14,5.44,8.07,8.53,2.92-3,5.41-5.67,8-8.23,3-3,3.88-3,6.93.09C42.61,91.16,45,93.75,47.93,96.8ZM87,25.33c0-4.25.26-8.14-.07-12S82.51,5.9,79.43,6c-2.68,0-5.55,3.14-5.85,7-.31,4-.07,8.14-.07,12.34Z"/><path class="cls-1" d="M36.46,24c6.24,0,12.48,0,18.71,0,2.06,0,4,.26,4.09,2.75.15,2.72-1.85,3.27-4,3.27q-18.89,0-37.78,0c-2.14,0-4.21-.37-4.07-3.18S15.62,24,17.74,24C24,24.06,30.22,24,36.46,24Z"/><path class="cls-1" d="M36.33,69.26c6.24,0,12.48,0,18.71,0,2.18,0,4.21.23,4.22,3,0,2.49-1.88,3-3.91,3q-19.07,0-38.14,0c-2,0-3.9-.49-3.85-3.06s1.77-3,3.89-3C23.62,69.29,30,69.26,36.33,69.26Z"/><path class="cls-1" d="M33.67,60c-5.41,0-10.82,0-16.22,0-2.24,0-4.13-.47-4.07-3.18.06-2.46,1.88-3,3.95-3h32.8c2.23,0,4.2.63,4.11,3.22s-2.14,3-4.34,3C44.48,60,39.08,60,33.67,60Z"/><path class="cls-1" d="M27.29,45.09H17.43c-2.19,0-4.13-.5-4.05-3.21.07-2.45,1.83-3,3.93-3q10.2,0,20.41,0c2.1,0,3.85.52,3.9,3S39.92,45,37.84,45.07C34.32,45.12,30.81,45.08,27.29,45.09Z"/></svg>