<svg id="Layer_1" data-name="Layer 1" xmlns="http://www.w3.org/2000/svg" viewBox="0 0 128.46 106.19"><defs><style>.cls-1{fill:#265f79;}</style></defs><title>icon</title><path class="cls-1" d="M66.58,0l2.09,1.38,13.41,8.94a2.17,2.17,0,0,1,1,1.58q.71,5.48,1.4,11c.26,2.08.5,4.17.77,6.25a.63.63,0,0,1-.35.74c-1.14.72-2.23,1.52-3.38,2.31a1.37,1.37,0,0,1-.15-.34c-.47-3.66-.92-7.31-1.39-11q-.46-3.55-1-7.1a1,1,0,0,0-.41-.63q-5-3.36-10-6.69a3.28,3.28,0,0,0-.45-.19A11.7,11.7,0,0,0,68,7.58c-.05,2.64-.07,5.28-.13,7.91q-.15,6.39-.35,12.79c-.08,2.83-.18,5.67-.27,8.5q-.09,3-.17,6c0,.38-.15.51-.54.48q-1.63-.1-3.27-.13c-.43,0-.47-.26-.46-.58,0-1.23.07-2.45.11-3.68s.13-2.59.16-3.88c.07-2.68.11-5.36.18-8,.07-3.22.15-6.43.24-9.65.1-3.7.23-7.41.34-11.11,0-.71,0-.72-.69-.44L55.51,9c-2.33,1-4.66,2-7,3a1.14,1.14,0,0,0-.56.71c-.32,1.55-.57,3.12-.85,4.68,0,.2-.07.4-.12.59-.09.39-.27.44-.68.33-1-.27-2-.48-3.06-.66-.35-.06-.46-.18-.4-.52q.55-2.93,1.08-5.86c.08-.44.12-.89.24-1.31.3-1.05,1.27-1.31,2.11-1.68,2.89-1.26,5.8-2.5,8.7-3.73,2.56-1.09,5.12-2.16,7.67-3.25,1-.43,2-.9,3-1.35Z"/><path class="cls-1" d="M74.93,91.44a7.65,7.65,0,0,0-1.39,4.11c0,3.06,0,6.12.08,9.19,0,.2,0,.39.08.67a7.46,7.46,0,0,1-.79.08c-5.91,0-11.81,0-17.72,0-.62,0-.86-.12-.84-.81.08-2.91.1-5.81.14-8.72a8.54,8.54,0,0,0-1.14-4.15c-.06-.12-.21-.2-.41-.37-.19.59-.35,1.08-.5,1.58a32.24,32.24,0,0,0-1,3.74,30.69,30.69,0,0,0-.17,3.81c0,1.45-.09,2.9-.1,4.35,0,.42-.17.56-.55.56H39.79c-.35,0-.55-.1-.54-.5.1-3.24.09-6.48.34-9.71a26,26,0,0,1,1.17-4.59q.77-2.84,1.58-5.68c.64-2.25,1.27-4.51,1.94-6.75a18,18,0,0,1,1.08-3.07,5.47,5.47,0,0,1,4.13-2.87c2.17-.4,4.35-.76,6.52-1.16.53-.1.75,0,.85.58.66,4.21,1.34,8.43,2.09,12.63a4.86,4.86,0,0,0,1,1.64c1.27,1.84,2.56,3.66,3.84,5.49a2.51,2.51,0,0,0,.27.26l1.75-2.46c.94-1.33,1.89-2.65,2.79-4a4.07,4.07,0,0,0,.64-1.51c.66-3.94,1.27-7.9,1.89-11.85.13-.84.17-.87,1-.73,2.2.38,4.42.69,6.6,1.15a5.55,5.55,0,0,1,4.5,4c1,3.25,1.84,6.53,2.77,9.79.76,2.66,1.54,5.31,2.28,8a9.16,9.16,0,0,1,.36,2.17c.08,2.91.1,5.81.11,8.72,0,.15-.24.33-.4.45s-.22,0-.33,0c-3.45,0-6.89,0-10.34,0-.59,0-.81-.11-.8-.77,0-2.39,0-4.78-.11-7.17a10,10,0,0,0-.5-2.14c-.36-1.33-.74-2.64-1.11-4Z"/><path class="cls-1" d="M52,49c0-.26,0-.54,0-.81q.22-5.06.46-10.11c0-.87.12-1.73.21-2.6a1.29,1.29,0,0,0-.56-1.32c-2.25-1.65-4.47-3.35-6.7-5a6.46,6.46,0,0,0-.56-.33l-5.4,31c-.36-.24-.65-.45-1-.62-.83-.47-1.68-.91-2.5-1.4a.74.74,0,0,1-.33-.58c.58-3.43,1.19-6.86,1.79-10.3.39-2.24.74-4.5,1.13-6.74s.84-4.66,1.25-7q.39-2.21.77-4.42a1.45,1.45,0,0,0,0-.33c-.74.27-1.44.51-2.13.77l-7,2.68c-1.45.56-2.91,1.11-4.35,1.71a1.2,1.2,0,0,0-.57.68c-.63,1.91-1.21,3.83-1.81,5.74-.86,2.72-1.75,5.43-2.61,8.15-.76,2.4-1.5,4.81-2.26,7.2S18.27,60,17.52,62.41c-.64,2-1.25,4-1.88,6.06-.73,2.32-1.49,4.63-2.22,6.94-1,3.14-2,6.29-3,9.44-.86,2.7-1.75,5.38-2.61,8.08-.64,2-1.22,4-1.87,6-.74,2.26-1.53,4.51-2.27,6.77-.13.4-.36.49-.75.49a3,3,0,0,1-2.32-.61,2.21,2.21,0,0,1-.48-2.37c.59-2,1.26-3.9,1.88-5.86s1.25-4,1.89-6.07,1.23-3.86,1.85-5.79,1.3-4,1.94-6c.74-2.34,1.47-4.68,2.21-7q1.3-4.11,2.61-8.22c.88-2.76,1.77-5.52,2.64-8.28s1.71-5.49,2.58-8.23c.62-2,1.26-3.9,1.88-5.86q1.31-4.14,2.61-8.29c.24-.76.45-1.54.75-2.28a2.19,2.19,0,0,1,1.34-1.22c3.77-1.44,7.52-2.91,11.28-4.36,2.33-.9,4.66-1.77,7-2.66a2.09,2.09,0,0,1,2.09.28q5.68,4.25,11.35,8.52a1.9,1.9,0,0,1,.81,1.68q-.23,5.19-.44,10.38A2.47,2.47,0,0,1,55.29,46,36.83,36.83,0,0,0,52,49Z"/><path class="cls-1" d="M106.18,97.6a7.79,7.79,0,0,0-1.17,3.94c0,1.16.07,2.32.07,3.48a.66.66,0,0,1-.33.44,1.18,1.18,0,0,1-.53,0c-3.62,0-7.25,0-10.87,0-.66,0-.82-.2-.82-.84,0-3,0-5.9-.14-8.85a17.24,17.24,0,0,0-.74-3.6c-.87-3.21-1.79-6.4-2.68-9.6-.41-1.47-.39-1.51,1.12-1.71a27.56,27.56,0,0,1,3.19-.24c2.62,0,5.24,0,7.85,0a33.74,33.74,0,0,1,6.56.88,13.85,13.85,0,0,1,2.78.69,4.68,4.68,0,0,1,2.74,3.35l2.34,8.37c.59,2.1,1.31,4.18,1.73,6.32a29.45,29.45,0,0,1,.26,4.81c0,.14-.33.42-.51.42-3,0-5.91,0-8.86,0-.52,0-.52-.3-.49-.66.23-2.34-.63-4.48-1.23-6.66A3.67,3.67,0,0,0,106.18,97.6Z"/><path class="cls-1" d="M21.74,97.63c-.33,1.15-.7,2.16-.89,3.2-.24,1.33-.36,2.68-.48,4,0,.5-.24.64-.71.63q-4.3,0-8.59,0c-.46,0-.65-.12-.6-.61a10.67,10.67,0,0,0,.06-1.87,13.6,13.6,0,0,1,.79-4.8c.67-2.34,1.31-4.68,2-7,.59-2.08,1.11-4.19,1.79-6.24A4.74,4.74,0,0,1,19,81.73l5.8-1a4.67,4.67,0,0,1,.8,0c3.62,0,7.25,0,10.87,0a17.13,17.13,0,0,1,2.45.34c.35.05.49.25.39.62-.45,1.61-.89,3.22-1.34,4.84-.73,2.62-1.52,5.23-2.18,7.87a13.56,13.56,0,0,0-.23,2.93q-.09,3.79-.11,7.57c0,.51-.16.66-.65.66q-5.57,0-11.14,0c-.51,0-.71-.14-.69-.69a29.72,29.72,0,0,0,0-3.94,14.22,14.22,0,0,0-.77-2.75C22.14,98,21.94,97.85,21.74,97.63Z"/><path class="cls-1" d="M91.15,39.79a4.72,4.72,0,0,0,0,.73c.41,2.54.83,5.07,1.24,7.61.46,2.82.91,5.65,1.37,8.47.07.44,0,.65-.5.82a25.12,25.12,0,0,0-2.81,1.22c-.53.26-.65.24-.74-.33-.45-2.82-.91-5.64-1.36-8.46-.49-3.13-1-6.26-1.45-9.4a1.79,1.79,0,0,0-.15-.33c-.26.16-.51.28-.72.44-2.18,1.63-4.34,3.28-6.54,4.89A1.22,1.22,0,0,0,79,46.56c0,2.88,0,5.77,0,8.65a.76.76,0,0,1-.16.48L78,53.1a14.22,14.22,0,0,0-2.81-4.9,1.87,1.87,0,0,1-.41-1c-.06-.82,0-1.65,0-2.48a2,2,0,0,1,.9-1.7c3.58-2.67,7.18-5.31,10.71-8.06a3.33,3.33,0,0,1,3.74-.28c2,.82,4,1.56,6,2.33l6.78,2.62,4.73,1.83a1.93,1.93,0,0,1,1.14,1.31q1.3,4,2.6,8c.66,2.06,1.31,4.12,2,6.18.6,1.86,1.23,3.72,1.84,5.59s1.28,4,1.93,6l2.56,7.89c.65,2,1.29,4,1.95,6,.74,2.27,1.49,4.53,2.22,6.8.54,1.65,1.05,3.31,1.59,5,.73,2.25,1.46,4.49,2.2,6.74.27.83.56,1.65.8,2.48a2,2,0,0,1-1.39,2.46,5.49,5.49,0,0,1-1.65.16.85.85,0,0,1-.61-.48c-1-2.89-1.92-5.79-2.87-8.69-.85-2.58-1.72-5.16-2.56-7.75s-1.74-5.43-2.62-8.14c-.74-2.29-1.51-4.57-2.25-6.86s-1.46-4.59-2.2-6.88c-.54-1.65-1.1-3.3-1.64-5-.72-2.23-1.42-4.46-2.14-6.69-.79-2.44-1.59-4.87-2.38-7.31-.27-.83-.58-1.64-.77-2.49a1.65,1.65,0,0,0-1.24-1.24c-2.6-1-5.2-2-7.79-3l-4.73-1.82A1.3,1.3,0,0,0,91.15,39.79Z"/><path class="cls-1" d="M74.49,58A10.5,10.5,0,1,1,63.81,47.45,10.4,10.4,0,0,1,74.49,58Z"/><path class="cls-1" d="M39.6,69.85a8.61,8.61,0,0,1-8.65,8.73,8.72,8.72,0,0,1-.15-17.44C35.78,61,39.86,65.32,39.6,69.85Z"/><path class="cls-1" d="M97.5,61.16a8.71,8.71,0,0,1,8.33,9.33A8.84,8.84,0,0,1,97,78.58a8.71,8.71,0,1,1,.47-17.42Z"/><path class="cls-1" d="M64,89.07c-.89-1.32-1.73-2.55-2.54-3.81a1.37,1.37,0,0,1-.12-.83c.34-3,.68-6,1.06-9a4.74,4.74,0,0,0-.49-3.16,1.22,1.22,0,0,1-.1-1A1.08,1.08,0,0,1,63,70.7a5.06,5.06,0,0,0,2,0,1.1,1.1,0,0,1,1.22.59.91.91,0,0,1-.1.8c-1.1,1.63-.51,3.37-.33,5.06.26,2.46.61,4.92.91,7.37a.94.94,0,0,1-.09.57c-.77,1.23-1.55,2.44-2.34,3.66A2,2,0,0,1,64,89.07Z"/></svg>