<svg id="Layer_1" data-name="Layer 1" xmlns="http://www.w3.org/2000/svg" viewBox="0 0 67.48 67.46"><defs><style>.cls-1{fill:#265f79;}</style></defs><title>icon</title><path class="cls-1" d="M5.48,5.48V27.87H0q0-.19,0-.38,0-4,0-8Q0,10,0,.42C0,.09.07,0,.41,0H67c.5,0,.5,0,.5.5q0,11.3,0,22.59,0,10.56,0,21.13,0,11.46,0,22.91c0,.1,0,.19,0,.31H39.61V62H62v-.46q0-11.21,0-22.43,0-12.25,0-24.5,0-4.45,0-8.9c0-.28-.15-.25-.33-.25H5.48Z"/><path class="cls-1" d="M9.45,62h11.2v5.44H0V46.84H5.46V58L32.87,30.62H21.68V25.16H42.33V45.79H36.88V34.58Z"/></svg>