<svg id="Layer_1" data-name="Layer 1" xmlns="http://www.w3.org/2000/svg" viewBox="0 0 113.45 92.8"><defs><style>.cls-1{fill:#265f79;}</style></defs><title>icon</title><path class="cls-1" d="M94.73,92.8V89.87c0-20.35,0-40.7,0-61a3.32,3.32,0,0,0-2.22-3.56c-11.4-5.3-22.74-10.73-34.15-16a4.64,4.64,0,0,0-3.46,0C43.47,14.6,32.07,20.08,20.6,25.42a3,3,0,0,0-1.92,3.22q.07,30.52,0,61c0,.94,0,1.89,0,3h-8V30.23L3.46,33.55,0,26.31l7.52-3.57Q31.17,11.57,54.85.45A4.35,4.35,0,0,1,58.08.22q27.14,12.62,54.2,25.43c.34.16.66.38,1.17.68L110,33.55l-7.18-3.21V92.8Z"/><path class="cls-1" d="M43.86,57.47v-26h9.76v8.09h6.22V31.48H70v26Z"/><path class="cls-1" d="M87.13,66V92.24H61V66.11h9.9v8.13H77V66Z"/><path class="cls-1" d="M26.36,92.21V66.08h9.79V74.2h6.16V66.07H52.42V92.21Z"/></svg>