<svg id="Layer_1" data-name="Layer 1" xmlns="http://www.w3.org/2000/svg" viewBox="0 0 110.79 104.48"><defs><style>.cls-1{fill:#78c8a8;}</style></defs><title>icon</title><path class="cls-1" d="M52.24,104.48a52.24,52.24,0,1,1,52.24-52.24A52.3,52.3,0,0,1,52.24,104.48Zm0-100.8A48.56,48.56,0,1,0,100.8,52.24,48.62,48.62,0,0,0,52.24,3.68Z"/><path class="cls-1" d="M82.17,31.7l-5.85,3.41c-1.05-1.19-2-2.38-3.08-3.45A29.14,29.14,0,0,0,54.88,23a29.4,29.4,0,1,0,26.48,33.6,28,28,0,0,0-1.73-15c-.37-.94-.28-1.42.65-1.9,1.63-.83,3.19-1.81,4.78-2.72C91.41,48.82,90.11,69.4,74,81.39A36.36,36.36,0,1,1,34,20.8C51.33,10.62,72.58,17,82.17,31.7Z"/><path class="cls-1" d="M69.72,38.93c-2.06,1.19-4.09,2.43-6.19,3.51-.32.16-1.11-.29-1.51-.65A14,14,0,0,0,48.5,38.41a14.29,14.29,0,0,0,1.18,27.87A14.24,14.24,0,0,0,66.21,49.16,1.36,1.36,0,0,1,67,47.37c1.88-1,3.73-2.13,5.6-3.2,3.66,7.62,1.85,20.32-8.76,26.85a22,22,0,0,1-30.78-7.84c-6-10.16-2.3-24,7.86-29.93C52.11,26.69,64.57,31.38,69.72,38.93Z"/><path class="cls-1" d="M56.57,46.48c-1.64,1-3.25,1.94-4.84,2.93a2.91,2.91,0,0,0,.93,5.34,5,5,0,0,0,2.54-.52c1.36-.64,2.63-1.48,4-2.27a6.78,6.78,0,0,1-4.66,7,7.24,7.24,0,0,1-7.07-12.36A7.16,7.16,0,0,1,56.57,46.48Z"/><path class="cls-1" d="M106.46,19.71c-.33,1.85-.59,3.44-.9,5-.17.89,0,1.41,1,1.6,1.36.24,2.69.7,4.21,1.11a10.65,10.65,0,0,1-.9.67c-3.19,1.85-6.33,3.8-9.6,5.48a4.94,4.94,0,0,1-3.18,0,3.6,3.6,0,0,0-3,.38q-17.14,10-34.32,19.86c-1.76,1-2.69,1-3.28-.07S56.31,52,58,51Q75.18,41,92.35,31.13a3.23,3.23,0,0,0,1.9-2.55,4.11,4.11,0,0,1,2.51-3.34C100,23.53,103.07,21.65,106.46,19.71Z"/></svg>