<svg id="Layer_1" data-name="Layer 1" xmlns="http://www.w3.org/2000/svg" viewBox="0 0 104.79 105.03"><defs><style>.cls-1{fill:#78c8a8;}</style></defs><title>icon</title><path class="cls-1" d="M52.39,104.79a52.39,52.39,0,1,1,52.39-52.39A52.45,52.45,0,0,1,52.39,104.79Zm0-101.1a48.7,48.7,0,1,0,48.7,48.7A48.76,48.76,0,0,0,52.39,3.69Z"/><path class="cls-1" d="M88.45,54.32a34.83,34.83,0,0,1-3.24,15.23,1.16,1.16,0,0,0,.29,1.57q7.17,7.35,14.28,14.76a11.35,11.35,0,0,1-16.35,15.74c-4.79-4.89-9.53-9.83-14.27-14.77a1.12,1.12,0,0,0-1.49-.32,34.22,34.22,0,1,1,19.7-40,33.74,33.74,0,0,1,.75,3.88C88.32,52,88.39,53.52,88.45,54.32ZM54.15,84a29,29,0,0,0,.54-57.94C38.61,26,25.32,38.84,25.21,54.66A28.9,28.9,0,0,0,54.15,84Z"/><path class="cls-1" d="M53.82,72.08c-6.36,0-11.75-2.53-16.46-6.65a39,39,0,0,1-7-8.25,2.7,2.7,0,0,1-.14-3.09c3.38-5.31,7.53-9.89,13.29-12.66,9-4.33,17.47-3.05,25.35,2.85a35.27,35.27,0,0,1,8.55,9.64,2.61,2.61,0,0,1,.12,2.94c-3.86,6-8.66,11-15.48,13.68A21.77,21.77,0,0,1,53.82,72.08ZM72.16,55.53a31,31,0,0,0-6.75-7.11c-5.12-3.81-10.74-5.25-17-3.27-5.45,1.74-9.37,5.48-12.61,10a.87.87,0,0,0,.07.79,28.58,28.58,0,0,0,8.85,8.26,17.38,17.38,0,0,0,12.56,2.15C63.84,65,68.35,60.8,72.16,55.53Z"/><path class="cls-1" d="M62.08,55.42a8.23,8.23,0,1,1-8.18-8.28A8.19,8.19,0,0,1,62.08,55.42Zm-5.22-.07a3,3,0,0,0-3-3,3,3,0,1,0,.06,6A3,3,0,0,0,56.85,55.35Z"/></svg>