<svg id="Layer_1" data-name="Layer 1" xmlns="http://www.w3.org/2000/svg" viewBox="0 0 87.77 59.18"><defs><style>.cls-1{fill:#265f79;}</style></defs><title>icon</title><path class="cls-1" d="M48.6,26.34c3.06-4.1,5.92-8,8.8-11.78,2.43-3.23,4.17-3.13,6.26.35q11.53,19.32,23,38.67c2.16,3.63,1.06,5.58-3.17,5.59q-39.65,0-79.3-.06c-1.39,0-3.41-.6-4-1.59s0-3,.7-4.19c9.4-15.85,18.91-31.64,28.4-47.44,2.42-4,4.22-4,6.73.06C40.18,12.64,44.28,19.32,48.6,26.34ZM57.5,53,32.66,11.56,8,53Zm2.9-32.42c-2.84,3.76-5.45,7.1-7.88,10.57a2.84,2.84,0,0,0,.26,2.42q5.33,9.11,10.85,18.11c.39.63,1.15,1.45,1.76,1.47,4.6.12,9.21.07,14.45.07Z"/><path class="cls-1" d="M51.58,0a6.44,6.44,0,1,1-6.5,6.53A6.43,6.43,0,0,1,51.58,0Z"/></svg>