<svg id="Layer_1" data-name="Layer 1" xmlns="http://www.w3.org/2000/svg" viewBox="0 0 73.11 82"><defs><style>.cls-1{fill:#265f79;}</style></defs><title>icon</title><path class="cls-1" d="M0,30.46v-5c0-.13,0-.26.06-.4.07-1.45.1-2.89.2-4.34.14-2.06.32-4.13.51-6.19a2.6,2.6,0,0,1,1.87-2.36L31.89,1.53,36.07,0h1l.56.22,8.8,3.19,24.12,8.75a2.54,2.54,0,0,1,1.83,2.3c.22,2.55.41,5.1.6,7.65.07,1,.11,2.05.16,3.08v5.52c0,.15,0,.29-.06.44-.2,2.7-.33,5.4-.6,8.09a63.86,63.86,0,0,1-2.2,11.33,48.46,48.46,0,0,1-8.81,17.49,38,38,0,0,1-21,13.38,14,14,0,0,1-6.1.37A37.79,37.79,0,0,1,14.33,71a44.75,44.75,0,0,1-10-16.11A71.68,71.68,0,0,1,.16,33.5Zm5.13-4.28a109.3,109.3,0,0,0,.63,12.57,64.72,64.72,0,0,0,2.38,11.5,42.52,42.52,0,0,0,7.91,15A32.77,32.77,0,0,0,34.4,76.55a7.8,7.8,0,0,0,2.4.29,26.06,26.06,0,0,0,7.85-2.22,34.19,34.19,0,0,0,15.73-14A48,48,0,0,0,65.89,47,78.67,78.67,0,0,0,68,28.94a120.09,120.09,0,0,0-.54-12.16.4.4,0,0,0-.32-.39l-2.4-.87L37,5.44a1.16,1.16,0,0,0-.86,0l-18.6,6.75L6.11,16.35c-.21.08-.41.13-.43.44C5.48,20.47,5.25,24.14,5.13,26.19Z"/><path class="cls-1" d="M26,34.61c0-.32,0-.57,0-.83,0-2.26,0-4.52,0-6.78a7.56,7.56,0,0,1,6.74-7.71A26.3,26.3,0,0,1,36,19.24h3.33A7.57,7.57,0,0,1,47,25.84a26.65,26.65,0,0,1,.08,3.41c0,1.62,0,3.25,0,4.87,0,.15,0,.29,0,.46.59,0,1.14,0,1.68.1a3.73,3.73,0,0,1,3.15,3.44c.06,1.39,0,2.79,0,4.18,0,3.82,0,7.64,0,11.45a3.78,3.78,0,0,1-4,3.93H25.2a3.79,3.79,0,0,1-4-4q0-7.62,0-15.23a3.8,3.8,0,0,1,3.9-3.86Zm15.86,0c0-.14,0-.25,0-.36q0-3.64,0-7.27a2.47,2.47,0,0,0-2.6-2.6H33.88a2.49,2.49,0,0,0-2.7,2.71q0,3.57,0,7.15c0,.12,0,.23,0,.37ZM35,48.83h0c0,.93,0,1.87,0,2.8a.84.84,0,0,0,.93.93H37.1c.8,0,1.07-.28,1.07-1.08,0-1.8,0-3.6,0-5.4a.57.57,0,0,1,.25-.54A3.16,3.16,0,0,0,39.61,42a3.19,3.19,0,0,0-6.09,0,3.16,3.16,0,0,0,1.18,3.56.57.57,0,0,1,.27.53C34.95,47,35,47.91,35,48.83Z"/></svg>