<svg id="Layer_1" data-name="Layer 1" xmlns="http://www.w3.org/2000/svg" viewBox="0 0 107.02 107"><defs><style>.cls-1{fill:#265f79;}</style></defs><title>icon</title><path class="cls-1" d="M107,53.59q0,24.36,0,48.71c0,4.33-1.19,5.27-5.43,4.42q-3.92-.79-7.86-1.5c-2.14-.39-4.32-1.51-6,1.23-.39.63-2.4.49-3.6.32-2.73-.39-5.43-1.05-8.15-1.53-2.12-.38-4.31-1.56-6,1.19-.4.64-2.41.59-3.6.38Q35.41,101.26,4.52,95.6C.65,94.9.07,94.22.07,90.36.07,65.81.12,41.25,0,16.7c0-3.22,1.13-4.62,4.15-5.31Q27.68,6,51.15.39c2.4-.58,4.34-.39,5.77,1.67,1.63,2.35,3.67,2.69,6.37,2.13,7-1.45,14-2.68,21-4C86-.09,87.75-.37,89,1.6a2.68,2.68,0,0,0,2.23.63C94.72,1.68,98.21,1,101.7.3c4.05-.78,5.32.21,5.32,4.28Q107,29.08,107,53.59ZM6.1,89.63l59.11,10.75V23.92c-4.68,0-9.12,0-13.56,0-3.34,0-4-.71-4-4,0-4,0-8,0-12.31L6.1,17.33ZM65.65,9.8l-.83,1.14c1,.66,2,1.27,3,2,2.87,2.1,3.67,4.88,3.65,8.47-.16,24.36-.08,48.73-.08,73.09v3.78l11.8,2.13V6.68Zm35.26,90.6V6.68A78.51,78.51,0,0,1,92.25,8.2c-2.67.18-3.12,1.34-3.11,3.75.08,27.71.05,55.42.05,83.13v3.16ZM63,17.77,53.7,7.87v9.89Z"/><path class="cls-1" d="M16.33,77.36l35.34,3.83c1.57.17,3.15.25,4.72.48,2,.31,3.39,1.39,3,3.59-.33,2-1.83,2.75-3.73,2.54-13.35-1.46-26.69-3-40-4.43-2.06-.23-3.84-.77-3.65-3.28C12.19,77.39,14.2,77.2,16.33,77.36Z"/><path class="cls-1" d="M35.91,28.12c6.52,0,13,0,19.56,0,2.14,0,3.81.57,4,3s-1.67,3.14-3.71,3.21q-20,.73-40,1.41c-2,.07-3.64-.55-3.69-2.84-.06-2.45,1.6-3.12,3.76-3.12,6.72,0,13.44,0,20.16,0Z"/><path class="cls-1" d="M35.74,59.5H15.89c-2.06,0-3.9-.42-3.89-3,0-2.7,1.9-3.08,4.11-3q19.56.7,39.12,1.36c2.24.08,4.41.52,4.17,3.38-.21,2.55-2.23,2.85-4.4,2.83-6.42-.06-12.84,0-19.26,0Z"/><path class="cls-1" d="M16.89,65.45c13.29,1,26.29,2,39.3,2.91,2,.14,3.28.93,3.25,3,0,2.27-1.51,3.08-3.58,2.94Q40.93,73.3,26,72.24c-3.45-.24-6.89-.6-10.34-.8-2.13-.12-3.79-.74-3.67-3.22s1.93-2.91,4-2.78C16.39,65.47,16.79,65.45,16.89,65.45Z"/><path class="cls-1" d="M35.63,47.58c-6.62,0-13.24,0-19.86,0C13.6,47.61,12,47,12,44.53c0-2.29,1.6-2.89,3.64-2.88q20,0,40,0c2.17,0,3.83.59,3.77,3.06s-1.84,2.91-3.94,2.89C48.87,47.56,42.25,47.58,35.63,47.58Z"/></svg>